<?xml version="1.0" encoding="UTF-8"?>
<svg width="140px" height="140px" viewBox="0 0 140 140" version="1.1" xmlns="http://www.w3.org/2000/svg" xmlns:xlink="http://www.w3.org/1999/xlink">
    <!-- Generator: Sketch 44.1 (41455) - http://www.bohemiancoding.com/sketch -->
    <title>ill_,boulier</title>
    <desc>Created with Sketch.</desc>
    <defs>
        <circle id="path-1" cx="70" cy="71" r="70"></circle>
        <linearGradient x1="31.525431%" y1="17.1572843%" x2="56.9886513%" y2="57.2519084%" id="linearGradient-3">
            <stop stop-color="#3E3D2A" stop-opacity="0.3" offset="0%"></stop>
            <stop stop-color="#3E3D2A" stop-opacity="0" offset="100%"></stop>
        </linearGradient>
        <linearGradient x1="50%" y1="1.28591054%" x2="50%" y2="91.3713728%" id="linearGradient-4">
            <stop stop-color="#504C3A" stop-opacity="0.8" offset="0%"></stop>
            <stop stop-color="#3E3D2A" stop-opacity="0" offset="100%"></stop>
        </linearGradient>
        <radialGradient cx="50%" cy="83.0006492%" fx="50%" fy="83.0006492%" r="87.1990528%" gradientTransform="translate(0.500000,0.830006),scale(0.722343,1.000000),rotate(-90.000000),scale(1.000000,2.515540),translate(-0.500000,-0.830006)" id="radialGradient-5">
            <stop stop-color="#7E2F1E" offset="0%"></stop>
            <stop stop-color="#E25436" offset="36.6288981%"></stop>
            <stop stop-color="#F65C3B" offset="43.9692283%"></stop>
            <stop stop-color="#F7765A" offset="100%"></stop>
        </radialGradient>
        <radialGradient cx="50%" cy="83.725259%" fx="50%" fy="83.725259%" r="90.1978396%" gradientTransform="translate(0.500000,0.837253),scale(0.537540,1.000000),rotate(-89.553489),scale(1.000000,1.293002),translate(-0.500000,-0.837253)" id="radialGradient-6">
            <stop stop-color="#FFFFFF" stop-opacity="0" offset="0%"></stop>
            <stop stop-color="#FFFFFF" stop-opacity="0" offset="75.0080804%"></stop>
            <stop stop-color="#FFFFFF" stop-opacity="0.5" offset="100%"></stop>
        </radialGradient>
        <radialGradient cx="50%" cy="83.0006492%" fx="50%" fy="83.0006492%" r="88.2010175%" gradientTransform="translate(0.500000,0.830006),scale(0.722343,1.000000),rotate(-90.000000),scale(1.000000,2.515540),translate(-0.500000,-0.830006)" id="radialGradient-7">
            <stop stop-color="#373624" offset="0%"></stop>
            <stop stop-color="#A89B87" offset="43.9692283%"></stop>
            <stop stop-color="#E6E5D7" offset="100%"></stop>
        </radialGradient>
        <linearGradient x1="59.6965178%" y1="-1.31352097%" x2="92.8227768%" y2="62.6199301%" id="linearGradient-8">
            <stop stop-color="#FFFFFF" stop-opacity="0.7" offset="0%"></stop>
            <stop stop-color="#FFFFFF" stop-opacity="0" offset="100%"></stop>
        </linearGradient>
        <path d="M-3.55271368e-15,17.701971 L-3.55271368e-15,101.080249 L105.970765,101.080249 L105.970765,17.701971 L-3.55271368e-15,17.701971 Z M-8.19522651,9.98385023 L113.643721,9.98385023 L113.643721,108.798369 L-8.19522651,108.798369 L-8.19522651,9.98385023 Z" id="path-9"></path>
    </defs>
    <g id="Symbols" stroke="none" stroke-width="1" fill="none" fill-rule="evenodd">
        <g id="ill_,boulier">
            <mask id="mask-2" fill="white">
                <use xlink:href="#path-1"></use>
            </mask>
            <use id="Mask" fill="#E2E1D0" xlink:href="#path-1"></use>
            <polygon id="Rectangle-4-Copy-3" fill="url(#linearGradient-3)" mask="url(#mask-2)" points="5.58203125 108.233398 102.106445 105.110352 105.65625 22.2548828 189.875117 131.800143 72.8984375 171.998047"></polygon>
            <polygon id="Rectangle-4-Copy-3" fill="url(#linearGradient-3)" mask="url(#mask-2)" points="-7 30.5673828 49.5244141 28.8554687 98.734375 24.5322266 95.5517578 99.1933594 -12.1210938 99.1933594"></polygon>
            <g id="boulier-copy" mask="url(#mask-2)">
                <g transform="translate(-12.681618, 7.048828)">
                    <path d="M8.8817842e-16,23.8764677 L8.8817842e-16,107.254745 L112.10913,107.254745 L112.10913,23.8764677 L8.8817842e-16,23.8764677 Z M-2.02763856,16.1583469 L112.537992,10.1059144 L118.247495,15.3865348 L118.247495,114.972866 L-2.02763856,114.972866 L-2.02763856,16.1583469 Z" id="Rectangle-2" fill="#797266" fill-rule="nonzero"></path>
                    <path d="M95.7633268,22.547434 C95.85217,22.1008147 96.3764886,21.8775051 97.3362827,21.8775051 C98.2960768,21.8775051 98.8203954,22.1008147 98.9092386,22.547434 L98.9092386,43.6975898 L95.7633268,43.6975898 L95.7633268,22.547434 Z" id="Rectangle" fill="#3E3D2A" fill-rule="evenodd"></path>
                    <path d="M40.9811186,22.547434 C41.0699618,22.1008147 41.5942805,21.8775051 42.5540746,21.8775051 C43.5138687,21.8775051 44.0381873,22.1008147 44.1270305,22.547434 L44.1270305,43.6975898 L40.9811186,43.6975898 L40.9811186,22.547434 Z" id="Rectangle-Copy-6" fill="#3E3D2A" fill-rule="evenodd"></path>
                    <path d="M58.6885831,22.5031659 C58.7774264,22.0565466 59.301745,21.833237 60.2615391,21.833237 C61.2213332,21.833237 61.7456518,22.0565466 61.834495,22.5031659 L61.834495,43.6533217 L58.6885831,43.6533217 L58.6885831,22.5031659 Z" id="Rectangle-Copy-2" fill="#3E3D2A" fill-rule="evenodd"></path>
                    <path d="M22.5660243,22.547434 C22.6548675,22.1008147 23.1791861,21.8775051 24.1389802,21.8775051 C25.0987743,21.8775051 25.623093,22.1008147 25.7119362,22.547434 L25.7119362,43.6975898 L22.5660243,43.6975898 L22.5660243,22.547434 Z" id="Rectangle-Copy-6" fill="#3E3D2A" fill-rule="evenodd"></path>
                    <g id="boule-orange" fill="none" transform="translate(88.896031, 32.664756)" fill-rule="evenodd">
                        <rect id="Rectangle-2" fill="url(#linearGradient-4)" x="6.95454545" y="9.1" width="3.09090909" height="4.9"></rect>
                        <path d="M6.9673828,12.1070035 C3.33237478,11.5827446 0.591483807,9.24481083 0.591483807,6.44001516 C0.591483807,3.24953543 4.13799459,0.663140591 8.51283734,0.663140591 C12.8876801,0.663140591 16.4341909,3.24953543 16.4341909,6.44001516 C16.4341909,9.24481083 13.6932999,11.5827446 10.0582919,12.1070035 L10.0582919,9.83303582 C9.97100201,9.42797158 9.45585049,9.22543945 8.51283734,9.22543945 C7.56982419,9.22543945 7.05467268,9.42797158 6.9673828,9.83303582 L6.9673828,12.1070035 Z" id="Combined-Shape" fill="url(#radialGradient-5)"></path>
                        <path d="M6.9673828,12.1070035 C4.03669899,11.6843257 1.68720976,10.0827218 0.886757218,8.00801826 C0.694386382,7.50940975 0.88103246,3.89716797 8.51283734,3.89716797 C16.1446422,3.89716797 16.3029994,7.64493335 16.0599555,8.19976972 C15.1920922,10.1809847 12.8980342,11.6974417 10.0582919,12.1070035 L10.0582919,9.83303582 C9.97100201,9.42797158 9.45585049,9.22543945 8.51283734,9.22543945 C7.56982419,9.22543945 7.05467268,9.42797158 6.9673828,9.83303582 L6.9673828,12.1070035 Z" id="Combined-Shape" fill-opacity="0.800000012" fill="url(#radialGradient-6)" opacity="0.5"></path>
                    </g>
                    <g id="boule-orange" fill="none" transform="translate(34.113823, 28.420745)" fill-rule="evenodd">
                        <rect id="Rectangle-2" fill="url(#linearGradient-4)" x="6.95454545" y="9.1" width="3.09090909" height="4.9"></rect>
                        <path d="M6.9673828,12.1070035 C3.33237478,11.5827446 0.591483807,9.24481083 0.591483807,6.44001516 C0.591483807,3.24953543 4.13799459,0.663140591 8.51283734,0.663140591 C12.8876801,0.663140591 16.4341909,3.24953543 16.4341909,6.44001516 C16.4341909,9.24481083 13.6932999,11.5827446 10.0582919,12.1070035 L10.0582919,9.83303582 C9.97100201,9.42797158 9.45585049,9.22543945 8.51283734,9.22543945 C7.56982419,9.22543945 7.05467268,9.42797158 6.9673828,9.83303582 L6.9673828,12.1070035 Z" id="Combined-Shape" fill="url(#radialGradient-5)"></path>
                        <path d="M6.9673828,12.1070035 C4.03669899,11.6843257 1.68720976,10.0827218 0.886757218,8.00801826 C0.694386382,7.50940975 0.88103246,3.89716797 8.51283734,3.89716797 C16.1446422,3.89716797 16.3029994,7.64493335 16.0599555,8.19976972 C15.1920922,10.1809847 12.8980342,11.6974417 10.0582919,12.1070035 L10.0582919,9.83303582 C9.97100201,9.42797158 9.45585049,9.22543945 8.51283734,9.22543945 C7.56982419,9.22543945 7.05467268,9.42797158 6.9673828,9.83303582 L6.9673828,12.1070035 Z" id="Combined-Shape" fill-opacity="0.800000012" fill="url(#radialGradient-6)" opacity="0.5"></path>
                    </g>
                    <g id="boule-orange" fill="none" transform="translate(51.821288, 32.496311)" fill-rule="evenodd">
                        <rect id="Rectangle-2" fill="url(#linearGradient-4)" x="6.95454545" y="9.1" width="3.09090909" height="4.9"></rect>
                        <path d="M6.9673828,12.1070035 C3.33237478,11.5827446 0.591483807,9.24481083 0.591483807,6.44001516 C0.591483807,3.24953543 4.13799459,0.663140591 8.51283734,0.663140591 C12.8876801,0.663140591 16.4341909,3.24953543 16.4341909,6.44001516 C16.4341909,9.24481083 13.6932999,11.5827446 10.0582919,12.1070035 L10.0582919,9.83303582 C9.97100201,9.42797158 9.45585049,9.22543945 8.51283734,9.22543945 C7.56982419,9.22543945 7.05467268,9.42797158 6.9673828,9.83303582 L6.9673828,12.1070035 Z" id="Combined-Shape" fill="url(#radialGradient-5)"></path>
                        <path d="M6.9673828,12.1070035 C4.03669899,11.6843257 1.68720976,10.0827218 0.886757218,8.00801826 C0.694386382,7.50940975 0.88103246,3.89716797 8.51283734,3.89716797 C16.1446422,3.89716797 16.3029994,7.64493335 16.0599555,8.19976972 C15.1920922,10.1809847 12.8980342,11.6974417 10.0582919,12.1070035 L10.0582919,9.83303582 C9.97100201,9.42797158 9.45585049,9.22543945 8.51283734,9.22543945 C7.56982419,9.22543945 7.05467268,9.42797158 6.9673828,9.83303582 L6.9673828,12.1070035 Z" id="Combined-Shape" fill-opacity="0.800000012" fill="url(#radialGradient-6)" opacity="0.5"></path>
                    </g>
                    <path d="M77.2267151,22.2484136 C77.3155583,21.8017944 77.8398769,21.5784848 78.799671,21.5784848 C79.7594651,21.5784848 80.2837837,21.8017944 80.372627,22.2484136 L80.372627,43.3985695 L77.2267151,43.3985695 L77.2267151,22.2484136 Z" id="Rectangle-Copy" fill="#3E3D2A" fill-rule="evenodd"></path>
                    <polygon id="Line-Copy" fill="#797266" fill-rule="nonzero" transform="translate(56.149825, 53.710621) rotate(13.000000) translate(-56.149825, -53.710621) " points="110.013097 37.3130532 0.390058644 61.8353543 2.28655287 70.1081896 111.909591 45.5858885"></polygon>
                    <polygon id="Line" fill="#E2E1D0" fill-rule="nonzero" transform="translate(53.806726, 46.923301) rotate(13.000000) translate(-53.806726, -46.923301) " points="108.358456 29.9100203 -2.64149846 55.6637471 -0.745004227 63.9365824 110.25495 38.1828555"></polygon>
                    <path d="M76.7306405,64.4257348 C76.8190435,63.9791156 77.3407647,63.755806 78.295804,63.755806 C79.2508433,63.755806 79.7725645,63.9791156 79.8609675,64.4257348 L79.8765523,102.057338 L76.7462253,102.057338 L76.7306405,64.4257348 Z" id="Rectangle-Copy-3" fill="#3E3D2A" fill-rule="evenodd"></path>
                    <path d="M95.4832553,65.971457 C95.5717175,65.5248377 96.0937872,65.3015281 97.0494646,65.3015281 C98.005142,65.3015281 98.5272117,65.5248377 98.6156738,65.971457 L98.6021805,107.513841 L95.469762,107.513841 L95.4832553,65.971457 Z" id="Rectangle-Copy-4" fill="#3E3D2A" fill-rule="evenodd"></path>
                    <path d="M58.2854373,56.1905542 C58.3742805,55.7439349 58.8985991,55.5206253 59.8583932,55.5206253 C60.8181873,55.5206253 61.3425059,55.7439349 61.4313491,56.1905542 L61.4313491,108.213193 L58.2854373,108.213193 L58.2854373,56.1905542 Z" id="Rectangle-Copy-5" fill="#3E3D2A" fill-rule="evenodd"></path>
                    <path d="M40.9811186,56.1905542 C41.0699618,55.7439349 41.5942805,55.5206253 42.5540746,55.5206253 C43.5138687,55.5206253 44.0381873,55.7439349 44.1270305,56.1905542 L44.1270305,108.213193 L40.9811186,108.213193 L40.9811186,56.1905542 Z" id="Rectangle-Copy-7" fill="#3E3D2A" fill-rule="evenodd"></path>
                    <g id="boule" fill="none" transform="translate(88.570712, 82.364422)" fill-rule="evenodd">
                        <rect id="Rectangle-2" fill="url(#linearGradient-4)" x="6.95454545" y="9.1" width="3.09090909" height="4.9"></rect>
                        <path d="M6.9673828,12.1070035 C3.33237478,11.5827446 0.591483807,9.24481083 0.591483807,6.44001516 C0.591483807,3.24953543 4.13799459,0.663140591 8.51283734,0.663140591 C12.8876801,0.663140591 16.4341909,3.24953543 16.4341909,6.44001516 C16.4341909,9.24481083 13.6932999,11.5827446 10.0582919,12.1070035 L10.0582919,9.83303582 C9.97100201,9.42797158 9.45585049,9.22543945 8.51283734,9.22543945 C7.56982419,9.22543945 7.05467268,9.42797158 6.9673828,9.83303582 L6.9673828,12.1070035 Z" id="Combined-Shape" fill="url(#radialGradient-7)"></path>
                        <path d="M6.9673828,12.1070035 C4.03669899,11.6843257 1.68720976,10.0827218 0.886757218,8.00801826 C0.694386382,7.50940975 0.88103246,3.89716797 8.51283734,3.89716797 C16.1446422,3.89716797 16.3029994,7.64493335 16.0599555,8.19976972 C15.1920922,10.1809847 12.8980342,11.6974417 10.0582919,12.1070035 L10.0582919,9.83303582 C9.97100201,9.42797158 9.45585049,9.22543945 8.51283734,9.22543945 C7.56982419,9.22543945 7.05467268,9.42797158 6.9673828,9.83303582 L6.9673828,12.1070035 Z" id="Combined-Shape" fill="url(#radialGradient-6)" opacity="0.5"></path>
                    </g>
                    <g id="boule" fill="none" transform="translate(88.570712, 90.854355)" fill-rule="evenodd">
                        <rect id="Rectangle-2" fill="url(#linearGradient-4)" x="6.95454545" y="9.1" width="3.09090909" height="4.9"></rect>
                        <path d="M6.9673828,12.1070035 C3.33237478,11.5827446 0.591483807,9.24481083 0.591483807,6.44001516 C0.591483807,3.24953543 4.13799459,0.663140591 8.51283734,0.663140591 C12.8876801,0.663140591 16.4341909,3.24953543 16.4341909,6.44001516 C16.4341909,9.24481083 13.6932999,11.5827446 10.0582919,12.1070035 L10.0582919,9.83303582 C9.97100201,9.42797158 9.45585049,9.22543945 8.51283734,9.22543945 C7.56982419,9.22543945 7.05467268,9.42797158 6.9673828,9.83303582 L6.9673828,12.1070035 Z" id="Combined-Shape" fill="url(#radialGradient-7)"></path>
                        <path d="M6.9673828,12.1070035 C4.03669899,11.6843257 1.68720976,10.0827218 0.886757218,8.00801826 C0.694386382,7.50940975 0.88103246,3.89716797 8.51283734,3.89716797 C16.1446422,3.89716797 16.3029994,7.64493335 16.0599555,8.19976972 C15.1920922,10.1809847 12.8980342,11.6974417 10.0582919,12.1070035 L10.0582919,9.83303582 C9.97100201,9.42797158 9.45585049,9.22543945 8.51283734,9.22543945 C7.56982419,9.22543945 7.05467268,9.42797158 6.9673828,9.83303582 L6.9673828,12.1070035 Z" id="Combined-Shape" fill="url(#radialGradient-6)" opacity="0.5"></path>
                    </g>
                    <g id="boule" fill="none" transform="translate(69.832620, 76.155151)" fill-rule="evenodd">
                        <rect id="Rectangle-2" fill="url(#linearGradient-4)" x="6.95454545" y="9.1" width="3.09090909" height="4.9"></rect>
                        <path d="M6.9673828,12.1070035 C3.33237478,11.5827446 0.591483807,9.24481083 0.591483807,6.44001516 C0.591483807,3.24953543 4.13799459,0.663140591 8.51283734,0.663140591 C12.8876801,0.663140591 16.4341909,3.24953543 16.4341909,6.44001516 C16.4341909,9.24481083 13.6932999,11.5827446 10.0582919,12.1070035 L10.0582919,9.83303582 C9.97100201,9.42797158 9.45585049,9.22543945 8.51283734,9.22543945 C7.56982419,9.22543945 7.05467268,9.42797158 6.9673828,9.83303582 L6.9673828,12.1070035 Z" id="Combined-Shape" fill="url(#radialGradient-7)"></path>
                        <path d="M6.9673828,12.1070035 C4.03669899,11.6843257 1.68720976,10.0827218 0.886757218,8.00801826 C0.694386382,7.50940975 0.88103246,3.89716797 8.51283734,3.89716797 C16.1446422,3.89716797 16.3029994,7.64493335 16.0599555,8.19976972 C15.1920922,10.1809847 12.8980342,11.6974417 10.0582919,12.1070035 L10.0582919,9.83303582 C9.97100201,9.42797158 9.45585049,9.22543945 8.51283734,9.22543945 C7.56982419,9.22543945 7.05467268,9.42797158 6.9673828,9.83303582 L6.9673828,12.1070035 Z" id="Combined-Shape" fill="url(#radialGradient-6)" opacity="0.5"></path>
                    </g>
                    <g id="boule" fill="none" transform="translate(69.832620, 83.101460)" fill-rule="evenodd">
                        <rect id="Rectangle-2" fill="url(#linearGradient-4)" x="6.95454545" y="9.1" width="3.09090909" height="4.9"></rect>
                        <path d="M6.9673828,12.1070035 C3.33237478,11.5827446 0.591483807,9.24481083 0.591483807,6.44001516 C0.591483807,3.24953543 4.13799459,0.663140591 8.51283734,0.663140591 C12.8876801,0.663140591 16.4341909,3.24953543 16.4341909,6.44001516 C16.4341909,9.24481083 13.6932999,11.5827446 10.0582919,12.1070035 L10.0582919,9.83303582 C9.97100201,9.42797158 9.45585049,9.22543945 8.51283734,9.22543945 C7.56982419,9.22543945 7.05467268,9.42797158 6.9673828,9.83303582 L6.9673828,12.1070035 Z" id="Combined-Shape" fill="url(#radialGradient-7)"></path>
                        <path d="M6.9673828,12.1070035 C4.03669899,11.6843257 1.68720976,10.0827218 0.886757218,8.00801826 C0.694386382,7.50940975 0.88103246,3.89716797 8.51283734,3.89716797 C16.1446422,3.89716797 16.3029994,7.64493335 16.0599555,8.19976972 C15.1920922,10.1809847 12.8980342,11.6974417 10.0582919,12.1070035 L10.0582919,9.83303582 C9.97100201,9.42797158 9.45585049,9.22543945 8.51283734,9.22543945 C7.56982419,9.22543945 7.05467268,9.42797158 6.9673828,9.83303582 L6.9673828,12.1070035 Z" id="Combined-Shape" fill="url(#radialGradient-6)" opacity="0.5"></path>
                    </g>
                    <g id="boule" fill="none" transform="translate(69.832620, 90.854355)" fill-rule="evenodd">
                        <rect id="Rectangle-2" fill="url(#linearGradient-4)" x="6.95454545" y="9.1" width="3.09090909" height="4.9"></rect>
                        <path d="M6.9673828,12.1070035 C3.33237478,11.5827446 0.591483807,9.24481083 0.591483807,6.44001516 C0.591483807,3.24953543 4.13799459,0.663140591 8.51283734,0.663140591 C12.8876801,0.663140591 16.4341909,3.24953543 16.4341909,6.44001516 C16.4341909,9.24481083 13.6932999,11.5827446 10.0582919,12.1070035 L10.0582919,9.83303582 C9.97100201,9.42797158 9.45585049,9.22543945 8.51283734,9.22543945 C7.56982419,9.22543945 7.05467268,9.42797158 6.9673828,9.83303582 L6.9673828,12.1070035 Z" id="Combined-Shape" fill="url(#radialGradient-7)"></path>
                        <path d="M6.9673828,12.1070035 C4.03669899,11.6843257 1.68720976,10.0827218 0.886757218,8.00801826 C0.694386382,7.50940975 0.88103246,3.89716797 8.51283734,3.89716797 C16.1446422,3.89716797 16.3029994,7.64493335 16.0599555,8.19976972 C15.1920922,10.1809847 12.8980342,11.6974417 10.0582919,12.1070035 L10.0582919,9.83303582 C9.97100201,9.42797158 9.45585049,9.22543945 8.51283734,9.22543945 C7.56982419,9.22543945 7.05467268,9.42797158 6.9673828,9.83303582 L6.9673828,12.1070035 Z" id="Combined-Shape" fill="url(#radialGradient-6)" opacity="0.5"></path>
                    </g>
                    <g id="boule" fill="none" transform="translate(51.418142, 66.893406)" fill-rule="evenodd">
                        <rect id="Rectangle-2" fill="url(#linearGradient-4)" x="6.95454545" y="9.1" width="3.09090909" height="4.9"></rect>
                        <path d="M6.9673828,12.1070035 C3.33237478,11.5827446 0.591483807,9.24481083 0.591483807,6.44001516 C0.591483807,3.24953543 4.13799459,0.663140591 8.51283734,0.663140591 C12.8876801,0.663140591 16.4341909,3.24953543 16.4341909,6.44001516 C16.4341909,9.24481083 13.6932999,11.5827446 10.0582919,12.1070035 L10.0582919,9.83303582 C9.97100201,9.42797158 9.45585049,9.22543945 8.51283734,9.22543945 C7.56982419,9.22543945 7.05467268,9.42797158 6.9673828,9.83303582 L6.9673828,12.1070035 Z" id="Combined-Shape" fill="url(#radialGradient-7)"></path>
                        <path d="M6.9673828,12.1070035 C4.03669899,11.6843257 1.68720976,10.0827218 0.886757218,8.00801826 C0.694386382,7.50940975 0.88103246,3.89716797 8.51283734,3.89716797 C16.1446422,3.89716797 16.3029994,7.64493335 16.0599555,8.19976972 C15.1920922,10.1809847 12.8980342,11.6974417 10.0582919,12.1070035 L10.0582919,9.83303582 C9.97100201,9.42797158 9.45585049,9.22543945 8.51283734,9.22543945 C7.56982419,9.22543945 7.05467268,9.42797158 6.9673828,9.83303582 L6.9673828,12.1070035 Z" id="Combined-Shape" fill="url(#radialGradient-6)" opacity="0.5"></path>
                    </g>
                    <g id="boule" fill="none" transform="translate(51.418142, 74.611527)" fill-rule="evenodd">
                        <rect id="Rectangle-2" fill="url(#linearGradient-4)" x="6.95454545" y="9.1" width="3.09090909" height="4.9"></rect>
                        <path d="M6.9673828,12.1070035 C3.33237478,11.5827446 0.591483807,9.24481083 0.591483807,6.44001516 C0.591483807,3.24953543 4.13799459,0.663140591 8.51283734,0.663140591 C12.8876801,0.663140591 16.4341909,3.24953543 16.4341909,6.44001516 C16.4341909,9.24481083 13.6932999,11.5827446 10.0582919,12.1070035 L10.0582919,9.83303582 C9.97100201,9.42797158 9.45585049,9.22543945 8.51283734,9.22543945 C7.56982419,9.22543945 7.05467268,9.42797158 6.9673828,9.83303582 L6.9673828,12.1070035 Z" id="Combined-Shape" fill="url(#radialGradient-7)"></path>
                        <path d="M6.9673828,12.1070035 C4.03669899,11.6843257 1.68720976,10.0827218 0.886757218,8.00801826 C0.694386382,7.50940975 0.88103246,3.89716797 8.51283734,3.89716797 C16.1446422,3.89716797 16.3029994,7.64493335 16.0599555,8.19976972 C15.1920922,10.1809847 12.8980342,11.6974417 10.0582919,12.1070035 L10.0582919,9.83303582 C9.97100201,9.42797158 9.45585049,9.22543945 8.51283734,9.22543945 C7.56982419,9.22543945 7.05467268,9.42797158 6.9673828,9.83303582 L6.9673828,12.1070035 Z" id="Combined-Shape" fill="url(#radialGradient-6)" opacity="0.5"></path>
                    </g>
                    <g id="boule" fill="none" transform="translate(51.418142, 82.329648)" fill-rule="evenodd">
                        <rect id="Rectangle-2" fill="url(#linearGradient-4)" x="6.95454545" y="9.1" width="3.09090909" height="4.9"></rect>
                        <path d="M6.9673828,12.1070035 C3.33237478,11.5827446 0.591483807,9.24481083 0.591483807,6.44001516 C0.591483807,3.24953543 4.13799459,0.663140591 8.51283734,0.663140591 C12.8876801,0.663140591 16.4341909,3.24953543 16.4341909,6.44001516 C16.4341909,9.24481083 13.6932999,11.5827446 10.0582919,12.1070035 L10.0582919,9.83303582 C9.97100201,9.42797158 9.45585049,9.22543945 8.51283734,9.22543945 C7.56982419,9.22543945 7.05467268,9.42797158 6.9673828,9.83303582 L6.9673828,12.1070035 Z" id="Combined-Shape" fill="url(#radialGradient-7)"></path>
                        <path d="M6.9673828,12.1070035 C4.03669899,11.6843257 1.68720976,10.0827218 0.886757218,8.00801826 C0.694386382,7.50940975 0.88103246,3.89716797 8.51283734,3.89716797 C16.1446422,3.89716797 16.3029994,7.64493335 16.0599555,8.19976972 C15.1920922,10.1809847 12.8980342,11.6974417 10.0582919,12.1070035 L10.0582919,9.83303582 C9.97100201,9.42797158 9.45585049,9.22543945 8.51283734,9.22543945 C7.56982419,9.22543945 7.05467268,9.42797158 6.9673828,9.83303582 L6.9673828,12.1070035 Z" id="Combined-Shape" fill="url(#radialGradient-6)" opacity="0.5"></path>
                    </g>
                    <g id="boule" fill="none" transform="translate(34.113823, 82.329648)" fill-rule="evenodd">
                        <rect id="Rectangle-2" fill="url(#linearGradient-4)" x="6.95454545" y="9.1" width="3.09090909" height="4.9"></rect>
                        <path d="M6.9673828,12.1070035 C3.33237478,11.5827446 0.591483807,9.24481083 0.591483807,6.44001516 C0.591483807,3.24953543 4.13799459,0.663140591 8.51283734,0.663140591 C12.8876801,0.663140591 16.4341909,3.24953543 16.4341909,6.44001516 C16.4341909,9.24481083 13.6932999,11.5827446 10.0582919,12.1070035 L10.0582919,9.83303582 C9.97100201,9.42797158 9.45585049,9.22543945 8.51283734,9.22543945 C7.56982419,9.22543945 7.05467268,9.42797158 6.9673828,9.83303582 L6.9673828,12.1070035 Z" id="Combined-Shape" fill="url(#radialGradient-7)"></path>
                        <path d="M6.9673828,12.1070035 C4.03669899,11.6843257 1.68720976,10.0827218 0.886757218,8.00801826 C0.694386382,7.50940975 0.88103246,3.89716797 8.51283734,3.89716797 C16.1446422,3.89716797 16.3029994,7.64493335 16.0599555,8.19976972 C15.1920922,10.1809847 12.8980342,11.6974417 10.0582919,12.1070035 L10.0582919,9.83303582 C9.97100201,9.42797158 9.45585049,9.22543945 8.51283734,9.22543945 C7.56982419,9.22543945 7.05467268,9.42797158 6.9673828,9.83303582 L6.9673828,12.1070035 Z" id="Combined-Shape" fill="url(#radialGradient-6)" opacity="0.5"></path>
                    </g>
                    <g id="boule" fill="none" transform="translate(51.418142, 90.047769)" fill-rule="evenodd">
                        <rect id="Rectangle-2" fill="url(#linearGradient-4)" x="6.95454545" y="9.1" width="3.09090909" height="4.9"></rect>
                        <path d="M6.9673828,12.1070035 C3.33237478,11.5827446 0.591483807,9.24481083 0.591483807,6.44001516 C0.591483807,3.24953543 4.13799459,0.663140591 8.51283734,0.663140591 C12.8876801,0.663140591 16.4341909,3.24953543 16.4341909,6.44001516 C16.4341909,9.24481083 13.6932999,11.5827446 10.0582919,12.1070035 L10.0582919,9.83303582 C9.97100201,9.42797158 9.45585049,9.22543945 8.51283734,9.22543945 C7.56982419,9.22543945 7.05467268,9.42797158 6.9673828,9.83303582 L6.9673828,12.1070035 Z" id="Combined-Shape" fill="url(#radialGradient-7)"></path>
                        <path d="M6.9673828,12.1070035 C4.03669899,11.6843257 1.68720976,10.0827218 0.886757218,8.00801826 C0.694386382,7.50940975 0.88103246,3.89716797 8.51283734,3.89716797 C16.1446422,3.89716797 16.3029994,7.64493335 16.0599555,8.19976972 C15.1920922,10.1809847 12.8980342,11.6974417 10.0582919,12.1070035 L10.0582919,9.83303582 C9.97100201,9.42797158 9.45585049,9.22543945 8.51283734,9.22543945 C7.56982419,9.22543945 7.05467268,9.42797158 6.9673828,9.83303582 L6.9673828,12.1070035 Z" id="Combined-Shape" fill="url(#radialGradient-6)" opacity="0.5"></path>
                    </g>
                    <g id="boule" fill="none" transform="translate(34.113823, 90.047769)" fill-rule="evenodd">
                        <rect id="Rectangle-2" fill="url(#linearGradient-4)" x="6.95454545" y="9.1" width="3.09090909" height="4.9"></rect>
                        <path d="M6.9673828,12.1070035 C3.33237478,11.5827446 0.591483807,9.24481083 0.591483807,6.44001516 C0.591483807,3.24953543 4.13799459,0.663140591 8.51283734,0.663140591 C12.8876801,0.663140591 16.4341909,3.24953543 16.4341909,6.44001516 C16.4341909,9.24481083 13.6932999,11.5827446 10.0582919,12.1070035 L10.0582919,9.83303582 C9.97100201,9.42797158 9.45585049,9.22543945 8.51283734,9.22543945 C7.56982419,9.22543945 7.05467268,9.42797158 6.9673828,9.83303582 L6.9673828,12.1070035 Z" id="Combined-Shape" fill="url(#radialGradient-7)"></path>
                        <path d="M6.9673828,12.1070035 C4.03669899,11.6843257 1.68720976,10.0827218 0.886757218,8.00801826 C0.694386382,7.50940975 0.88103246,3.89716797 8.51283734,3.89716797 C16.1446422,3.89716797 16.3029994,7.64493335 16.0599555,8.19976972 C15.1920922,10.1809847 12.8980342,11.6974417 10.0582919,12.1070035 L10.0582919,9.83303582 C9.97100201,9.42797158 9.45585049,9.22543945 8.51283734,9.22543945 C7.56982419,9.22543945 7.05467268,9.42797158 6.9673828,9.83303582 L6.9673828,12.1070035 Z" id="Combined-Shape" fill="url(#radialGradient-6)" opacity="0.5"></path>
                    </g>
                    <path d="M22.5660243,56.1905542 C22.6548675,55.7439349 23.1791861,55.5206253 24.1389802,55.5206253 C25.0987743,55.5206253 25.623093,55.7439349 25.7119362,56.1905542 L25.7119362,108.213193 L22.5660243,108.213193 L22.5660243,56.1905542 Z" id="Rectangle-Copy-7" fill="#3E3D2A" fill-rule="evenodd"></path>
                    <g id="boule" fill="none" transform="translate(15.698729, 74.611527)" fill-rule="evenodd">
                        <rect id="Rectangle-2" fill="url(#linearGradient-4)" x="6.95454545" y="9.1" width="3.09090909" height="4.9"></rect>
                        <path d="M6.9673828,12.1070035 C3.33237478,11.5827446 0.591483807,9.24481083 0.591483807,6.44001516 C0.591483807,3.24953543 4.13799459,0.663140591 8.51283734,0.663140591 C12.8876801,0.663140591 16.4341909,3.24953543 16.4341909,6.44001516 C16.4341909,9.24481083 13.6932999,11.5827446 10.0582919,12.1070035 L10.0582919,9.83303582 C9.97100201,9.42797158 9.45585049,9.22543945 8.51283734,9.22543945 C7.56982419,9.22543945 7.05467268,9.42797158 6.9673828,9.83303582 L6.9673828,12.1070035 Z" id="Combined-Shape" fill="url(#radialGradient-7)"></path>
                        <path d="M6.9673828,12.1070035 C4.03669899,11.6843257 1.68720976,10.0827218 0.886757218,8.00801826 C0.694386382,7.50940975 0.88103246,3.89716797 8.51283734,3.89716797 C16.1446422,3.89716797 16.3029994,7.64493335 16.0599555,8.19976972 C15.1920922,10.1809847 12.8980342,11.6974417 10.0582919,12.1070035 L10.0582919,9.83303582 C9.97100201,9.42797158 9.45585049,9.22543945 8.51283734,9.22543945 C7.56982419,9.22543945 7.05467268,9.42797158 6.9673828,9.83303582 L6.9673828,12.1070035 Z" id="Combined-Shape" fill="url(#radialGradient-6)" opacity="0.5"></path>
                    </g>
                    <g id="boule" fill="none" transform="translate(15.698729, 82.329648)" fill-rule="evenodd">
                        <rect id="Rectangle-2" fill="url(#linearGradient-4)" x="6.95454545" y="9.1" width="3.09090909" height="4.9"></rect>
                        <path d="M6.9673828,12.1070035 C3.33237478,11.5827446 0.591483807,9.24481083 0.591483807,6.44001516 C0.591483807,3.24953543 4.13799459,0.663140591 8.51283734,0.663140591 C12.8876801,0.663140591 16.4341909,3.24953543 16.4341909,6.44001516 C16.4341909,9.24481083 13.6932999,11.5827446 10.0582919,12.1070035 L10.0582919,9.83303582 C9.97100201,9.42797158 9.45585049,9.22543945 8.51283734,9.22543945 C7.56982419,9.22543945 7.05467268,9.42797158 6.9673828,9.83303582 L6.9673828,12.1070035 Z" id="Combined-Shape" fill="url(#radialGradient-7)"></path>
                        <path d="M6.9673828,12.1070035 C4.03669899,11.6843257 1.68720976,10.0827218 0.886757218,8.00801826 C0.694386382,7.50940975 0.88103246,3.89716797 8.51283734,3.89716797 C16.1446422,3.89716797 16.3029994,7.64493335 16.0599555,8.19976972 C15.1920922,10.1809847 12.8980342,11.6974417 10.0582919,12.1070035 L10.0582919,9.83303582 C9.97100201,9.42797158 9.45585049,9.22543945 8.51283734,9.22543945 C7.56982419,9.22543945 7.05467268,9.42797158 6.9673828,9.83303582 L6.9673828,12.1070035 Z" id="Combined-Shape" fill="url(#radialGradient-6)" opacity="0.5"></path>
                    </g>
                    <g id="boule" fill="none" transform="translate(15.698729, 90.047769)" fill-rule="evenodd">
                        <rect id="Rectangle-2" fill="url(#linearGradient-4)" x="6.95454545" y="9.1" width="3.09090909" height="4.9"></rect>
                        <path d="M6.9673828,12.1070035 C3.33237478,11.5827446 0.591483807,9.24481083 0.591483807,6.44001516 C0.591483807,3.24953543 4.13799459,0.663140591 8.51283734,0.663140591 C12.8876801,0.663140591 16.4341909,3.24953543 16.4341909,6.44001516 C16.4341909,9.24481083 13.6932999,11.5827446 10.0582919,12.1070035 L10.0582919,9.83303582 C9.97100201,9.42797158 9.45585049,9.22543945 8.51283734,9.22543945 C7.56982419,9.22543945 7.05467268,9.42797158 6.9673828,9.83303582 L6.9673828,12.1070035 Z" id="Combined-Shape" fill="url(#radialGradient-7)"></path>
                        <path d="M6.9673828,12.1070035 C4.03669899,11.6843257 1.68720976,10.0827218 0.886757218,8.00801826 C0.694386382,7.50940975 0.88103246,3.89716797 8.51283734,3.89716797 C16.1446422,3.89716797 16.3029994,7.64493335 16.0599555,8.19976972 C15.1920922,10.1809847 12.8980342,11.6974417 10.0582919,12.1070035 L10.0582919,9.83303582 C9.97100201,9.42797158 9.45585049,9.22543945 8.51283734,9.22543945 C7.56982419,9.22543945 7.05467268,9.42797158 6.9673828,9.83303582 L6.9673828,12.1070035 Z" id="Combined-Shape" fill="url(#radialGradient-6)" opacity="0.5"></path>
                    </g>
                    <g id="boule" fill="none" transform="translate(15.698729, 49.759140)" fill-rule="evenodd">
                        <rect id="Rectangle-2" fill="url(#linearGradient-4)" x="6.95454545" y="9.1" width="3.09090909" height="4.9"></rect>
                        <path d="M6.9673828,12.1070035 C3.33237478,11.5827446 0.591483807,9.24481083 0.591483807,6.44001516 C0.591483807,3.24953543 4.13799459,0.663140591 8.51283734,0.663140591 C12.8876801,0.663140591 16.4341909,3.24953543 16.4341909,6.44001516 C16.4341909,9.24481083 13.6932999,11.5827446 10.0582919,12.1070035 L10.0582919,9.83303582 C9.97100201,9.42797158 9.45585049,9.22543945 8.51283734,9.22543945 C7.56982419,9.22543945 7.05467268,9.42797158 6.9673828,9.83303582 L6.9673828,12.1070035 Z" id="Combined-Shape" fill="url(#radialGradient-7)"></path>
                        <path d="M6.9673828,12.1070035 C4.03669899,11.6843257 1.68720976,10.0827218 0.886757218,8.00801826 C0.694386382,7.50940975 0.88103246,3.89716797 8.51283734,3.89716797 C16.1446422,3.89716797 16.3029994,7.64493335 16.0599555,8.19976972 C15.1920922,10.1809847 12.8980342,11.6974417 10.0582919,12.1070035 L10.0582919,9.83303582 C9.97100201,9.42797158 9.45585049,9.22543945 8.51283734,9.22543945 C7.56982419,9.22543945 7.05467268,9.42797158 6.9673828,9.83303582 L6.9673828,12.1070035 Z" id="Combined-Shape" fill="url(#radialGradient-6)" opacity="0.5"></path>
                    </g>
                    <g id="boule" fill="none" transform="translate(15.698729, 58.403474)" fill-rule="evenodd">
                        <rect id="Rectangle-2" fill="url(#linearGradient-4)" x="6.95454545" y="9.1" width="3.09090909" height="4.9"></rect>
                        <path d="M6.9673828,12.1070035 C3.33237478,11.5827446 0.591483807,9.24481083 0.591483807,6.44001516 C0.591483807,3.24953543 4.13799459,0.663140591 8.51283734,0.663140591 C12.8876801,0.663140591 16.4341909,3.24953543 16.4341909,6.44001516 C16.4341909,9.24481083 13.6932999,11.5827446 10.0582919,12.1070035 L10.0582919,9.83303582 C9.97100201,9.42797158 9.45585049,9.22543945 8.51283734,9.22543945 C7.56982419,9.22543945 7.05467268,9.42797158 6.9673828,9.83303582 L6.9673828,12.1070035 Z" id="Combined-Shape" fill="url(#radialGradient-7)"></path>
                        <path d="M6.9673828,12.1070035 C4.03669899,11.6843257 1.68720976,10.0827218 0.886757218,8.00801826 C0.694386382,7.50940975 0.88103246,3.89716797 8.51283734,3.89716797 C16.1446422,3.89716797 16.3029994,7.64493335 16.0599555,8.19976972 C15.1920922,10.1809847 12.8980342,11.6974417 10.0582919,12.1070035 L10.0582919,9.83303582 C9.97100201,9.42797158 9.45585049,9.22543945 8.51283734,9.22543945 C7.56982419,9.22543945 7.05467268,9.42797158 6.9673828,9.83303582 L6.9673828,12.1070035 Z" id="Combined-Shape" fill="url(#radialGradient-6)" opacity="0.5"></path>
                    </g>
                    <g id="Rectangle-2" fill="none" fill-rule="nonzero">
                        <use fill="#E2E1D0" fill-rule="evenodd" xlink:href="#path-9"></use>
                        <use fill="url(#linearGradient-8)" fill-rule="evenodd" xlink:href="#path-9"></use>
                    </g>
                    <g id="boule-orange" fill="none" transform="translate(88.896031, 15.202184)" fill-rule="evenodd">
                        <rect id="Rectangle-2" fill="url(#linearGradient-4)" x="6.95454545" y="9.1" width="3.09090909" height="4.9"></rect>
                        <path d="M6.9673828,12.1070035 C3.33237478,11.5827446 0.591483807,9.24481083 0.591483807,6.44001516 C0.591483807,3.24953543 4.13799459,0.663140591 8.51283734,0.663140591 C12.8876801,0.663140591 16.4341909,3.24953543 16.4341909,6.44001516 C16.4341909,9.24481083 13.6932999,11.5827446 10.0582919,12.1070035 L10.0582919,9.83303582 C9.97100201,9.42797158 9.45585049,9.22543945 8.51283734,9.22543945 C7.56982419,9.22543945 7.05467268,9.42797158 6.9673828,9.83303582 L6.9673828,12.1070035 Z" id="Combined-Shape" fill="url(#radialGradient-5)"></path>
                        <path d="M6.9673828,12.1070035 C4.03669899,11.6843257 1.68720976,10.0827218 0.886757218,8.00801826 C0.694386382,7.50940975 0.88103246,3.89716797 8.51283734,3.89716797 C16.1446422,3.89716797 16.3029994,7.64493335 16.0599555,8.19976972 C15.1920922,10.1809847 12.8980342,11.6974417 10.0582919,12.1070035 L10.0582919,9.83303582 C9.97100201,9.42797158 9.45585049,9.22543945 8.51283734,9.22543945 C7.56982419,9.22543945 7.05467268,9.42797158 6.9673828,9.83303582 L6.9673828,12.1070035 Z" id="Combined-Shape" fill-opacity="0.800000012" fill="url(#radialGradient-6)" opacity="0.5"></path>
                    </g>
                    <g id="boule-orange" fill="none" transform="translate(34.113823, 15.202184)" fill-rule="evenodd">
                        <rect id="Rectangle-2" fill="url(#linearGradient-4)" x="6.95454545" y="9.1" width="3.09090909" height="4.9"></rect>
                        <path d="M6.9673828,12.1070035 C3.33237478,11.5827446 0.591483807,9.24481083 0.591483807,6.44001516 C0.591483807,3.24953543 4.13799459,0.663140591 8.51283734,0.663140591 C12.8876801,0.663140591 16.4341909,3.24953543 16.4341909,6.44001516 C16.4341909,9.24481083 13.6932999,11.5827446 10.0582919,12.1070035 L10.0582919,9.83303582 C9.97100201,9.42797158 9.45585049,9.22543945 8.51283734,9.22543945 C7.56982419,9.22543945 7.05467268,9.42797158 6.9673828,9.83303582 L6.9673828,12.1070035 Z" id="Combined-Shape" fill="url(#radialGradient-5)"></path>
                        <path d="M6.9673828,12.1070035 C4.03669899,11.6843257 1.68720976,10.0827218 0.886757218,8.00801826 C0.694386382,7.50940975 0.88103246,3.89716797 8.51283734,3.89716797 C16.1446422,3.89716797 16.3029994,7.64493335 16.0599555,8.19976972 C15.1920922,10.1809847 12.8980342,11.6974417 10.0582919,12.1070035 L10.0582919,9.83303582 C9.97100201,9.42797158 9.45585049,9.22543945 8.51283734,9.22543945 C7.56982419,9.22543945 7.05467268,9.42797158 6.9673828,9.83303582 L6.9673828,12.1070035 Z" id="Combined-Shape" fill-opacity="0.800000012" fill="url(#radialGradient-6)" opacity="0.5"></path>
                    </g>
                    <g id="boule-orange" fill="none" transform="translate(15.698729, 25.718447)" fill-rule="evenodd">
                        <rect id="Rectangle-2" fill="url(#linearGradient-4)" x="6.95454545" y="9.1" width="3.09090909" height="4.9"></rect>
                        <path d="M6.9673828,12.1070035 C3.33237478,11.5827446 0.591483807,9.24481083 0.591483807,6.44001516 C0.591483807,3.24953543 4.13799459,0.663140591 8.51283734,0.663140591 C12.8876801,0.663140591 16.4341909,3.24953543 16.4341909,6.44001516 C16.4341909,9.24481083 13.6932999,11.5827446 10.0582919,12.1070035 L10.0582919,9.83303582 C9.97100201,9.42797158 9.45585049,9.22543945 8.51283734,9.22543945 C7.56982419,9.22543945 7.05467268,9.42797158 6.9673828,9.83303582 L6.9673828,12.1070035 Z" id="Combined-Shape" fill="url(#radialGradient-5)"></path>
                        <path d="M6.9673828,12.1070035 C4.03669899,11.6843257 1.68720976,10.0827218 0.886757218,8.00801826 C0.694386382,7.50940975 0.88103246,3.89716797 8.51283734,3.89716797 C16.1446422,3.89716797 16.3029994,7.64493335 16.0599555,8.19976972 C15.1920922,10.1809847 12.8980342,11.6974417 10.0582919,12.1070035 L10.0582919,9.83303582 C9.97100201,9.42797158 9.45585049,9.22543945 8.51283734,9.22543945 C7.56982419,9.22543945 7.05467268,9.42797158 6.9673828,9.83303582 L6.9673828,12.1070035 Z" id="Combined-Shape" fill-opacity="0.800000012" fill="url(#radialGradient-6)" opacity="0.5"></path>
                    </g>
                    <g id="boule-orange" fill="none" transform="translate(15.698729, 15.202184)" fill-rule="evenodd">
                        <rect id="Rectangle-2" fill="url(#linearGradient-4)" x="6.95454545" y="9.1" width="3.09090909" height="4.9"></rect>
                        <path d="M6.9673828,12.1070035 C3.33237478,11.5827446 0.591483807,9.24481083 0.591483807,6.44001516 C0.591483807,3.24953543 4.13799459,0.663140591 8.51283734,0.663140591 C12.8876801,0.663140591 16.4341909,3.24953543 16.4341909,6.44001516 C16.4341909,9.24481083 13.6932999,11.5827446 10.0582919,12.1070035 L10.0582919,9.83303582 C9.97100201,9.42797158 9.45585049,9.22543945 8.51283734,9.22543945 C7.56982419,9.22543945 7.05467268,9.42797158 6.9673828,9.83303582 L6.9673828,12.1070035 Z" id="Combined-Shape" fill="url(#radialGradient-5)"></path>
                        <path d="M6.9673828,12.1070035 C4.03669899,11.6843257 1.68720976,10.0827218 0.886757218,8.00801826 C0.694386382,7.50940975 0.88103246,3.89716797 8.51283734,3.89716797 C16.1446422,3.89716797 16.3029994,7.64493335 16.0599555,8.19976972 C15.1920922,10.1809847 12.8980342,11.6974417 10.0582919,12.1070035 L10.0582919,9.83303582 C9.97100201,9.42797158 9.45585049,9.22543945 8.51283734,9.22543945 C7.56982419,9.22543945 7.05467268,9.42797158 6.9673828,9.83303582 L6.9673828,12.1070035 Z" id="Combined-Shape" fill-opacity="0.800000012" fill="url(#radialGradient-6)" opacity="0.5"></path>
                    </g>
                    <g id="boule" fill="none" transform="translate(88.570712, 49.661385)" fill-rule="evenodd">
                        <rect id="Rectangle-2" fill="url(#linearGradient-4)" x="6.95454545" y="9.1" width="3.09090909" height="4.9"></rect>
                        <path d="M6.9673828,12.1070035 C3.33237478,11.5827446 0.591483807,9.24481083 0.591483807,6.44001516 C0.591483807,3.24953543 4.13799459,0.663140591 8.51283734,0.663140591 C12.8876801,0.663140591 16.4341909,3.24953543 16.4341909,6.44001516 C16.4341909,9.24481083 13.6932999,11.5827446 10.0582919,12.1070035 L10.0582919,9.83303582 C9.97100201,9.42797158 9.45585049,9.22543945 8.51283734,9.22543945 C7.56982419,9.22543945 7.05467268,9.42797158 6.9673828,9.83303582 L6.9673828,12.1070035 Z" id="Combined-Shape" fill="url(#radialGradient-7)"></path>
                        <path d="M6.9673828,12.1070035 C4.03669899,11.6843257 1.68720976,10.0827218 0.886757218,8.00801826 C0.694386382,7.50940975 0.88103246,3.89716797 8.51283734,3.89716797 C16.1446422,3.89716797 16.3029994,7.64493335 16.0599555,8.19976972 C15.1920922,10.1809847 12.8980342,11.6974417 10.0582919,12.1070035 L10.0582919,9.83303582 C9.97100201,9.42797158 9.45585049,9.22543945 8.51283734,9.22543945 C7.56982419,9.22543945 7.05467268,9.42797158 6.9673828,9.83303582 L6.9673828,12.1070035 Z" id="Combined-Shape" fill="url(#radialGradient-6)" opacity="0.5"></path>
                    </g>
                    <g id="boule" fill="none" transform="translate(88.570712, 56.534095)" fill-rule="evenodd">
                        <rect id="Rectangle-2" fill="url(#linearGradient-4)" x="6.95454545" y="9.1" width="3.09090909" height="4.9"></rect>
                        <path d="M6.9673828,12.1070035 C3.33237478,11.5827446 0.591483807,9.24481083 0.591483807,6.44001516 C0.591483807,3.24953543 4.13799459,0.663140591 8.51283734,0.663140591 C12.8876801,0.663140591 16.4341909,3.24953543 16.4341909,6.44001516 C16.4341909,9.24481083 13.6932999,11.5827446 10.0582919,12.1070035 L10.0582919,9.83303582 C9.97100201,9.42797158 9.45585049,9.22543945 8.51283734,9.22543945 C7.56982419,9.22543945 7.05467268,9.42797158 6.9673828,9.83303582 L6.9673828,12.1070035 Z" id="Combined-Shape" fill="url(#radialGradient-7)"></path>
                        <path d="M6.9673828,12.1070035 C4.03669899,11.6843257 1.68720976,10.0827218 0.886757218,8.00801826 C0.694386382,7.50940975 0.88103246,3.89716797 8.51283734,3.89716797 C16.1446422,3.89716797 16.3029994,7.64493335 16.0599555,8.19976972 C15.1920922,10.1809847 12.8980342,11.6974417 10.0582919,12.1070035 L10.0582919,9.83303582 C9.97100201,9.42797158 9.45585049,9.22543945 8.51283734,9.22543945 C7.56982419,9.22543945 7.05467268,9.42797158 6.9673828,9.83303582 L6.9673828,12.1070035 Z" id="Combined-Shape" fill="url(#radialGradient-6)" opacity="0.5"></path>
                    </g>
                    <g id="boule" fill="none" transform="translate(88.570712, 63.886288)" fill-rule="evenodd">
                        <rect id="Rectangle-2" fill="url(#linearGradient-4)" x="6.95454545" y="9.1" width="3.09090909" height="4.9"></rect>
                        <path d="M6.9673828,12.1070035 C3.33237478,11.5827446 0.591483807,9.24481083 0.591483807,6.44001516 C0.591483807,3.24953543 4.13799459,0.663140591 8.51283734,0.663140591 C12.8876801,0.663140591 16.4341909,3.24953543 16.4341909,6.44001516 C16.4341909,9.24481083 13.6932999,11.5827446 10.0582919,12.1070035 L10.0582919,9.83303582 C9.97100201,9.42797158 9.45585049,9.22543945 8.51283734,9.22543945 C7.56982419,9.22543945 7.05467268,9.42797158 6.9673828,9.83303582 L6.9673828,12.1070035 Z" id="Combined-Shape" fill="url(#radialGradient-7)"></path>
                        <path d="M6.9673828,12.1070035 C4.03669899,11.6843257 1.68720976,10.0827218 0.886757218,8.00801826 C0.694386382,7.50940975 0.88103246,3.89716797 8.51283734,3.89716797 C16.1446422,3.89716797 16.3029994,7.64493335 16.0599555,8.19976972 C15.1920922,10.1809847 12.8980342,11.6974417 10.0582919,12.1070035 L10.0582919,9.83303582 C9.97100201,9.42797158 9.45585049,9.22543945 8.51283734,9.22543945 C7.56982419,9.22543945 7.05467268,9.42797158 6.9673828,9.83303582 L6.9673828,12.1070035 Z" id="Combined-Shape" fill="url(#radialGradient-6)" opacity="0.5"></path>
                    </g>
                    <g id="boule-orange" fill="none" transform="translate(70.359419, 14.608203)" fill-rule="evenodd">
                        <rect id="Rectangle-2" fill="url(#linearGradient-4)" x="6.95454545" y="9.1" width="3.09090909" height="4.9"></rect>
                        <path d="M6.9673828,12.1070035 C3.33237478,11.5827446 0.591483807,9.24481083 0.591483807,6.44001516 C0.591483807,3.24953543 4.13799459,0.663140591 8.51283734,0.663140591 C12.8876801,0.663140591 16.4341909,3.24953543 16.4341909,6.44001516 C16.4341909,9.24481083 13.6932999,11.5827446 10.0582919,12.1070035 L10.0582919,9.83303582 C9.97100201,9.42797158 9.45585049,9.22543945 8.51283734,9.22543945 C7.56982419,9.22543945 7.05467268,9.42797158 6.9673828,9.83303582 L6.9673828,12.1070035 Z" id="Combined-Shape" fill="url(#radialGradient-5)"></path>
                        <path d="M6.9673828,12.1070035 C4.03669899,11.6843257 1.68720976,10.0827218 0.886757218,8.00801826 C0.694386382,7.50940975 0.88103246,3.89716797 8.51283734,3.89716797 C16.1446422,3.89716797 16.3029994,7.64493335 16.0599555,8.19976972 C15.1920922,10.1809847 12.8980342,11.6974417 10.0582919,12.1070035 L10.0582919,9.83303582 C9.97100201,9.42797158 9.45585049,9.22543945 8.51283734,9.22543945 C7.56982419,9.22543945 7.05467268,9.42797158 6.9673828,9.83303582 L6.9673828,12.1070035 Z" id="Combined-Shape" fill-opacity="0.800000012" fill="url(#radialGradient-6)" opacity="0.5"></path>
                    </g>
                    <g id="boule" fill="none" transform="translate(69.832620, 49.839215)" fill-rule="evenodd">
                        <rect id="Rectangle-2" fill="url(#linearGradient-4)" x="6.95454545" y="9.1" width="3.09090909" height="4.9"></rect>
                        <path d="M6.9673828,12.1070035 C3.33237478,11.5827446 0.591483807,9.24481083 0.591483807,6.44001516 C0.591483807,3.24953543 4.13799459,0.663140591 8.51283734,0.663140591 C12.8876801,0.663140591 16.4341909,3.24953543 16.4341909,6.44001516 C16.4341909,9.24481083 13.6932999,11.5827446 10.0582919,12.1070035 L10.0582919,9.83303582 C9.97100201,9.42797158 9.45585049,9.22543945 8.51283734,9.22543945 C7.56982419,9.22543945 7.05467268,9.42797158 6.9673828,9.83303582 L6.9673828,12.1070035 Z" id="Combined-Shape" fill="url(#radialGradient-7)"></path>
                        <path d="M6.9673828,12.1070035 C4.03669899,11.6843257 1.68720976,10.0827218 0.886757218,8.00801826 C0.694386382,7.50940975 0.88103246,3.89716797 8.51283734,3.89716797 C16.1446422,3.89716797 16.3029994,7.64493335 16.0599555,8.19976972 C15.1920922,10.1809847 12.8980342,11.6974417 10.0582919,12.1070035 L10.0582919,9.83303582 C9.97100201,9.42797158 9.45585049,9.22543945 8.51283734,9.22543945 C7.56982419,9.22543945 7.05467268,9.42797158 6.9673828,9.83303582 L6.9673828,12.1070035 Z" id="Combined-Shape" fill="url(#radialGradient-6)" opacity="0.5"></path>
                    </g>
                    <g id="boule-orange" fill="none" transform="translate(70.359419, 22.042615)" fill-rule="evenodd">
                        <rect id="Rectangle-2" fill="url(#linearGradient-4)" x="6.95454545" y="9.1" width="3.09090909" height="4.9"></rect>
                        <path d="M6.9673828,12.1070035 C3.33237478,11.5827446 0.591483807,9.24481083 0.591483807,6.44001516 C0.591483807,3.24953543 4.13799459,0.663140591 8.51283734,0.663140591 C12.8876801,0.663140591 16.4341909,3.24953543 16.4341909,6.44001516 C16.4341909,9.24481083 13.6932999,11.5827446 10.0582919,12.1070035 L10.0582919,9.83303582 C9.97100201,9.42797158 9.45585049,9.22543945 8.51283734,9.22543945 C7.56982419,9.22543945 7.05467268,9.42797158 6.9673828,9.83303582 L6.9673828,12.1070035 Z" id="Combined-Shape" fill="url(#radialGradient-5)"></path>
                        <path d="M6.9673828,12.1070035 C4.03669899,11.6843257 1.68720976,10.0827218 0.886757218,8.00801826 C0.694386382,7.50940975 0.88103246,3.89716797 8.51283734,3.89716797 C16.1446422,3.89716797 16.3029994,7.64493335 16.0599555,8.19976972 C15.1920922,10.1809847 12.8980342,11.6974417 10.0582919,12.1070035 L10.0582919,9.83303582 C9.97100201,9.42797158 9.45585049,9.22543945 8.51283734,9.22543945 C7.56982419,9.22543945 7.05467268,9.42797158 6.9673828,9.83303582 L6.9673828,12.1070035 Z" id="Combined-Shape" fill-opacity="0.800000012" fill="url(#radialGradient-6)" opacity="0.5"></path>
                    </g>
                    <g id="boule" fill="none" transform="translate(69.832620, 56.534095)" fill-rule="evenodd">
                        <rect id="Rectangle-2" fill="url(#linearGradient-4)" x="6.95454545" y="9.1" width="3.09090909" height="4.9"></rect>
                        <path d="M6.9673828,12.1070035 C3.33237478,11.5827446 0.591483807,9.24481083 0.591483807,6.44001516 C0.591483807,3.24953543 4.13799459,0.663140591 8.51283734,0.663140591 C12.8876801,0.663140591 16.4341909,3.24953543 16.4341909,6.44001516 C16.4341909,9.24481083 13.6932999,11.5827446 10.0582919,12.1070035 L10.0582919,9.83303582 C9.97100201,9.42797158 9.45585049,9.22543945 8.51283734,9.22543945 C7.56982419,9.22543945 7.05467268,9.42797158 6.9673828,9.83303582 L6.9673828,12.1070035 Z" id="Combined-Shape" fill="url(#radialGradient-7)"></path>
                        <path d="M6.9673828,12.1070035 C4.03669899,11.6843257 1.68720976,10.0827218 0.886757218,8.00801826 C0.694386382,7.50940975 0.88103246,3.89716797 8.51283734,3.89716797 C16.1446422,3.89716797 16.3029994,7.64493335 16.0599555,8.19976972 C15.1920922,10.1809847 12.8980342,11.6974417 10.0582919,12.1070035 L10.0582919,9.83303582 C9.97100201,9.42797158 9.45585049,9.22543945 8.51283734,9.22543945 C7.56982419,9.22543945 7.05467268,9.42797158 6.9673828,9.83303582 L6.9673828,12.1070035 Z" id="Combined-Shape" fill="url(#radialGradient-6)" opacity="0.5"></path>
                    </g>
                    <g id="boule-orange" fill="none" transform="translate(51.821288, 14.528128)" fill-rule="evenodd">
                        <rect id="Rectangle-2" fill="url(#linearGradient-4)" x="6.95454545" y="9.1" width="3.09090909" height="4.9"></rect>
                        <path d="M6.9673828,12.1070035 C3.33237478,11.5827446 0.591483807,9.24481083 0.591483807,6.44001516 C0.591483807,3.24953543 4.13799459,0.663140591 8.51283734,0.663140591 C12.8876801,0.663140591 16.4341909,3.24953543 16.4341909,6.44001516 C16.4341909,9.24481083 13.6932999,11.5827446 10.0582919,12.1070035 L10.0582919,9.83303582 C9.97100201,9.42797158 9.45585049,9.22543945 8.51283734,9.22543945 C7.56982419,9.22543945 7.05467268,9.42797158 6.9673828,9.83303582 L6.9673828,12.1070035 Z" id="Combined-Shape" fill="url(#radialGradient-5)"></path>
                        <path d="M6.9673828,12.1070035 C4.03669899,11.6843257 1.68720976,10.0827218 0.886757218,8.00801826 C0.694386382,7.50940975 0.88103246,3.89716797 8.51283734,3.89716797 C16.1446422,3.89716797 16.3029994,7.64493335 16.0599555,8.19976972 C15.1920922,10.1809847 12.8980342,11.6974417 10.0582919,12.1070035 L10.0582919,9.83303582 C9.97100201,9.42797158 9.45585049,9.22543945 8.51283734,9.22543945 C7.56982419,9.22543945 7.05467268,9.42797158 6.9673828,9.83303582 L6.9673828,12.1070035 Z" id="Combined-Shape" fill-opacity="0.800000012" fill="url(#radialGradient-6)" opacity="0.5"></path>
                    </g>
                    <g id="boule" fill="none" transform="translate(51.418142, 49.759140)" fill-rule="evenodd">
                        <rect id="Rectangle-2" fill="url(#linearGradient-4)" x="6.95454545" y="9.1" width="3.09090909" height="4.9"></rect>
                        <path d="M6.9673828,12.1070035 C3.33237478,11.5827446 0.591483807,9.24481083 0.591483807,6.44001516 C0.591483807,3.24953543 4.13799459,0.663140591 8.51283734,0.663140591 C12.8876801,0.663140591 16.4341909,3.24953543 16.4341909,6.44001516 C16.4341909,9.24481083 13.6932999,11.5827446 10.0582919,12.1070035 L10.0582919,9.83303582 C9.97100201,9.42797158 9.45585049,9.22543945 8.51283734,9.22543945 C7.56982419,9.22543945 7.05467268,9.42797158 6.9673828,9.83303582 L6.9673828,12.1070035 Z" id="Combined-Shape" fill="url(#radialGradient-7)"></path>
                        <path d="M6.9673828,12.1070035 C4.03669899,11.6843257 1.68720976,10.0827218 0.886757218,8.00801826 C0.694386382,7.50940975 0.88103246,3.89716797 8.51283734,3.89716797 C16.1446422,3.89716797 16.3029994,7.64493335 16.0599555,8.19976972 C15.1920922,10.1809847 12.8980342,11.6974417 10.0582919,12.1070035 L10.0582919,9.83303582 C9.97100201,9.42797158 9.45585049,9.22543945 8.51283734,9.22543945 C7.56982419,9.22543945 7.05467268,9.42797158 6.9673828,9.83303582 L6.9673828,12.1070035 Z" id="Combined-Shape" fill="url(#radialGradient-6)" opacity="0.5"></path>
                    </g>
                    <g id="boule" fill="none" transform="translate(34.113823, 49.759140)" fill-rule="evenodd">
                        <rect id="Rectangle-2" fill="url(#linearGradient-4)" x="6.95454545" y="9.1" width="3.09090909" height="4.9"></rect>
                        <path d="M6.9673828,12.1070035 C3.33237478,11.5827446 0.591483807,9.24481083 0.591483807,6.44001516 C0.591483807,3.24953543 4.13799459,0.663140591 8.51283734,0.663140591 C12.8876801,0.663140591 16.4341909,3.24953543 16.4341909,6.44001516 C16.4341909,9.24481083 13.6932999,11.5827446 10.0582919,12.1070035 L10.0582919,9.83303582 C9.97100201,9.42797158 9.45585049,9.22543945 8.51283734,9.22543945 C7.56982419,9.22543945 7.05467268,9.42797158 6.9673828,9.83303582 L6.9673828,12.1070035 Z" id="Combined-Shape" fill="url(#radialGradient-7)"></path>
                        <path d="M6.9673828,12.1070035 C4.03669899,11.6843257 1.68720976,10.0827218 0.886757218,8.00801826 C0.694386382,7.50940975 0.88103246,3.89716797 8.51283734,3.89716797 C16.1446422,3.89716797 16.3029994,7.64493335 16.0599555,8.19976972 C15.1920922,10.1809847 12.8980342,11.6974417 10.0582919,12.1070035 L10.0582919,9.83303582 C9.97100201,9.42797158 9.45585049,9.22543945 8.51283734,9.22543945 C7.56982419,9.22543945 7.05467268,9.42797158 6.9673828,9.83303582 L6.9673828,12.1070035 Z" id="Combined-Shape" fill="url(#radialGradient-6)" opacity="0.5"></path>
                    </g>
                    <g id="boule" fill="none" transform="translate(34.113823, 57.631661)" fill-rule="evenodd">
                        <rect id="Rectangle-2" fill="url(#linearGradient-4)" x="6.95454545" y="9.1" width="3.09090909" height="4.9"></rect>
                        <path d="M6.9673828,12.1070035 C3.33237478,11.5827446 0.591483807,9.24481083 0.591483807,6.44001516 C0.591483807,3.24953543 4.13799459,0.663140591 8.51283734,0.663140591 C12.8876801,0.663140591 16.4341909,3.24953543 16.4341909,6.44001516 C16.4341909,9.24481083 13.6932999,11.5827446 10.0582919,12.1070035 L10.0582919,9.83303582 C9.97100201,9.42797158 9.45585049,9.22543945 8.51283734,9.22543945 C7.56982419,9.22543945 7.05467268,9.42797158 6.9673828,9.83303582 L6.9673828,12.1070035 Z" id="Combined-Shape" fill="url(#radialGradient-7)"></path>
                        <path d="M6.9673828,12.1070035 C4.03669899,11.6843257 1.68720976,10.0827218 0.886757218,8.00801826 C0.694386382,7.50940975 0.88103246,3.89716797 8.51283734,3.89716797 C16.1446422,3.89716797 16.3029994,7.64493335 16.0599555,8.19976972 C15.1920922,10.1809847 12.8980342,11.6974417 10.0582919,12.1070035 L10.0582919,9.83303582 C9.97100201,9.42797158 9.45585049,9.22543945 8.51283734,9.22543945 C7.56982419,9.22543945 7.05467268,9.42797158 6.9673828,9.83303582 L6.9673828,12.1070035 Z" id="Combined-Shape" fill="url(#radialGradient-6)" opacity="0.5"></path>
                    </g>
                    <g id="boule" fill="none" transform="translate(34.113823, 65.349782)" fill-rule="evenodd">
                        <rect id="Rectangle-2" fill="url(#linearGradient-4)" x="6.95454545" y="9.1" width="3.09090909" height="4.9"></rect>
                        <path d="M6.9673828,12.1070035 C3.33237478,11.5827446 0.591483807,9.24481083 0.591483807,6.44001516 C0.591483807,3.24953543 4.13799459,0.663140591 8.51283734,0.663140591 C12.8876801,0.663140591 16.4341909,3.24953543 16.4341909,6.44001516 C16.4341909,9.24481083 13.6932999,11.5827446 10.0582919,12.1070035 L10.0582919,9.83303582 C9.97100201,9.42797158 9.45585049,9.22543945 8.51283734,9.22543945 C7.56982419,9.22543945 7.05467268,9.42797158 6.9673828,9.83303582 L6.9673828,12.1070035 Z" id="Combined-Shape" fill="url(#radialGradient-7)"></path>
                        <path d="M6.9673828,12.1070035 C4.03669899,11.6843257 1.68720976,10.0827218 0.886757218,8.00801826 C0.694386382,7.50940975 0.88103246,3.89716797 8.51283734,3.89716797 C16.1446422,3.89716797 16.3029994,7.64493335 16.0599555,8.19976972 C15.1920922,10.1809847 12.8980342,11.6974417 10.0582919,12.1070035 L10.0582919,9.83303582 C9.97100201,9.42797158 9.45585049,9.22543945 8.51283734,9.22543945 C7.56982419,9.22543945 7.05467268,9.42797158 6.9673828,9.83303582 L6.9673828,12.1070035 Z" id="Combined-Shape" fill="url(#radialGradient-6)" opacity="0.5"></path>
                    </g>
                </g>
            </g>
        </g>
    </g>
</svg>