<?xml version="1.0" encoding="UTF-8"?>
<svg width="140px" height="140px" viewBox="0 0 140 140" version="1.1" xmlns="http://www.w3.org/2000/svg" xmlns:xlink="http://www.w3.org/1999/xlink">
    <!-- Generator: Sketch 44.1 (41455) - http://www.bohemiancoding.com/sketch -->
    <title>ill_what</title>
    <desc>Created with Sketch.</desc>
    <defs>
        <circle id="path-1" cx="70" cy="70" r="70"></circle>
        <linearGradient x1="50%" y1="1.28591054%" x2="50%" y2="91.3713728%" id="linearGradient-3">
            <stop stop-color="#504C3A" stop-opacity="0.8" offset="0%"></stop>
            <stop stop-color="#3E3D2A" stop-opacity="0" offset="100%"></stop>
        </linearGradient>
        <radialGradient cx="50%" cy="83.0006492%" fx="50%" fy="83.0006492%" r="88.2010175%" gradientTransform="translate(0.500000,0.830006),scale(0.730942,1.000000),rotate(-90.000000),scale(1.000000,2.515540),translate(-0.500000,-0.830006)" id="radialGradient-4">
            <stop stop-color="#373624" offset="0%"></stop>
            <stop stop-color="#A89B87" offset="43.9692283%"></stop>
            <stop stop-color="#E6E5D7" offset="100%"></stop>
        </radialGradient>
        <radialGradient cx="50%" cy="83.725259%" fx="50%" fy="83.725259%" r="90.1978396%" gradientTransform="translate(0.500000,0.837253),scale(0.543939,1.000000),rotate(-89.558742),scale(1.000000,1.293002),translate(-0.500000,-0.837253)" id="radialGradient-5">
            <stop stop-color="#FFFFFF" stop-opacity="0" offset="0%"></stop>
            <stop stop-color="#FFFFFF" stop-opacity="0" offset="75.0080804%"></stop>
            <stop stop-color="#FFFFFF" stop-opacity="0.5" offset="100%"></stop>
        </radialGradient>
        <linearGradient x1="59.6965178%" y1="-1.31352097%" x2="92.8227768%" y2="62.6199301%" id="linearGradient-6">
            <stop stop-color="#FFFFFF" stop-opacity="0.7" offset="0%"></stop>
            <stop stop-color="#FFFFFF" stop-opacity="0" offset="100%"></stop>
        </linearGradient>
        <path d="M19.6233444,19.2412729 L19.6233444,109.869835 L115.525507,109.869835 L115.525507,19.2412729 L19.6233444,19.2412729 Z M11.2585646,10.8520111 L123.890286,10.8520111 L123.890286,118.259097 L11.2585646,118.259097 L11.2585646,10.8520111 Z" id="path-7"></path>
        <linearGradient x1="44.1964379%" y1="31.8089999%" x2="76.7732236%" y2="80.2738538%" id="linearGradient-8">
            <stop stop-color="#3E3D2A" stop-opacity="0.3" offset="0%"></stop>
            <stop stop-color="#3E3D2A" stop-opacity="0" offset="100%"></stop>
        </linearGradient>
        <linearGradient x1="35.2603769%" y1="26.4560623%" x2="62.1711735%" y2="50%" id="linearGradient-9">
            <stop stop-color="#3E3D2A" stop-opacity="0.3" offset="0%"></stop>
            <stop stop-color="#3E3D2A" stop-opacity="0" offset="100%"></stop>
        </linearGradient>
        <linearGradient x1="31.525431%" y1="17.1572843%" x2="56.9886513%" y2="57.2519084%" id="linearGradient-10">
            <stop stop-color="#3E3D2A" stop-opacity="0.3" offset="0%"></stop>
            <stop stop-color="#3E3D2A" stop-opacity="0" offset="100%"></stop>
        </linearGradient>
        <linearGradient x1="50%" y1="0%" x2="50%" y2="100%" id="linearGradient-11">
            <stop stop-color="#312F23" stop-opacity="0" offset="0%"></stop>
            <stop stop-color="#000000" stop-opacity="0.5" offset="100%"></stop>
        </linearGradient>
        <path d="M32.3491067,14.0510763 C28.9037562,14.0510763 25.3410039,14.8708459 21.6607431,16.5104096 L20.4861976,24.0055207 L10.6200158,24.0055207 L1.42660245,19.6625977 L8.8564897,5.60394965 L32.9742099,6.03618707 L32.3491067,14.0510763 Z" id="path-12"></path>
        <path d="M29.3615279,0.551228841 C37.1527183,0.551228841 46.4044811,5.9313554 50.3196522,9.36663184 C54.2348233,12.8019083 56.1923795,17.0373844 56.1923795,22.0731874 C56.1923795,27.1089903 55.3506303,31.3054299 53.6671067,34.6626318 C51.9835832,38.0198338 49.9281492,40.6157708 47.5007431,42.4505207 C45.073337,44.2852706 42.6459674,45.9443281 40.2185613,47.4277429 C37.7911552,48.9111578 35.657419,50.5702153 33.8172886,52.4049652 C31.9771581,54.2397151 30.9788045,56.3672123 30.8221976,58.7875207 L30.2349249,66.3997429 L18.9592886,67.2195207 C18.9592886,67.1674711 15.8988252,65.657765 9.77789862,62.6904026 C15.1157949,58.7091802 17.7847431,55.9638493 17.7847431,54.4544096 C17.7847431,52.1902501 18.37201,50.1993812 19.5465613,48.4817429 C20.7211126,46.7641047 22.2088553,45.3197488 24.009834,44.1486318 C25.8108127,42.9775149 27.7487933,41.6697872 29.823834,40.2254096 C31.8988747,38.781032 33.8368553,37.3561944 35.637834,35.9508541 C37.4388127,34.5455137 38.9265554,32.691273 40.1011067,30.3880763 C41.2756581,28.0848796 41.8629249,25.5279792 41.8629249,22.7172985 L29.3615279,0.551228841 Z" id="path-13"></path>
        <path d="M34.2283795,83.7321874 C34.2283795,88.885102 31.1354407,91.4615207 24.9494704,91.4615207 C21.8956369,91.4615207 19.8904244,90.5304813 18.1371067,89.7634096 C16.9682283,89.2520285 14.0387296,87.969704 9.34861062,85.9164361 C14.1766136,81.0120035 17.047385,78.078328 17.9609249,77.1154096 C18.8744648,76.1524912 19.8939929,74.3067478 21.0195091,71.5781793 C26.2630919,73.8118735 29.2844135,75.0519632 30.0834739,75.2984484 C31.2216699,75.6495462 31.972261,76.3723445 32.5252886,77.0568541 C33.6606882,78.4621944 34.2283795,80.6872833 34.2283795,83.7321874 Z" id="path-14"></path>
        <linearGradient x1="50%" y1="3.86439732%" x2="50%" y2="36.4360751%" id="linearGradient-15">
            <stop stop-color="#FFFFFF" stop-opacity="0.2" offset="0%"></stop>
            <stop stop-color="#FFFFFF" stop-opacity="0" offset="100%"></stop>
        </linearGradient>
        <path d="M32.5556364,18.538 C32.5556364,12.7604896 29.3843953,9.87177778 23.0418182,9.87177778 C19.5964676,9.87177778 16.0337154,10.6915474 12.3534545,12.3311111 L11.1789091,19.8262222 L1.31272727,19.8262222 L0.0207272727,3.782 C7.85106945,1.28361714 15.6617186,0.0344444444 23.4529091,0.0344444444 C31.2440996,0.0344444444 37.0971925,1.7520569 41.0123636,5.18733333 C44.9275347,8.62260977 46.8850909,12.8580859 46.8850909,17.8938889 C46.8850909,22.9296918 46.0433418,27.1261314 44.3598182,30.4833333 C42.6762946,33.8405353 40.6208606,36.4364723 38.1934545,38.2712222 C35.7660485,40.1059721 33.3386788,41.7650296 30.9112727,43.2484444 C28.4838667,44.7318593 26.3501304,46.3909168 24.51,48.2256667 C22.6698696,50.0604166 21.6715159,52.1879138 21.5149091,54.6082222 L20.9276364,62.2204444 L9.652,63.0402222 C9.652,62.9621478 9.45624438,61.3811636 9.06472727,58.2972222 C8.67321016,55.2132809 8.47745455,52.5392706 8.47745455,50.2751111 C8.47745455,48.0109516 9.0647214,46.0200827 10.2392727,44.3024444 C11.4138241,42.5848062 12.9015668,41.1404503 14.7025455,39.9693333 C16.5035242,38.7982164 18.4415048,37.4904887 20.5165455,36.0461111 C22.5915861,34.6017335 24.5295668,33.1768959 26.3305455,31.7715556 C28.1315242,30.3662152 29.6192669,28.5119745 30.7938182,26.2087778 C31.9683695,23.9055811 32.5556364,21.3486807 32.5556364,18.538 Z M24.9210909,79.5528889 C24.9210909,84.7058035 21.8281521,87.2822222 15.6421818,87.2822222 C12.5883484,87.2822222 10.3175832,86.7161908 8.82981818,85.5841111 C7.34205317,84.4520314 6.59818182,82.4221257 6.59818182,79.4943333 C6.59818182,76.5665409 7.28332648,74.3804887 8.65363636,72.9361111 C10.0239462,71.4917335 12.5100426,70.7695556 16.112,70.7695556 C19.7139574,70.7695556 22.0826004,71.4722152 23.218,72.8775556 C24.3533996,74.2828959 24.9210909,76.5079848 24.9210909,79.5528889 Z" id="path-16"></path>
    </defs>
    <g id="Symbols" stroke="none" stroke-width="1" fill="none" fill-rule="evenodd">
        <g id="ill_what">
            <g id="boulier" transform="translate(0.000000, 1.000000)">
                <mask id="mask-2" fill="white">
                    <use xlink:href="#path-1"></use>
                </mask>
                <use id="Mask" fill="#E2E1D0" xlink:href="#path-1"></use>
                <g mask="url(#mask-2)">
                    <g transform="translate(6.273569, 104.601465) rotate(-18.000000) translate(-6.273569, -104.601465) translate(-60.468680, 42.056842)">
                        <path d="M26.3151683,25.9526823 L26.3151683,116.581245 L122.21733,116.581245 L122.21733,25.9526823 L26.3151683,25.9526823 Z M17.9503885,17.5634205 L123.641903,10.9846896 L128.909154,16.7244943 L128.909154,124.970507 L17.9503885,124.970507 L17.9503885,17.5634205 Z" id="Rectangle-2" fill="#797266" fill-rule="nonzero"></path>
                        <path d="M104.397725,24.5080804 C104.494579,24.0226247 105.066172,23.7798968 106.112505,23.7798968 C107.158838,23.7798968 107.730431,24.0226247 107.827285,24.5080804 L107.827285,47.4973802 L104.397725,47.4973802 L104.397725,24.5080804 Z" id="Rectangle" fill="#3E3D2A" fill-rule="evenodd"></path>
                        <path d="M63.9801767,24.4599629 C64.0770304,23.9745072 64.6486236,23.7317793 65.6949565,23.7317793 C66.7412894,23.7317793 67.3128827,23.9745072 67.4097364,24.4599629 L67.4097364,47.4492628 L63.9801767,47.4492628 L63.9801767,24.4599629 Z" id="Rectangle-Copy-2" fill="#3E3D2A" fill-rule="evenodd"></path>
                        <g id="boule" fill="none" transform="translate(96.911247, 35.505169)" fill-rule="evenodd">
                            <rect id="Rectangle-2" fill="url(#linearGradient-3)" x="7.36363636" y="9.75" width="3.27272727" height="5.25"></rect>
                            <path d="M7.37722884,12.9717895 C3.52839683,12.4100835 0.626276972,9.90515446 0.626276972,6.90001624 C0.626276972,3.48164511 4.38140603,0.710507776 9.01359248,0.710507776 C13.6457789,0.710507776 17.400908,3.48164511 17.400908,6.90001624 C17.400908,9.90515446 14.4987881,12.4100835 10.6499561,12.9717895 L10.6499561,10.5353955 C10.5575315,10.1013981 10.012077,9.88439941 9.01359248,9.88439941 C8.01510797,9.88439941 7.46965342,10.1013981 7.37722884,10.5353955 L7.37722884,12.9717895 Z" id="Combined-Shape" fill="url(#radialGradient-4)"></path>
                            <path d="M7.37722884,12.9717895 C4.27415187,12.5189204 1.78645739,10.8029162 0.938919407,8.58001956 C0.73523264,8.04579616 0.932857899,4.17553711 9.01359248,4.17553711 C17.0943271,4.17553711 17.2619994,8.19100002 17.0046588,8.78546756 C16.0857446,10.9081979 13.6567421,12.5329733 10.6499561,12.9717895 L10.6499561,10.5353955 C10.5575315,10.1013981 10.012077,9.88439941 9.01359248,9.88439941 C8.01510797,9.88439941 7.46965342,10.1013981 7.37722884,10.5353955 L7.37722884,12.9717895 Z" id="Combined-Shape" fill="url(#radialGradient-5)" opacity="0.5"></path>
                        </g>
                        <g id="boule" fill="none" transform="translate(56.493699, 35.322077)" fill-rule="evenodd">
                            <rect id="Rectangle-2" fill="url(#linearGradient-3)" x="7.36363636" y="9.75" width="3.27272727" height="5.25"></rect>
                            <path d="M7.37722884,12.9717895 C3.52839683,12.4100835 0.626276972,9.90515446 0.626276972,6.90001624 C0.626276972,3.48164511 4.38140603,0.710507776 9.01359248,0.710507776 C13.6457789,0.710507776 17.400908,3.48164511 17.400908,6.90001624 C17.400908,9.90515446 14.4987881,12.4100835 10.6499561,12.9717895 L10.6499561,10.5353955 C10.5575315,10.1013981 10.012077,9.88439941 9.01359248,9.88439941 C8.01510797,9.88439941 7.46965342,10.1013981 7.37722884,10.5353955 L7.37722884,12.9717895 Z" id="Combined-Shape" fill="url(#radialGradient-4)"></path>
                            <path d="M7.37722884,12.9717895 C4.27415187,12.5189204 1.78645739,10.8029162 0.938919407,8.58001956 C0.73523264,8.04579616 0.932857899,4.17553711 9.01359248,4.17553711 C17.0943271,4.17553711 17.2619994,8.19100002 17.0046588,8.78546756 C16.0857446,10.9081979 13.6567421,12.5329733 10.6499561,12.9717895 L10.6499561,10.5353955 C10.5575315,10.1013981 10.012077,9.88439941 9.01359248,9.88439941 C8.01510797,9.88439941 7.46965342,10.1013981 7.37722884,10.5353955 L7.37722884,12.9717895 Z" id="Combined-Shape" fill="url(#radialGradient-5)" opacity="0.5"></path>
                        </g>
                        <path d="M84.1897795,24.1830583 C84.2866332,23.6976026 84.8582265,23.4548747 85.9045594,23.4548747 C86.9508923,23.4548747 87.5224856,23.6976026 87.6193392,24.1830583 L87.6193392,47.1723582 L84.1897795,47.1723582 L84.1897795,24.1830583 Z" id="Rectangle-Copy" fill="#3E3D2A" fill-rule="evenodd"></path>
                        <polygon id="Line-Copy" fill="#797266" fill-rule="nonzero" transform="translate(74.995480, 58.863883) rotate(13.000000) translate(-74.995480, -58.863883) " points="120.177283 43.6796072 27.7461871 65.0559471 29.8136767 74.0481594 122.244773 52.6718195"></polygon>
                        <polygon id="Line" fill="#E2E1D0" fill-rule="nonzero" transform="translate(73.322524, 51.003588) rotate(13.000000) translate(-73.322524, -51.003588) " points="118.504328 35.8193123 26.0732312 57.1956522 28.1407208 66.1878645 120.571817 44.8115246"></polygon>
                        <path d="M83.6489769,70.0279727 C83.7453508,69.5425169 84.3141124,69.2997891 85.3552617,69.2997891 C86.3964111,69.2997891 86.9651727,69.5425169 87.0615466,70.0279727 L87.0785366,110.931889 L83.6659669,110.931889 L83.6489769,70.0279727 Z" id="Rectangle-Copy-3" fill="#3E3D2A" fill-rule="evenodd"></path>
                        <path d="M104.092401,71.7081054 C104.18884,71.2226497 104.757981,70.9799219 105.799826,70.9799219 C106.841671,70.9799219 107.410813,71.2226497 107.507251,71.7081054 L107.492541,116.86287 L104.077691,116.86287 L104.092401,71.7081054 Z" id="Rectangle-Copy-4" fill="#3E3D2A" fill-rule="evenodd"></path>
                        <path d="M63.5406816,61.0766893 C63.6375353,60.5912336 64.2091286,60.3485058 65.2554615,60.3485058 C66.3017943,60.3485058 66.8733876,60.5912336 66.9702413,61.0766893 L66.9702413,117.623036 L63.5406816,117.623036 L63.5406816,61.0766893 Z" id="Rectangle-Copy-5" fill="#3E3D2A" fill-rule="evenodd"></path>
                        <g id="boule" fill="none" transform="translate(96.556596, 89.526546)" fill-rule="evenodd">
                            <rect id="Rectangle-2" fill="url(#linearGradient-3)" x="7.36363636" y="9.75" width="3.27272727" height="5.25"></rect>
                            <path d="M7.37722884,12.9717895 C3.52839683,12.4100835 0.626276972,9.90515446 0.626276972,6.90001624 C0.626276972,3.48164511 4.38140603,0.710507776 9.01359248,0.710507776 C13.6457789,0.710507776 17.400908,3.48164511 17.400908,6.90001624 C17.400908,9.90515446 14.4987881,12.4100835 10.6499561,12.9717895 L10.6499561,10.5353955 C10.5575315,10.1013981 10.012077,9.88439941 9.01359248,9.88439941 C8.01510797,9.88439941 7.46965342,10.1013981 7.37722884,10.5353955 L7.37722884,12.9717895 Z" id="Combined-Shape" fill="url(#radialGradient-4)"></path>
                            <path d="M7.37722884,12.9717895 C4.27415187,12.5189204 1.78645739,10.8029162 0.938919407,8.58001956 C0.73523264,8.04579616 0.932857899,4.17553711 9.01359248,4.17553711 C17.0943271,4.17553711 17.2619994,8.19100002 17.0046588,8.78546756 C16.0857446,10.9081979 13.6567421,12.5329733 10.6499561,12.9717895 L10.6499561,10.5353955 C10.5575315,10.1013981 10.012077,9.88439941 9.01359248,9.88439941 C8.01510797,9.88439941 7.46965342,10.1013981 7.37722884,10.5353955 L7.37722884,12.9717895 Z" id="Combined-Shape" fill="url(#radialGradient-5)" opacity="0.5"></path>
                        </g>
                        <g id="boule" fill="none" transform="translate(96.556596, 98.754734)" fill-rule="evenodd">
                            <rect id="Rectangle-2" fill="url(#linearGradient-3)" x="7.36363636" y="9.75" width="3.27272727" height="5.25"></rect>
                            <path d="M7.37722884,12.9717895 C3.52839683,12.4100835 0.626276972,9.90515446 0.626276972,6.90001624 C0.626276972,3.48164511 4.38140603,0.710507776 9.01359248,0.710507776 C13.6457789,0.710507776 17.400908,3.48164511 17.400908,6.90001624 C17.400908,9.90515446 14.4987881,12.4100835 10.6499561,12.9717895 L10.6499561,10.5353955 C10.5575315,10.1013981 10.012077,9.88439941 9.01359248,9.88439941 C8.01510797,9.88439941 7.46965342,10.1013981 7.37722884,10.5353955 L7.37722884,12.9717895 Z" id="Combined-Shape" fill="url(#radialGradient-4)"></path>
                            <path d="M7.37722884,12.9717895 C4.27415187,12.5189204 1.78645739,10.8029162 0.938919407,8.58001956 C0.73523264,8.04579616 0.932857899,4.17553711 9.01359248,4.17553711 C17.0943271,4.17553711 17.2619994,8.19100002 17.0046588,8.78546756 C16.0857446,10.9081979 13.6567421,12.5329733 10.6499561,12.9717895 L10.6499561,10.5353955 C10.5575315,10.1013981 10.012077,9.88439941 9.01359248,9.88439941 C8.01510797,9.88439941 7.46965342,10.1013981 7.37722884,10.5353955 L7.37722884,12.9717895 Z" id="Combined-Shape" fill="url(#radialGradient-5)" opacity="0.5"></path>
                        </g>
                        <g id="boule" fill="none" transform="translate(76.129004, 82.777338)" fill-rule="evenodd">
                            <rect id="Rectangle-2" fill="url(#linearGradient-3)" x="7.36363636" y="9.75" width="3.27272727" height="5.25"></rect>
                            <path d="M7.37722884,12.9717895 C3.52839683,12.4100835 0.626276972,9.90515446 0.626276972,6.90001624 C0.626276972,3.48164511 4.38140603,0.710507776 9.01359248,0.710507776 C13.6457789,0.710507776 17.400908,3.48164511 17.400908,6.90001624 C17.400908,9.90515446 14.4987881,12.4100835 10.6499561,12.9717895 L10.6499561,10.5353955 C10.5575315,10.1013981 10.012077,9.88439941 9.01359248,9.88439941 C8.01510797,9.88439941 7.46965342,10.1013981 7.37722884,10.5353955 L7.37722884,12.9717895 Z" id="Combined-Shape" fill="url(#radialGradient-4)"></path>
                            <path d="M7.37722884,12.9717895 C4.27415187,12.5189204 1.78645739,10.8029162 0.938919407,8.58001956 C0.73523264,8.04579616 0.932857899,4.17553711 9.01359248,4.17553711 C17.0943271,4.17553711 17.2619994,8.19100002 17.0046588,8.78546756 C16.0857446,10.9081979 13.6567421,12.5329733 10.6499561,12.9717895 L10.6499561,10.5353955 C10.5575315,10.1013981 10.012077,9.88439941 9.01359248,9.88439941 C8.01510797,9.88439941 7.46965342,10.1013981 7.37722884,10.5353955 L7.37722884,12.9717895 Z" id="Combined-Shape" fill="url(#radialGradient-5)" opacity="0.5"></path>
                        </g>
                        <g id="boule" fill="none" transform="translate(76.129004, 90.327674)" fill-rule="evenodd">
                            <rect id="Rectangle-2" fill="url(#linearGradient-3)" x="7.36363636" y="9.75" width="3.27272727" height="5.25"></rect>
                            <path d="M7.37722884,12.9717895 C3.52839683,12.4100835 0.626276972,9.90515446 0.626276972,6.90001624 C0.626276972,3.48164511 4.38140603,0.710507776 9.01359248,0.710507776 C13.6457789,0.710507776 17.400908,3.48164511 17.400908,6.90001624 C17.400908,9.90515446 14.4987881,12.4100835 10.6499561,12.9717895 L10.6499561,10.5353955 C10.5575315,10.1013981 10.012077,9.88439941 9.01359248,9.88439941 C8.01510797,9.88439941 7.46965342,10.1013981 7.37722884,10.5353955 L7.37722884,12.9717895 Z" id="Combined-Shape" fill="url(#radialGradient-4)"></path>
                            <path d="M7.37722884,12.9717895 C4.27415187,12.5189204 1.78645739,10.8029162 0.938919407,8.58001956 C0.73523264,8.04579616 0.932857899,4.17553711 9.01359248,4.17553711 C17.0943271,4.17553711 17.2619994,8.19100002 17.0046588,8.78546756 C16.0857446,10.9081979 13.6567421,12.5329733 10.6499561,12.9717895 L10.6499561,10.5353955 C10.5575315,10.1013981 10.012077,9.88439941 9.01359248,9.88439941 C8.01510797,9.88439941 7.46965342,10.1013981 7.37722884,10.5353955 L7.37722884,12.9717895 Z" id="Combined-Shape" fill="url(#radialGradient-5)" opacity="0.5"></path>
                        </g>
                        <g id="boule" fill="none" transform="translate(76.129004, 98.754734)" fill-rule="evenodd">
                            <rect id="Rectangle-2" fill="url(#linearGradient-3)" x="7.36363636" y="9.75" width="3.27272727" height="5.25"></rect>
                            <path d="M7.37722884,12.9717895 C3.52839683,12.4100835 0.626276972,9.90515446 0.626276972,6.90001624 C0.626276972,3.48164511 4.38140603,0.710507776 9.01359248,0.710507776 C13.6457789,0.710507776 17.400908,3.48164511 17.400908,6.90001624 C17.400908,9.90515446 14.4987881,12.4100835 10.6499561,12.9717895 L10.6499561,10.5353955 C10.5575315,10.1013981 10.012077,9.88439941 9.01359248,9.88439941 C8.01510797,9.88439941 7.46965342,10.1013981 7.37722884,10.5353955 L7.37722884,12.9717895 Z" id="Combined-Shape" fill="url(#radialGradient-4)"></path>
                            <path d="M7.37722884,12.9717895 C4.27415187,12.5189204 1.78645739,10.8029162 0.938919407,8.58001956 C0.73523264,8.04579616 0.932857899,4.17553711 9.01359248,4.17553711 C17.0943271,4.17553711 17.2619994,8.19100002 17.0046588,8.78546756 C16.0857446,10.9081979 13.6567421,12.5329733 10.6499561,12.9717895 L10.6499561,10.5353955 C10.5575315,10.1013981 10.012077,9.88439941 9.01359248,9.88439941 C8.01510797,9.88439941 7.46965342,10.1013981 7.37722884,10.5353955 L7.37722884,12.9717895 Z" id="Combined-Shape" fill="url(#radialGradient-5)" opacity="0.5"></path>
                        </g>
                        <g id="boule" fill="none" transform="translate(56.054204, 72.710224)" fill-rule="evenodd">
                            <rect id="Rectangle-2" fill="url(#linearGradient-3)" x="7.36363636" y="9.75" width="3.27272727" height="5.25"></rect>
                            <path d="M7.37722884,12.9717895 C3.52839683,12.4100835 0.626276972,9.90515446 0.626276972,6.90001624 C0.626276972,3.48164511 4.38140603,0.710507776 9.01359248,0.710507776 C13.6457789,0.710507776 17.400908,3.48164511 17.400908,6.90001624 C17.400908,9.90515446 14.4987881,12.4100835 10.6499561,12.9717895 L10.6499561,10.5353955 C10.5575315,10.1013981 10.012077,9.88439941 9.01359248,9.88439941 C8.01510797,9.88439941 7.46965342,10.1013981 7.37722884,10.5353955 L7.37722884,12.9717895 Z" id="Combined-Shape" fill="url(#radialGradient-4)"></path>
                            <path d="M7.37722884,12.9717895 C4.27415187,12.5189204 1.78645739,10.8029162 0.938919407,8.58001956 C0.73523264,8.04579616 0.932857899,4.17553711 9.01359248,4.17553711 C17.0943271,4.17553711 17.2619994,8.19100002 17.0046588,8.78546756 C16.0857446,10.9081979 13.6567421,12.5329733 10.6499561,12.9717895 L10.6499561,10.5353955 C10.5575315,10.1013981 10.012077,9.88439941 9.01359248,9.88439941 C8.01510797,9.88439941 7.46965342,10.1013981 7.37722884,10.5353955 L7.37722884,12.9717895 Z" id="Combined-Shape" fill="url(#radialGradient-5)" opacity="0.5"></path>
                        </g>
                        <g id="boule" fill="none" transform="translate(56.054204, 81.099486)" fill-rule="evenodd">
                            <rect id="Rectangle-2" fill="url(#linearGradient-3)" x="7.36363636" y="9.75" width="3.27272727" height="5.25"></rect>
                            <path d="M7.37722884,12.9717895 C3.52839683,12.4100835 0.626276972,9.90515446 0.626276972,6.90001624 C0.626276972,3.48164511 4.38140603,0.710507776 9.01359248,0.710507776 C13.6457789,0.710507776 17.400908,3.48164511 17.400908,6.90001624 C17.400908,9.90515446 14.4987881,12.4100835 10.6499561,12.9717895 L10.6499561,10.5353955 C10.5575315,10.1013981 10.012077,9.88439941 9.01359248,9.88439941 C8.01510797,9.88439941 7.46965342,10.1013981 7.37722884,10.5353955 L7.37722884,12.9717895 Z" id="Combined-Shape" fill="url(#radialGradient-4)"></path>
                            <path d="M7.37722884,12.9717895 C4.27415187,12.5189204 1.78645739,10.8029162 0.938919407,8.58001956 C0.73523264,8.04579616 0.932857899,4.17553711 9.01359248,4.17553711 C17.0943271,4.17553711 17.2619994,8.19100002 17.0046588,8.78546756 C16.0857446,10.9081979 13.6567421,12.5329733 10.6499561,12.9717895 L10.6499561,10.5353955 C10.5575315,10.1013981 10.012077,9.88439941 9.01359248,9.88439941 C8.01510797,9.88439941 7.46965342,10.1013981 7.37722884,10.5353955 L7.37722884,12.9717895 Z" id="Combined-Shape" fill="url(#radialGradient-5)" opacity="0.5"></path>
                        </g>
                        <g id="boule" fill="none" transform="translate(56.054204, 89.488748)" fill-rule="evenodd">
                            <rect id="Rectangle-2" fill="url(#linearGradient-3)" x="7.36363636" y="9.75" width="3.27272727" height="5.25"></rect>
                            <path d="M7.37722884,12.9717895 C3.52839683,12.4100835 0.626276972,9.90515446 0.626276972,6.90001624 C0.626276972,3.48164511 4.38140603,0.710507776 9.01359248,0.710507776 C13.6457789,0.710507776 17.400908,3.48164511 17.400908,6.90001624 C17.400908,9.90515446 14.4987881,12.4100835 10.6499561,12.9717895 L10.6499561,10.5353955 C10.5575315,10.1013981 10.012077,9.88439941 9.01359248,9.88439941 C8.01510797,9.88439941 7.46965342,10.1013981 7.37722884,10.5353955 L7.37722884,12.9717895 Z" id="Combined-Shape" fill="url(#radialGradient-4)"></path>
                            <path d="M7.37722884,12.9717895 C4.27415187,12.5189204 1.78645739,10.8029162 0.938919407,8.58001956 C0.73523264,8.04579616 0.932857899,4.17553711 9.01359248,4.17553711 C17.0943271,4.17553711 17.2619994,8.19100002 17.0046588,8.78546756 C16.0857446,10.9081979 13.6567421,12.5329733 10.6499561,12.9717895 L10.6499561,10.5353955 C10.5575315,10.1013981 10.012077,9.88439941 9.01359248,9.88439941 C8.01510797,9.88439941 7.46965342,10.1013981 7.37722884,10.5353955 L7.37722884,12.9717895 Z" id="Combined-Shape" fill="url(#radialGradient-5)" opacity="0.5"></path>
                        </g>
                        <g id="boule" fill="none" transform="translate(56.054204, 97.878010)" fill-rule="evenodd">
                            <rect id="Rectangle-2" fill="url(#linearGradient-3)" x="7.36363636" y="9.75" width="3.27272727" height="5.25"></rect>
                            <path d="M7.37722884,12.9717895 C3.52839683,12.4100835 0.626276972,9.90515446 0.626276972,6.90001624 C0.626276972,3.48164511 4.38140603,0.710507776 9.01359248,0.710507776 C13.6457789,0.710507776 17.400908,3.48164511 17.400908,6.90001624 C17.400908,9.90515446 14.4987881,12.4100835 10.6499561,12.9717895 L10.6499561,10.5353955 C10.5575315,10.1013981 10.012077,9.88439941 9.01359248,9.88439941 C8.01510797,9.88439941 7.46965342,10.1013981 7.37722884,10.5353955 L7.37722884,12.9717895 Z" id="Combined-Shape" fill="url(#radialGradient-4)"></path>
                            <path d="M7.37722884,12.9717895 C4.27415187,12.5189204 1.78645739,10.8029162 0.938919407,8.58001956 C0.73523264,8.04579616 0.932857899,4.17553711 9.01359248,4.17553711 C17.0943271,4.17553711 17.2619994,8.19100002 17.0046588,8.78546756 C16.0857446,10.9081979 13.6567421,12.5329733 10.6499561,12.9717895 L10.6499561,10.5353955 C10.5575315,10.1013981 10.012077,9.88439941 9.01359248,9.88439941 C8.01510797,9.88439941 7.46965342,10.1013981 7.37722884,10.5353955 L7.37722884,12.9717895 Z" id="Combined-Shape" fill="url(#radialGradient-5)" opacity="0.5"></path>
                        </g>
                        <g id="Rectangle-2" fill="none" fill-rule="nonzero">
                            <use fill="#E2E1D0" fill-rule="evenodd" xlink:href="#path-7"></use>
                            <use fill="url(#linearGradient-6)" fill-rule="evenodd" xlink:href="#path-7"></use>
                        </g>
                        <g id="boule" fill="none" transform="translate(96.911247, 16.524113)" fill-rule="evenodd">
                            <rect id="Rectangle-2" fill="url(#linearGradient-3)" x="7.36363636" y="9.75" width="3.27272727" height="5.25"></rect>
                            <path d="M7.37722884,12.9717895 C3.52839683,12.4100835 0.626276972,9.90515446 0.626276972,6.90001624 C0.626276972,3.48164511 4.38140603,0.710507776 9.01359248,0.710507776 C13.6457789,0.710507776 17.400908,3.48164511 17.400908,6.90001624 C17.400908,9.90515446 14.4987881,12.4100835 10.6499561,12.9717895 L10.6499561,10.5353955 C10.5575315,10.1013981 10.012077,9.88439941 9.01359248,9.88439941 C8.01510797,9.88439941 7.46965342,10.1013981 7.37722884,10.5353955 L7.37722884,12.9717895 Z" id="Combined-Shape" fill="url(#radialGradient-4)"></path>
                            <path d="M7.37722884,12.9717895 C4.27415187,12.5189204 1.78645739,10.8029162 0.938919407,8.58001956 C0.73523264,8.04579616 0.932857899,4.17553711 9.01359248,4.17553711 C17.0943271,4.17553711 17.2619994,8.19100002 17.0046588,8.78546756 C16.0857446,10.9081979 13.6567421,12.5329733 10.6499561,12.9717895 L10.6499561,10.5353955 C10.5575315,10.1013981 10.012077,9.88439941 9.01359248,9.88439941 C8.01510797,9.88439941 7.46965342,10.1013981 7.37722884,10.5353955 L7.37722884,12.9717895 Z" id="Combined-Shape" fill="url(#radialGradient-5)" opacity="0.5"></path>
                        </g>
                        <g id="boule" fill="none" transform="translate(96.556596, 53.979766)" fill-rule="evenodd">
                            <rect id="Rectangle-2" fill="url(#linearGradient-3)" x="7.36363636" y="9.75" width="3.27272727" height="5.25"></rect>
                            <path d="M7.37722884,12.9717895 C3.52839683,12.4100835 0.626276972,9.90515446 0.626276972,6.90001624 C0.626276972,3.48164511 4.38140603,0.710507776 9.01359248,0.710507776 C13.6457789,0.710507776 17.400908,3.48164511 17.400908,6.90001624 C17.400908,9.90515446 14.4987881,12.4100835 10.6499561,12.9717895 L10.6499561,10.5353955 C10.5575315,10.1013981 10.012077,9.88439941 9.01359248,9.88439941 C8.01510797,9.88439941 7.46965342,10.1013981 7.37722884,10.5353955 L7.37722884,12.9717895 Z" id="Combined-Shape" fill="url(#radialGradient-4)"></path>
                            <path d="M7.37722884,12.9717895 C4.27415187,12.5189204 1.78645739,10.8029162 0.938919407,8.58001956 C0.73523264,8.04579616 0.932857899,4.17553711 9.01359248,4.17553711 C17.0943271,4.17553711 17.2619994,8.19100002 17.0046588,8.78546756 C16.0857446,10.9081979 13.6567421,12.5329733 10.6499561,12.9717895 L10.6499561,10.5353955 C10.5575315,10.1013981 10.012077,9.88439941 9.01359248,9.88439941 C8.01510797,9.88439941 7.46965342,10.1013981 7.37722884,10.5353955 L7.37722884,12.9717895 Z" id="Combined-Shape" fill="url(#radialGradient-5)" opacity="0.5"></path>
                        </g>
                        <g id="boule" fill="none" transform="translate(96.556596, 61.450104)" fill-rule="evenodd">
                            <rect id="Rectangle-2" fill="url(#linearGradient-3)" x="7.36363636" y="9.75" width="3.27272727" height="5.25"></rect>
                            <path d="M7.37722884,12.9717895 C3.52839683,12.4100835 0.626276972,9.90515446 0.626276972,6.90001624 C0.626276972,3.48164511 4.38140603,0.710507776 9.01359248,0.710507776 C13.6457789,0.710507776 17.400908,3.48164511 17.400908,6.90001624 C17.400908,9.90515446 14.4987881,12.4100835 10.6499561,12.9717895 L10.6499561,10.5353955 C10.5575315,10.1013981 10.012077,9.88439941 9.01359248,9.88439941 C8.01510797,9.88439941 7.46965342,10.1013981 7.37722884,10.5353955 L7.37722884,12.9717895 Z" id="Combined-Shape" fill="url(#radialGradient-4)"></path>
                            <path d="M7.37722884,12.9717895 C4.27415187,12.5189204 1.78645739,10.8029162 0.938919407,8.58001956 C0.73523264,8.04579616 0.932857899,4.17553711 9.01359248,4.17553711 C17.0943271,4.17553711 17.2619994,8.19100002 17.0046588,8.78546756 C16.0857446,10.9081979 13.6567421,12.5329733 10.6499561,12.9717895 L10.6499561,10.5353955 C10.5575315,10.1013981 10.012077,9.88439941 9.01359248,9.88439941 C8.01510797,9.88439941 7.46965342,10.1013981 7.37722884,10.5353955 L7.37722884,12.9717895 Z" id="Combined-Shape" fill="url(#radialGradient-5)" opacity="0.5"></path>
                        </g>
                        <g id="boule" fill="none" transform="translate(96.556596, 69.441617)" fill-rule="evenodd">
                            <rect id="Rectangle-2" fill="url(#linearGradient-3)" x="7.36363636" y="9.75" width="3.27272727" height="5.25"></rect>
                            <path d="M7.37722884,12.9717895 C3.52839683,12.4100835 0.626276972,9.90515446 0.626276972,6.90001624 C0.626276972,3.48164511 4.38140603,0.710507776 9.01359248,0.710507776 C13.6457789,0.710507776 17.400908,3.48164511 17.400908,6.90001624 C17.400908,9.90515446 14.4987881,12.4100835 10.6499561,12.9717895 L10.6499561,10.5353955 C10.5575315,10.1013981 10.012077,9.88439941 9.01359248,9.88439941 C8.01510797,9.88439941 7.46965342,10.1013981 7.37722884,10.5353955 L7.37722884,12.9717895 Z" id="Combined-Shape" fill="url(#radialGradient-4)"></path>
                            <path d="M7.37722884,12.9717895 C4.27415187,12.5189204 1.78645739,10.8029162 0.938919407,8.58001956 C0.73523264,8.04579616 0.932857899,4.17553711 9.01359248,4.17553711 C17.0943271,4.17553711 17.2619994,8.19100002 17.0046588,8.78546756 C16.0857446,10.9081979 13.6567421,12.5329733 10.6499561,12.9717895 L10.6499561,10.5353955 C10.5575315,10.1013981 10.012077,9.88439941 9.01359248,9.88439941 C8.01510797,9.88439941 7.46965342,10.1013981 7.37722884,10.5353955 L7.37722884,12.9717895 Z" id="Combined-Shape" fill="url(#radialGradient-5)" opacity="0.5"></path>
                        </g>
                        <g id="boule" fill="none" transform="translate(76.703302, 15.878481)" fill-rule="evenodd">
                            <rect id="Rectangle-2" fill="url(#linearGradient-3)" x="7.36363636" y="9.75" width="3.27272727" height="5.25"></rect>
                            <path d="M7.37722884,12.9717895 C3.52839683,12.4100835 0.626276972,9.90515446 0.626276972,6.90001624 C0.626276972,3.48164511 4.38140603,0.710507776 9.01359248,0.710507776 C13.6457789,0.710507776 17.400908,3.48164511 17.400908,6.90001624 C17.400908,9.90515446 14.4987881,12.4100835 10.6499561,12.9717895 L10.6499561,10.5353955 C10.5575315,10.1013981 10.012077,9.88439941 9.01359248,9.88439941 C8.01510797,9.88439941 7.46965342,10.1013981 7.37722884,10.5353955 L7.37722884,12.9717895 Z" id="Combined-Shape" fill="url(#radialGradient-4)"></path>
                            <path d="M7.37722884,12.9717895 C4.27415187,12.5189204 1.78645739,10.8029162 0.938919407,8.58001956 C0.73523264,8.04579616 0.932857899,4.17553711 9.01359248,4.17553711 C17.0943271,4.17553711 17.2619994,8.19100002 17.0046588,8.78546756 C16.0857446,10.9081979 13.6567421,12.5329733 10.6499561,12.9717895 L10.6499561,10.5353955 C10.5575315,10.1013981 10.012077,9.88439941 9.01359248,9.88439941 C8.01510797,9.88439941 7.46965342,10.1013981 7.37722884,10.5353955 L7.37722884,12.9717895 Z" id="Combined-Shape" fill="url(#radialGradient-5)" opacity="0.5"></path>
                        </g>
                        <g id="boule" fill="none" transform="translate(76.129004, 54.173060)" fill-rule="evenodd">
                            <rect id="Rectangle-2" fill="url(#linearGradient-3)" x="7.36363636" y="9.75" width="3.27272727" height="5.25"></rect>
                            <path d="M7.37722884,12.9717895 C3.52839683,12.4100835 0.626276972,9.90515446 0.626276972,6.90001624 C0.626276972,3.48164511 4.38140603,0.710507776 9.01359248,0.710507776 C13.6457789,0.710507776 17.400908,3.48164511 17.400908,6.90001624 C17.400908,9.90515446 14.4987881,12.4100835 10.6499561,12.9717895 L10.6499561,10.5353955 C10.5575315,10.1013981 10.012077,9.88439941 9.01359248,9.88439941 C8.01510797,9.88439941 7.46965342,10.1013981 7.37722884,10.5353955 L7.37722884,12.9717895 Z" id="Combined-Shape" fill="url(#radialGradient-4)"></path>
                            <path d="M7.37722884,12.9717895 C4.27415187,12.5189204 1.78645739,10.8029162 0.938919407,8.58001956 C0.73523264,8.04579616 0.932857899,4.17553711 9.01359248,4.17553711 C17.0943271,4.17553711 17.2619994,8.19100002 17.0046588,8.78546756 C16.0857446,10.9081979 13.6567421,12.5329733 10.6499561,12.9717895 L10.6499561,10.5353955 C10.5575315,10.1013981 10.012077,9.88439941 9.01359248,9.88439941 C8.01510797,9.88439941 7.46965342,10.1013981 7.37722884,10.5353955 L7.37722884,12.9717895 Z" id="Combined-Shape" fill="url(#radialGradient-5)" opacity="0.5"></path>
                        </g>
                        <g id="boule" fill="none" transform="translate(76.703302, 22.281512)" fill-rule="evenodd">
                            <rect id="Rectangle-2" fill="url(#linearGradient-3)" x="7.36363636" y="9.75" width="3.27272727" height="5.25"></rect>
                            <path d="M7.37722884,12.9717895 C3.52839683,12.4100835 0.626276972,9.90515446 0.626276972,6.90001624 C0.626276972,3.48164511 4.38140603,0.710507776 9.01359248,0.710507776 C13.6457789,0.710507776 17.400908,3.48164511 17.400908,6.90001624 C17.400908,9.90515446 14.4987881,12.4100835 10.6499561,12.9717895 L10.6499561,10.5353955 C10.5575315,10.1013981 10.012077,9.88439941 9.01359248,9.88439941 C8.01510797,9.88439941 7.46965342,10.1013981 7.37722884,10.5353955 L7.37722884,12.9717895 Z" id="Combined-Shape" fill="url(#radialGradient-4)"></path>
                            <path d="M7.37722884,12.9717895 C4.27415187,12.5189204 1.78645739,10.8029162 0.938919407,8.58001956 C0.73523264,8.04579616 0.932857899,4.17553711 9.01359248,4.17553711 C17.0943271,4.17553711 17.2619994,8.19100002 17.0046588,8.78546756 C16.0857446,10.9081979 13.6567421,12.5329733 10.6499561,12.9717895 L10.6499561,10.5353955 C10.5575315,10.1013981 10.012077,9.88439941 9.01359248,9.88439941 C8.01510797,9.88439941 7.46965342,10.1013981 7.37722884,10.5353955 L7.37722884,12.9717895 Z" id="Combined-Shape" fill="url(#radialGradient-5)" opacity="0.5"></path>
                        </g>
                        <g id="boule" fill="none" transform="translate(76.129004, 61.450104)" fill-rule="evenodd">
                            <rect id="Rectangle-2" fill="url(#linearGradient-3)" x="7.36363636" y="9.75" width="3.27272727" height="5.25"></rect>
                            <path d="M7.37722884,12.9717895 C3.52839683,12.4100835 0.626276972,9.90515446 0.626276972,6.90001624 C0.626276972,3.48164511 4.38140603,0.710507776 9.01359248,0.710507776 C13.6457789,0.710507776 17.400908,3.48164511 17.400908,6.90001624 C17.400908,9.90515446 14.4987881,12.4100835 10.6499561,12.9717895 L10.6499561,10.5353955 C10.5575315,10.1013981 10.012077,9.88439941 9.01359248,9.88439941 C8.01510797,9.88439941 7.46965342,10.1013981 7.37722884,10.5353955 L7.37722884,12.9717895 Z" id="Combined-Shape" fill="url(#radialGradient-4)"></path>
                            <path d="M7.37722884,12.9717895 C4.27415187,12.5189204 1.78645739,10.8029162 0.938919407,8.58001956 C0.73523264,8.04579616 0.932857899,4.17553711 9.01359248,4.17553711 C17.0943271,4.17553711 17.2619994,8.19100002 17.0046588,8.78546756 C16.0857446,10.9081979 13.6567421,12.5329733 10.6499561,12.9717895 L10.6499561,10.5353955 C10.5575315,10.1013981 10.012077,9.88439941 9.01359248,9.88439941 C8.01510797,9.88439941 7.46965342,10.1013981 7.37722884,10.5353955 L7.37722884,12.9717895 Z" id="Combined-Shape" fill="url(#radialGradient-5)" opacity="0.5"></path>
                        </g>
                        <g id="boule" fill="none" transform="translate(56.493699, 15.791443)" fill-rule="evenodd">
                            <rect id="Rectangle-2" fill="url(#linearGradient-3)" x="7.36363636" y="9.75" width="3.27272727" height="5.25"></rect>
                            <path d="M7.37722884,12.9717895 C3.52839683,12.4100835 0.626276972,9.90515446 0.626276972,6.90001624 C0.626276972,3.48164511 4.38140603,0.710507776 9.01359248,0.710507776 C13.6457789,0.710507776 17.400908,3.48164511 17.400908,6.90001624 C17.400908,9.90515446 14.4987881,12.4100835 10.6499561,12.9717895 L10.6499561,10.5353955 C10.5575315,10.1013981 10.012077,9.88439941 9.01359248,9.88439941 C8.01510797,9.88439941 7.46965342,10.1013981 7.37722884,10.5353955 L7.37722884,12.9717895 Z" id="Combined-Shape" fill="url(#radialGradient-4)"></path>
                            <path d="M7.37722884,12.9717895 C4.27415187,12.5189204 1.78645739,10.8029162 0.938919407,8.58001956 C0.73523264,8.04579616 0.932857899,4.17553711 9.01359248,4.17553711 C17.0943271,4.17553711 17.2619994,8.19100002 17.0046588,8.78546756 C16.0857446,10.9081979 13.6567421,12.5329733 10.6499561,12.9717895 L10.6499561,10.5353955 C10.5575315,10.1013981 10.012077,9.88439941 9.01359248,9.88439941 C8.01510797,9.88439941 7.46965342,10.1013981 7.37722884,10.5353955 L7.37722884,12.9717895 Z" id="Combined-Shape" fill="url(#radialGradient-5)" opacity="0.5"></path>
                        </g>
                        <g id="boule" fill="none" transform="translate(56.054204, 54.086022)" fill-rule="evenodd">
                            <rect id="Rectangle-2" fill="url(#linearGradient-3)" x="7.36363636" y="9.75" width="3.27272727" height="5.25"></rect>
                            <path d="M7.37722884,12.9717895 C3.52839683,12.4100835 0.626276972,9.90515446 0.626276972,6.90001624 C0.626276972,3.48164511 4.38140603,0.710507776 9.01359248,0.710507776 C13.6457789,0.710507776 17.400908,3.48164511 17.400908,6.90001624 C17.400908,9.90515446 14.4987881,12.4100835 10.6499561,12.9717895 L10.6499561,10.5353955 C10.5575315,10.1013981 10.012077,9.88439941 9.01359248,9.88439941 C8.01510797,9.88439941 7.46965342,10.1013981 7.37722884,10.5353955 L7.37722884,12.9717895 Z" id="Combined-Shape" fill="url(#radialGradient-4)"></path>
                            <path d="M7.37722884,12.9717895 C4.27415187,12.5189204 1.78645739,10.8029162 0.938919407,8.58001956 C0.73523264,8.04579616 0.932857899,4.17553711 9.01359248,4.17553711 C17.0943271,4.17553711 17.2619994,8.19100002 17.0046588,8.78546756 C16.0857446,10.9081979 13.6567421,12.5329733 10.6499561,12.9717895 L10.6499561,10.5353955 C10.5575315,10.1013981 10.012077,9.88439941 9.01359248,9.88439941 C8.01510797,9.88439941 7.46965342,10.1013981 7.37722884,10.5353955 L7.37722884,12.9717895 Z" id="Combined-Shape" fill="url(#radialGradient-5)" opacity="0.5"></path>
                        </g>
                    </g>
                </g>
                <path d="M69,40.4462891 L92.6777344,25.5087891 C106.103516,26.8769531 113.801107,32.1917318 115.770508,41.453125 C109.236003,60.1054688 99.4487305,67.8123372 86.4086914,64.5737305 L69,40.4462891 Z" id="Rectangle-4-Copy-3" fill="url(#linearGradient-8)" mask="url(#mask-2)"></path>
                <polygon id="Rectangle-4-Copy-3" fill="url(#linearGradient-9)" mask="url(#mask-2)" points="77.9335938 83.5644531 111.577148 61.2109375 122.438477 36.5068359 147.056641 71.1992188 122.438477 146.248047"></polygon>
                <polygon id="Rectangle-4-Copy-3" fill="url(#linearGradient-10)" mask="url(#mask-2)" points="76.0839844 105.891113 100.985352 98.6220703 124.530273 131.831055 102.858398 144.037109"></polygon>
            </g>
            <g id="?-copy-5" transform="translate(67.381836, 21.476337)">
                <g id="?-copy">
                    <use fill="#F65C3B" xlink:href="#path-12"></use>
                    <use fill="url(#linearGradient-11)" xlink:href="#path-12"></use>
                </g>
                <g id="Path">
                    <use fill="#F65C3B" xlink:href="#path-13"></use>
                    <use fill="url(#linearGradient-11)" xlink:href="#path-13"></use>
                </g>
                <g id="Path">
                    <use fill="#F65C3B" xlink:href="#path-14"></use>
                    <use fill="url(#linearGradient-11)" xlink:href="#path-14"></use>
                </g>
                <g id="?">
                    <use fill="#F65C3B" xlink:href="#path-16"></use>
                    <use fill="url(#linearGradient-15)" xlink:href="#path-16"></use>
                </g>
            </g>
        </g>
    </g>
</svg>