<?xml version="1.0" encoding="UTF-8"?>
<svg width="140px" height="140px" viewBox="0 0 140 140" version="1.1" xmlns="http://www.w3.org/2000/svg" xmlns:xlink="http://www.w3.org/1999/xlink">
    <!-- Generator: Sketch 44.1 (41455) - http://www.bohemiancoding.com/sketch -->
    <title>ill_why</title>
    <desc>Created with Sketch.</desc>
    <defs>
        <circle id="path-1" cx="70" cy="70" r="70"></circle>
        <linearGradient x1="44.1964379%" y1="31.8089999%" x2="76.7732236%" y2="80.2738538%" id="linearGradient-3">
            <stop stop-color="#3E3D2A" stop-opacity="0.3" offset="0%"></stop>
            <stop stop-color="#3E3D2A" stop-opacity="0" offset="100%"></stop>
        </linearGradient>
        <linearGradient x1="35.2603769%" y1="26.4560623%" x2="62.1711735%" y2="50%" id="linearGradient-4">
            <stop stop-color="#3E3D2A" stop-opacity="0.3" offset="0%"></stop>
            <stop stop-color="#3E3D2A" stop-opacity="0" offset="100%"></stop>
        </linearGradient>
        <linearGradient x1="31.525431%" y1="17.1572843%" x2="56.9886513%" y2="57.2519084%" id="linearGradient-5">
            <stop stop-color="#3E3D2A" stop-opacity="0.3" offset="0%"></stop>
            <stop stop-color="#3E3D2A" stop-opacity="0" offset="100%"></stop>
        </linearGradient>
        <linearGradient x1="50%" y1="0%" x2="50%" y2="100%" id="linearGradient-6">
            <stop stop-color="#312F23" stop-opacity="0" offset="0%"></stop>
            <stop stop-color="#000000" stop-opacity="0.5" offset="100%"></stop>
        </linearGradient>
        <path d="M32.3491067,14.0510763 C28.9037562,14.0510763 25.3410039,14.8708459 21.6607431,16.5104096 L20.4861976,24.0055207 L10.6200158,24.0055207 L1.42660245,19.6625977 L8.8564897,5.60394965 L32.9742099,6.03618707 L32.3491067,14.0510763 Z" id="path-7"></path>
        <path d="M29.3615279,0.551228841 C37.1527183,0.551228841 46.4044811,5.9313554 50.3196522,9.36663184 C54.2348233,12.8019083 56.1923795,17.0373844 56.1923795,22.0731874 C56.1923795,27.1089903 55.3506303,31.3054299 53.6671067,34.6626318 C51.9835832,38.0198338 49.9281492,40.6157708 47.5007431,42.4505207 C45.073337,44.2852706 42.6459674,45.9443281 40.2185613,47.4277429 C37.7911552,48.9111578 35.657419,50.5702153 33.8172886,52.4049652 C31.9771581,54.2397151 30.9788045,56.3672123 30.8221976,58.7875207 L30.2349249,66.3997429 L18.9592886,67.2195207 C18.9592886,67.1674711 15.8988252,65.657765 9.77789862,62.6904026 C15.1157949,58.7091802 17.7847431,55.9638493 17.7847431,54.4544096 C17.7847431,52.1902501 18.37201,50.1993812 19.5465613,48.4817429 C20.7211126,46.7641047 22.2088553,45.3197488 24.009834,44.1486318 C25.8108127,42.9775149 27.7487933,41.6697872 29.823834,40.2254096 C31.8988747,38.781032 33.8368553,37.3561944 35.637834,35.9508541 C37.4388127,34.5455137 38.9265554,32.691273 40.1011067,30.3880763 C41.2756581,28.0848796 41.8629249,25.5279792 41.8629249,22.7172985 L29.3615279,0.551228841 Z" id="path-8"></path>
        <path d="M34.2283795,83.7321874 C34.2283795,88.885102 31.1354407,91.4615207 24.9494704,91.4615207 C21.8956369,91.4615207 19.8904244,90.5304813 18.1371067,89.7634096 C16.9682283,89.2520285 14.0387296,87.969704 9.34861062,85.9164361 C14.1766136,81.0120035 17.047385,78.078328 17.9609249,77.1154096 C18.8744648,76.1524912 19.8939929,74.3067478 21.0195091,71.5781793 C26.2630919,73.8118735 29.2844135,75.0519632 30.0834739,75.2984484 C31.2216699,75.6495462 31.972261,76.3723445 32.5252886,77.0568541 C33.6606882,78.4621944 34.2283795,80.6872833 34.2283795,83.7321874 Z" id="path-9"></path>
        <linearGradient x1="50%" y1="3.86439732%" x2="50%" y2="36.4360751%" id="linearGradient-10">
            <stop stop-color="#FFFFFF" stop-opacity="0.2" offset="0%"></stop>
            <stop stop-color="#FFFFFF" stop-opacity="0" offset="100%"></stop>
        </linearGradient>
        <path d="M32.5556364,18.538 C32.5556364,12.7604896 29.3843953,9.87177778 23.0418182,9.87177778 C19.5964676,9.87177778 16.0337154,10.6915474 12.3534545,12.3311111 L11.1789091,19.8262222 L1.31272727,19.8262222 L0.0207272727,3.782 C7.85106945,1.28361714 15.6617186,0.0344444444 23.4529091,0.0344444444 C31.2440996,0.0344444444 37.0971925,1.7520569 41.0123636,5.18733333 C44.9275347,8.62260977 46.8850909,12.8580859 46.8850909,17.8938889 C46.8850909,22.9296918 46.0433418,27.1261314 44.3598182,30.4833333 C42.6762946,33.8405353 40.6208606,36.4364723 38.1934545,38.2712222 C35.7660485,40.1059721 33.3386788,41.7650296 30.9112727,43.2484444 C28.4838667,44.7318593 26.3501304,46.3909168 24.51,48.2256667 C22.6698696,50.0604166 21.6715159,52.1879138 21.5149091,54.6082222 L20.9276364,62.2204444 L9.652,63.0402222 C9.652,62.9621478 9.45624438,61.3811636 9.06472727,58.2972222 C8.67321016,55.2132809 8.47745455,52.5392706 8.47745455,50.2751111 C8.47745455,48.0109516 9.0647214,46.0200827 10.2392727,44.3024444 C11.4138241,42.5848062 12.9015668,41.1404503 14.7025455,39.9693333 C16.5035242,38.7982164 18.4415048,37.4904887 20.5165455,36.0461111 C22.5915861,34.6017335 24.5295668,33.1768959 26.3305455,31.7715556 C28.1315242,30.3662152 29.6192669,28.5119745 30.7938182,26.2087778 C31.9683695,23.9055811 32.5556364,21.3486807 32.5556364,18.538 Z M24.9210909,79.5528889 C24.9210909,84.7058035 21.8281521,87.2822222 15.6421818,87.2822222 C12.5883484,87.2822222 10.3175832,86.7161908 8.82981818,85.5841111 C7.34205317,84.4520314 6.59818182,82.4221257 6.59818182,79.4943333 C6.59818182,76.5665409 7.28332648,74.3804887 8.65363636,72.9361111 C10.0239462,71.4917335 12.5100426,70.7695556 16.112,70.7695556 C19.7139574,70.7695556 22.0826004,71.4722152 23.218,72.8775556 C24.3533996,74.2828959 24.9210909,76.5079848 24.9210909,79.5528889 Z" id="path-11"></path>
        <path d="M23.6173358,6.96740425 C21.2023885,6.96740425 18.7051509,7.54368985 16.1255481,8.69627835 L15.3022747,13.965228 L7.85662948,15.9233358 L7.94225967,8.21504842 L23.6173358,6.96740425 Z" id="path-12"></path>
        <path d="M8.55619191,2.71604668 C22.8974806,-2.08877535 33.4691602,1.25936341 36.2134185,3.67431073 C38.9576768,6.08925805 40.3297854,9.06673367 40.3297854,12.6068269 C40.3297854,16.1469201 39.7397787,19.0969536 38.5597477,21.4570157 C37.3797166,23.8170779 35.9390026,25.6419823 34.2375624,26.9317837 C32.5361223,28.2215851 30.8347076,29.3878774 29.1332675,30.4306956 C27.4318273,31.4735137 25.936229,32.639806 24.6464276,33.9296074 C23.3566261,35.2194088 22.6568508,36.7150072 22.5470804,38.4164473 L22.1354437,43.7677243 L14.6220497,45.6936482 C14.6220497,45.6570581 12.0868508,43.2461251 7.79651365,41.1601142 C11.5380018,38.3613752 13.4087459,36.431449 13.4087459,35.3703358 C13.4087459,33.778666 13.8203785,32.3791153 14.643656,31.1716416 C15.4669335,29.9641679 16.509736,28.9488076 17.7720948,28.1255301 C19.0344537,27.3022526 20.3928412,26.3829399 21.8472981,25.3675643 C23.301755,24.3521887 24.6601425,23.3505494 25.9225013,22.3626164 C27.1848601,21.3746834 28.2276626,20.0711803 29.0509401,18.4520679 C29.8742176,16.8329555 30.2858502,15.0354932 30.2858502,13.0596273 L8.55619191,2.71604668 Z" id="path-13"></path>
        <path d="M24.9345732,55.9521703 C24.9345732,59.5745913 23.5791134,62.9993988 19.2431853,62.9993988 C17.1026638,62.9993988 11.4708042,63.6575289 10.2418524,63.1182891 C9.42255119,62.7587959 10.7830551,58.9310803 7.49561309,57.4876641 C10.879702,54.0399222 9.46417671,52.7021727 10.1045036,52.0252556 C10.7448306,51.3483386 21.4471507,52.0860634 22.0072355,52.2593387 C22.8050305,52.5061552 24.9345732,53.8116488 24.9345732,55.9521703 Z" id="path-14"></path>
        <path d="M22.819201,15.0319333 C22.819201,10.970431 20.5963851,8.93971031 16.1506866,8.93971031 C13.7357393,8.93971031 11.2385017,9.51599591 8.65889883,10.6685844 L7.83562546,15.937534 L0.920129071,15.937534 L0.0145283537,4.65868874 C5.50304499,2.90236341 10.9777582,2.02421392 16.4388323,2.02421392 C21.8999063,2.02421392 26.002511,3.23166947 28.7467693,5.64661679 C31.4910276,8.06156411 32.8631362,11.0390397 32.8631362,14.579133 C32.8631362,18.1192262 32.2731295,21.0692596 31.0930984,23.4293218 C29.9130673,25.7893839 28.4723533,27.6142883 26.7709132,28.9040898 C25.069473,30.1938912 23.3680584,31.3601835 21.6666182,32.4030016 C19.9651781,33.4458198 18.4695797,34.6121121 17.1797783,35.9019135 C15.8899769,37.1917149 15.1902015,38.6873132 15.0804312,40.3887534 L14.6687945,45.7400304 L6.76537006,46.3163217 C6.76537006,46.2614366 6.6281592,45.1500286 6.35373337,42.9820645 C6.07930754,40.8141005 5.94209668,38.9343117 5.94209668,37.3426419 C5.94209668,35.7509721 6.35372926,34.3514213 7.17700675,33.1439477 C8.00028425,31.936474 9.04308677,30.9211136 10.3054456,30.0978362 C11.5678044,29.2745587 12.9261919,28.3552459 14.3806488,27.3398703 C15.8351057,26.3244948 17.1934932,25.3228555 18.455852,24.3349225 C19.7182109,23.3469895 20.7610134,22.0434864 21.5842909,20.4243739 C22.4075684,18.8052615 22.819201,17.0077993 22.819201,15.0319333 Z M17.467924,57.9244764 C17.467924,61.5468973 15.2999924,63.3580807 10.9640643,63.3580807 C8.82354281,63.3580807 7.23189686,62.9601692 6.1890787,62.1643343 C5.14626054,61.3684994 4.62485928,59.9415064 4.62485928,57.8833127 C4.62485928,55.825119 5.10509728,54.2883573 6.06558769,53.2729818 C7.0260781,52.2576062 8.76865599,51.749926 11.2933736,51.749926 C13.8180913,51.749926 15.4783427,52.2438851 16.2741776,53.2318181 C17.0700125,54.2197511 17.467924,55.7839549 17.467924,57.9244764 Z" id="path-15"></path>
        <path d="M17.6019976,8.65329797 C14.4137328,7.23379105 10.2185229,8.71276797 8.21833064,9.6064709 L7.5799746,13.6919496 L2.21778384,13.6919496 L0.84500111,10.6933462 L1.25932152,3.66151439 L18.174559,3.66860963 L17.6019976,8.65329797 Z" id="path-16"></path>
        <path d="M24.7938203,6.78245565 C26.228522,11.7628913 26.172525,11.7208083 26.172525,14.465753 C26.172525,17.2106977 25.7150411,19.4981173 24.8000595,21.3280805 C23.8850779,23.1580436 22.767966,24.573052 21.4486903,25.5731482 C20.1294145,26.5732443 18.8101586,27.477573 17.4908828,28.2861613 C16.1716071,29.0947497 15.0119385,29.9990784 14.0118424,30.9991745 C13.0117463,31.9992707 12.4691491,33.1589392 12.3840345,34.478215 L12.0648565,38.6275292 L5.93663846,39.0743785 C5.93663846,39.0460069 5.21487504,34.2850875 5.21487504,34.2850875 C8.11597891,32.1149798 5.29828241,32.9390717 5.29828241,32.1162976 C5.29828241,30.8821364 5.61745724,29.796942 6.25581648,28.8606818 C6.89417571,27.9244216 7.70275195,27.1371237 8.68156944,26.4987644 C9.66038693,25.8604052 10.7136639,25.1475814 11.8414319,24.3602717 C12.9691998,23.572962 14.0224768,22.7963032 15.0012943,22.0302721 C15.9801118,21.264241 16.788688,20.2535207 17.4270472,18.9980809 C18.0654065,17.7426411 18.3845813,16.348911 18.3845813,14.8168488 C21.7009395,6.14029628 23.8373525,3.46216521 24.7938203,6.78245565 Z" id="path-17"></path>
        <path d="M14.235267,48.0751987 C14.235267,50.8839793 12.5542796,52.2883485 9.19225427,52.2883485 C7.53252026,52.2883485 6.28560308,52.0420877 5.48978923,51.3627323 C3.72002937,49.851957 3.82961277,47.4394734 3.62587825,44.6768476 C6.24985916,42.003511 4.89753419,44.9933602 5.39403582,44.468487 C5.89053745,43.9436139 6.44464277,42.9375253 7.05635179,41.4502214 C9.90619706,42.6677764 11.5482612,43.3437317 11.9825441,43.4780872 C12.6011444,43.6694657 12.862087,41.1155503 13.1626531,41.4886668 C13.7797337,42.2546978 14.235267,46.4154646 14.235267,48.0751987 Z" id="path-18"></path>
        <path d="M17.6937275,10.1048007 C17.6937275,6.95556176 15.9701834,5.38096594 12.5230435,5.38096594 C10.6505231,5.38096594 8.71419582,5.8278107 6.71400355,6.72151362 L6.07564751,10.8069923 L0.713456753,10.8069923 L0.0112651066,2.06151451 C4.26699334,0.699681481 8.51201857,0.0187751777 12.7464682,0.0187751777 C16.9809177,0.0187751777 20.1620269,0.955021344 22.289891,2.82754177 C24.4177551,4.70006219 25.4816712,7.00876012 25.4816712,9.75370483 C25.4816712,12.4986495 25.0241873,14.7860691 24.1092057,16.6160323 C23.1942241,18.4459954 22.0771122,19.8610038 20.7578365,20.8611 C19.4385607,21.8611961 18.1193048,22.7655248 16.800029,23.5741131 C15.4807533,24.3827015 14.3210847,25.2870302 13.3209886,26.2871263 C12.3208925,27.2872225 11.7782953,28.446891 11.6931807,29.7661668 L11.3740027,33.915481 L5.24578466,34.3623303 C5.24578466,34.319773 5.13939305,33.4580009 4.92660663,31.7769883 C4.71382022,30.0959756 4.60742861,28.6384106 4.60742861,27.4042494 C4.60742861,26.1700882 4.92660344,25.0848938 5.56496268,24.1486336 C6.20332191,23.2123734 7.01189815,22.4250755 7.99071564,21.7867162 C8.96953313,21.148357 10.0228101,20.4355332 11.150578,19.6482235 C12.278346,18.8609138 13.331623,18.084255 14.3104405,17.3182239 C15.289258,16.5521929 16.0978342,15.5414726 16.7361934,14.2860327 C17.3745527,13.0305929 17.6937275,11.6368628 17.6937275,10.1048007 Z M13.5444132,43.3631505 C13.5444132,46.1719311 11.8634258,47.5763004 8.50140047,47.5763004 C6.84166646,47.5763004 5.60752379,47.2677647 4.79893543,46.6506841 C3.99034706,46.0336035 3.58605895,44.9271308 3.58605895,43.3312327 C3.58605895,41.7353346 3.95842958,40.5437486 4.70318202,39.7564388 C5.44793446,38.9691291 6.7991079,38.5754801 8.75674289,38.5754801 C10.7143779,38.5754801 12.0017164,38.9584899 12.6187969,39.724521 C13.2358775,40.4905521 13.5444132,41.7034165 13.5444132,43.3631505 Z" id="path-19"></path>
    </defs>
    <g id="Symbols" stroke="none" stroke-width="1" fill="none" fill-rule="evenodd">
        <g id="ill_why">
            <g id="boulier" transform="translate(0.000000, 1.000000)">
                <mask id="mask-2" fill="white">
                    <use xlink:href="#path-1"></use>
                </mask>
                <use id="Mask" fill="#E2E1D0" xlink:href="#path-1"></use>
                <path d="M46,28.4462891 L69.6777344,13.5087891 C83.1035156,14.8769531 90.8011068,20.1917318 92.7705078,29.453125 C86.2360026,48.1054688 76.4487305,55.8123372 63.4086914,52.5737305 L46,28.4462891 Z" id="Rectangle-4-Copy-3" fill="url(#linearGradient-3)" mask="url(#mask-2)"></path>
                <polygon id="Rectangle-4-Copy-3" fill="url(#linearGradient-4)" mask="url(#mask-2)" points="54.9335938 71.5644531 88.5771484 49.2109375 99.4384766 24.5068359 124.056641 59.1992187 99.4384766 134.248047"></polygon>
                <polygon id="Rectangle-4-Copy-3" fill="url(#linearGradient-5)" mask="url(#mask-2)" points="53.0839844 93.8911133 77.9853516 86.6220703 101.530273 119.831055 79.8583984 132.037109"></polygon>
                <polygon id="Rectangle-4-Copy-3" fill="url(#linearGradient-5)" mask="url(#mask-2)" points="83.0839844 119.891113 97.1113281 115.192383 120.65625 148.401367 109.858398 158.037109"></polygon>
                <polygon id="Rectangle-4-Copy-3" fill="url(#linearGradient-5)" mask="url(#mask-2)" points="86.0839844 102.891113 130.132812 76.3183594 153.677734 109.527344 112.858398 141.037109"></polygon>
                <polygon id="Rectangle-4-Copy-3" fill="url(#linearGradient-5)" mask="url(#mask-2)" points="14.0839844 73.8911133 29.9853516 64.6220703 39.7255859 77.234375 27.0537109 91.4404297"></polygon>
                <polygon id="Rectangle-4-Copy-3" fill="url(#linearGradient-5)" mask="url(#mask-2)" points="34.0839844 109.891113 30.3525391 85.3974609 36.4648438 65.0029297 63.6484375 102.208984 60.8583984 148.037109"></polygon>
                <g id="?-copy-5" mask="url(#mask-2)">
                    <g transform="translate(44.381836, 8.476337)">
                        <g id="?-copy">
                            <use fill="#F65C3B" xlink:href="#path-7"></use>
                            <use fill="url(#linearGradient-6)" xlink:href="#path-7"></use>
                        </g>
                        <g id="Path">
                            <use fill="#F65C3B" xlink:href="#path-8"></use>
                            <use fill="url(#linearGradient-6)" xlink:href="#path-8"></use>
                        </g>
                        <g id="Path">
                            <use fill="#F65C3B" xlink:href="#path-9"></use>
                            <use fill="url(#linearGradient-6)" xlink:href="#path-9"></use>
                        </g>
                        <g id="?">
                            <use fill="#F65C3B" xlink:href="#path-11"></use>
                            <use fill="url(#linearGradient-10)" xlink:href="#path-11"></use>
                        </g>
                    </g>
                </g>
                <g id="?-copy-4" mask="url(#mask-2)">
                    <g transform="translate(104.719561, 95.882724) rotate(26.000000) translate(-104.719561, -95.882724) translate(84.219561, 63.882724)">
                        <g id="?-copy">
                            <use fill="#F65C3B" xlink:href="#path-12"></use>
                            <use fill="url(#linearGradient-6)" xlink:href="#path-12"></use>
                        </g>
                        <g id="Path">
                            <use fill="#F65C3B" xlink:href="#path-13"></use>
                            <use fill="url(#linearGradient-6)" xlink:href="#path-13"></use>
                        </g>
                        <g id="Path">
                            <use fill="#F65C3B" xlink:href="#path-14"></use>
                            <use fill="url(#linearGradient-6)" xlink:href="#path-14"></use>
                        </g>
                        <g id="?">
                            <use fill="#F65C3B" xlink:href="#path-15"></use>
                            <use fill="url(#linearGradient-10)" xlink:href="#path-15"></use>
                        </g>
                    </g>
                </g>
                <g id="?-copy-4" mask="url(#mask-2)">
                    <g transform="translate(32.721996, 84.932900) rotate(-24.000000) translate(-32.721996, -84.932900) translate(19.221996, 58.432900)">
                        <g id="?-copy">
                            <use fill="#F65C3B" xlink:href="#path-16"></use>
                            <use fill="url(#linearGradient-6)" xlink:href="#path-16"></use>
                        </g>
                        <g id="Path">
                            <use fill="#F65C3B" xlink:href="#path-17"></use>
                            <use fill="url(#linearGradient-6)" xlink:href="#path-17"></use>
                        </g>
                        <g id="Path">
                            <use fill="#F65C3B" xlink:href="#path-18"></use>
                            <use fill="url(#linearGradient-6)" xlink:href="#path-18"></use>
                        </g>
                        <g id="?">
                            <use fill="#F65C3B" xlink:href="#path-19"></use>
                            <use fill="url(#linearGradient-10)" xlink:href="#path-19"></use>
                        </g>
                    </g>
                </g>
            </g>
        </g>
    </g>
</svg>