<?xml version="1.0" encoding="UTF-8"?>
<svg width="126px" height="97px" viewBox="0 0 126 97" version="1.1" xmlns="http://www.w3.org/2000/svg" xmlns:xlink="http://www.w3.org/1999/xlink">
    <!-- Generator: Sketch 44.1 (41455) - http://www.bohemiancoding.com/sketch -->
    <title>logo vert orange</title>
    <desc>Created with Sketch.</desc>
    <defs>
        <linearGradient x1="50%" y1="6.91145913%" x2="50%" y2="98.2959981%" id="linearGradient-1">
            <stop stop-color="#3E3D2A" stop-opacity="0.5" offset="0%"></stop>
            <stop stop-color="#3E3D2A" stop-opacity="0" offset="100%"></stop>
        </linearGradient>
        <linearGradient x1="58.9445117%" y1="97.8874362%" x2="58.9445114%" y2="1.82756696%" id="linearGradient-2">
            <stop stop-color="#3E3D2A" stop-opacity="0.8" offset="0%"></stop>
            <stop stop-color="#3E3D2A" stop-opacity="0.2" offset="100%"></stop>
        </linearGradient>
        <rect id="path-3" x="0" y="0" width="61.0909091" height="36.297698"></rect>
        <rect id="path-5" x="0" y="0" width="37" height="26" rx="1"></rect>
        <radialGradient cx="50%" cy="83.239294%" fx="50%" fy="83.239294%" r="65.5092593%" gradientTransform="translate(0.500000,0.832393),scale(0.703167,1.000000),rotate(-90.000000),scale(1.000000,1.632422),translate(-0.500000,-0.832393)" id="radialGradient-7">
            <stop stop-color="#373624" offset="0%"></stop>
            <stop stop-color="#373624" stop-opacity="0" offset="100%"></stop>
        </radialGradient>
        <rect id="path-8" x="0.019882791" y="0" width="36.9755922" height="26"></rect>
        <linearGradient x1="50.2771121%" y1="14.4826761%" x2="60.6221384%" y2="43.9308713%" id="linearGradient-9">
            <stop stop-color="#FFFFFF" stop-opacity="0.5" offset="0%"></stop>
            <stop stop-color="#FFFFFF" stop-opacity="0" offset="100%"></stop>
        </linearGradient>
        <path d="M36.995475,1.70023148 L21.924376,11.8668219 C21.0597797,12.5116994 20.8468016,13.5568697 21.2854419,15.0023329 L36.995475,25.9416956 L36.995475,1.70023148 Z" id="path-10"></path>
        <filter x="-12.6%" y="-12.4%" width="125.1%" height="116.5%" filterUnits="objectBoundingBox" id="filter-11">
            <feOffset dx="0" dy="-1" in="SourceAlpha" result="shadowOffsetOuter1"></feOffset>
            <feGaussianBlur stdDeviation="0.5" in="shadowOffsetOuter1" result="shadowBlurOuter1"></feGaussianBlur>
            <feColorMatrix values="0 0 0 0 0.215686275   0 0 0 0 0.211764706   0 0 0 0 0.141176471  0 0 0 0.3 0" type="matrix" in="shadowBlurOuter1"></feColorMatrix>
        </filter>
        <linearGradient x1="49.7489705%" y1="14.2694257%" x2="36.4708293%" y2="44.7144852%" id="linearGradient-12">
            <stop stop-color="#FFFFFF" stop-opacity="0.5" offset="0%"></stop>
            <stop stop-color="#FFFFFF" stop-opacity="0" offset="100%"></stop>
        </linearGradient>
        <path d="M0.019882791,1.70023148 C10.0672821,8.47795844 15.0909818,11.8668219 15.0909818,11.8668219 C15.9555781,12.5116994 16.1685561,13.5568697 15.7299159,15.0023329 L0.019882791,25.9416956 L0.019882791,1.70023148 Z" id="path-13"></path>
        <filter x="-12.6%" y="-12.4%" width="125.1%" height="116.5%" filterUnits="objectBoundingBox" id="filter-14">
            <feOffset dx="0" dy="-1" in="SourceAlpha" result="shadowOffsetOuter1"></feOffset>
            <feGaussianBlur stdDeviation="0.5" in="shadowOffsetOuter1" result="shadowBlurOuter1"></feGaussianBlur>
            <feColorMatrix values="0 0 0 0 0.215686275   0 0 0 0 0.211764706   0 0 0 0 0.141176471  0 0 0 0.3 0" type="matrix" in="shadowBlurOuter1"></feColorMatrix>
        </filter>
        <linearGradient x1="50%" y1="0%" x2="50%" y2="100%" id="linearGradient-15">
            <stop stop-color="#FFFFFF" offset="0%"></stop>
            <stop stop-color="#FFFFFF" stop-opacity="0" offset="100%"></stop>
        </linearGradient>
        <path d="M0,25.9755498 C10.1091423,18.4494237 15.6066578,14.3972289 16.4925466,13.8189652 C17.8213798,12.9515697 19.0253171,12.8313169 20.5242967,13.8189652 C21.5236164,14.4773974 26.9934408,18.5295923 36.9337698,25.9755498 L0,25.9755498 Z" id="path-16"></path>
        <filter x="-5.4%" y="-23.3%" width="110.8%" height="131.1%" filterUnits="objectBoundingBox" id="filter-17">
            <feOffset dx="0" dy="-1" in="SourceAlpha" result="shadowOffsetOuter1"></feOffset>
            <feGaussianBlur stdDeviation="0.5" in="shadowOffsetOuter1" result="shadowBlurOuter1"></feGaussianBlur>
            <feColorMatrix values="0 0 0 0 0.215686275   0 0 0 0 0.211764706   0 0 0 0 0.141176471  0 0 0 0.1 0" type="matrix" in="shadowBlurOuter1"></feColorMatrix>
        </filter>
    </defs>
    <g id="Symbols" stroke="none" stroke-width="1" fill="none" fill-rule="evenodd">
        <g id="logo-vert-orange">
            <path d="M4.3046875,84.0654297 C4.76953357,84.142904 5.32096035,84.1816406 5.95898437,84.1816406 C8.06446365,84.1816406 9.12174475,83.4433668 9.13085938,81.9667969 C9.13085938,81.3652314 8.87337497,80.9117854 8.35839844,80.6064453 C7.8434219,80.3011052 7.04362521,79.9798194 5.95898437,79.6425781 C4.96548982,79.3235661 4.16113589,79.015952 3.54589844,78.7197266 C2.93066099,78.4235011 2.40429906,77.99512 1.96679688,77.4345703 C1.52929469,76.8740206 1.31054688,76.1471399 1.31054688,75.2539062 C1.31054688,73.8502534 1.78677909,72.7701861 2.73925781,72.0136719 C3.69173653,71.2571577 4.9244716,70.8789062 6.4375,70.8789062 C7.09375328,70.8789062 7.77506157,70.9404291 8.48144531,71.0634766 C9.18782905,71.1865241 9.78938554,71.3164056 10.2861328,71.453125 C10.7828801,71.5898444 11.0950514,71.6809894 11.2226562,71.7265625 L11.140625,75.5 L9.32226562,75.5 L8.87109375,73.3125 C8.81640598,73.2942707 8.69563896,73.2578128 8.50878906,73.203125 C8.32193917,73.1484372 8.05989752,73.0983075 7.72265625,73.0527344 C7.38541498,73.0071612 7.0117208,72.984375 6.6015625,72.984375 C4.94270004,72.984375 4.11328125,73.6087177 4.11328125,74.8574219 C4.11328125,75.4589874 4.37988015,75.9215479 4.91308594,76.2451172 C5.44629173,76.5686865 6.25064566,76.9082013 7.32617187,77.2636719 C8.29232254,77.6009131 9.08528336,77.9130845 9.70507812,78.2001953 C10.3248729,78.4873061 10.8489562,78.9020155 11.2773437,79.4443359 C11.7057313,79.9866564 11.9199219,80.6679646 11.9199219,81.4882812 C11.9199219,83.0377682 11.3365944,84.2226521 10.1699219,85.0429688 C9.00324937,85.8632854 7.53581613,86.2734375 5.76757812,86.2734375 C5.0019493,86.2734375 4.29101891,86.227865 3.63476562,86.1367188 C2.97851234,86.0455725 2.45442904,85.9544275 2.0625,85.8632812 C1.67057096,85.772135 1.42903691,85.7037763 1.33789062,85.6582031 L1.33789062,81.515625 L3.30664062,81.515625 L3.60742187,83.921875 C3.60742187,83.9401043 3.83984143,83.9879553 4.3046875,84.0654297 Z M30.6777344,85.8632812 L26.0566406,86 L25.7832031,84.0449219 C25.2272108,84.5462265 24.4707079,85.0429663 23.5136719,85.5351562 C22.5566358,86.0273462 21.5859424,86.2734375 20.6015625,86.2734375 C19.1067634,86.2734375 17.9856808,85.8359419 17.2382812,84.9609375 C16.4908817,84.0859331 16.1171875,82.8554767 16.1171875,81.2695312 L16.1171875,73.3945312 L13.7382812,72.8339844 L13.7382812,71.3027344 L18.9199219,71.1660156 L18.9199219,80.9824219 C18.9199219,81.9759164 19.1158835,82.709633 19.5078125,83.1835938 C19.8997415,83.6575545 20.5423132,83.8945312 21.4355469,83.8945312 C22.1464879,83.8945312 22.8004527,83.732749 23.3974609,83.4091797 C23.9944691,83.0856104 24.4934876,82.7278665 24.8945312,82.3359375 C25.2955749,81.9440085 25.4960938,81.7298179 25.4960938,81.6933594 L25.4960938,73.3945312 L23.1171875,72.8339844 L23.1171875,71.3027344 L28.2988281,71.1660156 L28.2988281,83.7578125 L30.6777344,84.3183594 L30.6777344,85.8632812 Z M36.4951172,65.6220703 C37.3929081,64.6513623 38.6712157,64.1660156 40.3300781,64.1660156 C41.1139362,64.1660156 41.8203094,64.2389316 42.4492187,64.3847656 C43.0781281,64.5305997 43.5839825,64.6878247 43.9667969,64.8564453 C44.3496113,65.0250659 44.5410156,65.1184895 44.5410156,65.1367188 L44.5410156,68.6367188 L42.5722656,68.6367188 L42.1484375,66.3945312 C42.0755205,66.376302 41.8818375,66.3489585 41.5673828,66.3125 C41.2529281,66.2760415 40.8906271,66.2578125 40.4804687,66.2578125 C39.5507766,66.2578125 38.8968118,66.4970679 38.5185547,66.9755859 C38.1402976,67.454104 37.9511719,68.149084 37.9511719,69.0605469 L37.9511719,71.3027344 L41.65625,71.3027344 L41.5605469,73.3945312 L37.9511719,73.3945312 L37.9511719,83.7578125 L40.7539062,84.4550781 L40.7539062,86 L32.7695312,86 L32.7695312,84.4550781 L35.1484375,83.7578125 L35.1484375,73.3945312 L32.6328125,73.3945312 L32.6328125,71.5761719 L35.1484375,71.3027344 L35.1484375,69.6210938 C35.1484375,67.9257728 35.5973262,66.5927783 36.4951172,65.6220703 Z M48.1025391,65.6220703 C49.00033,64.6513623 50.2786375,64.1660156 51.9375,64.1660156 C52.7213581,64.1660156 53.4277312,64.2389316 54.0566406,64.3847656 C54.68555,64.5305997 55.1914043,64.6878247 55.5742188,64.8564453 C55.9570332,65.0250659 56.1484375,65.1184895 56.1484375,65.1367188 L56.1484375,68.6367188 L54.1796875,68.6367188 L53.7558594,66.3945312 C53.6829423,66.376302 53.4892594,66.3489585 53.1748047,66.3125 C52.86035,66.2760415 52.4980489,66.2578125 52.0878906,66.2578125 C51.1581985,66.2578125 50.5042337,66.4970679 50.1259766,66.9755859 C49.7477195,67.454104 49.5585938,68.149084 49.5585938,69.0605469 L49.5585938,71.3027344 L53.2636719,71.3027344 L53.1679688,73.3945312 L49.5585938,73.3945312 L49.5585938,83.7578125 L52.3613281,84.4550781 L52.3613281,86 L44.3769531,86 L44.3769531,84.4550781 L46.7558594,83.7578125 L46.7558594,73.3945312 L44.2402344,73.3945312 L44.2402344,71.5761719 L46.7558594,71.3027344 L46.7558594,69.6210938 C46.7558594,67.9257728 47.2047481,66.5927783 48.1025391,65.6220703 Z M62.4580078,71.6103516 C63.1826208,71.1227189 63.9687458,70.8789062 64.8164062,70.8789062 C65.2265646,70.8789062 65.6162091,70.910807 65.9853516,70.9746094 C66.354494,71.0384118 66.6575509,71.1044918 66.8945312,71.1728516 C67.1315116,71.2412113 67.2773435,71.2845051 67.3320312,71.3027344 L67.1953125,75.3632812 L65.3632812,75.3632812 L64.953125,73.2578125 C64.0234329,73.2578125 63.2213575,73.4811176 62.546875,73.9277344 C61.8723925,74.3743512 61.3209657,74.8802055 60.8925781,75.4453125 L60.8925781,83.7578125 L63.6953125,84.4550781 L63.6953125,86 L55.7109375,86 L55.7109375,84.4550781 L58.0898437,83.7578125 L58.0898437,73.3945312 L55.7109375,72.8339844 L55.7109375,71.3027344 L60.3320312,71.1660156 L60.578125,73.203125 C61.1067735,72.6289034 61.7333948,72.0979842 62.4580078,71.6103516 Z M70.8115234,71.6513672 C71.399417,71.4736319 72.094397,71.3004566 72.8964844,71.1318359 C73.6985717,70.9632153 74.4550746,70.8789062 75.1660156,70.8789062 C76.8613366,70.8789062 78.1487586,71.2161425 79.0283203,71.890625 C79.907882,72.5651075 80.3476562,73.6770756 80.3476562,75.2265625 L80.3476562,83.7578125 L82.5898438,84.3183594 L82.5898438,85.8632812 L78.2421875,86 L77.6542969,84.0449219 C77.0527314,84.6464874 76.3577513,85.1682921 75.5693359,85.6103516 C74.7809205,86.0524111 73.9446659,86.2734375 73.0605469,86.2734375 C71.7389257,86.2734375 70.7089881,85.9065792 69.9707031,85.1728516 C69.2324182,84.4391239 68.8632812,83.4069077 68.8632812,82.0761719 C68.8632812,80.526685 69.4192653,79.4169955 70.53125,78.7470703 C71.6432347,78.0771451 73.2337136,77.7421875 75.3027344,77.7421875 L77.5449219,77.7421875 L77.5449219,75.5 C77.5449219,74.6796834 77.3170596,74.0553407 76.8613281,73.6269531 C76.4055967,73.1985656 75.744796,72.984375 74.8789062,72.984375 C74.3776017,72.984375 73.9173198,73.0162757 73.4980469,73.0800781 C73.0787739,73.1438805 72.7483736,73.207682 72.5068359,73.2714844 C72.2652983,73.3352868 72.1171878,73.376302 72.0625,73.3945312 L71.6660156,75.5 L69.8476562,75.5 L69.7109375,72 C69.8567716,71.9453122 70.2236299,71.8291025 70.8115234,71.6513672 Z M72.6162109,80.1210938 C72.0192027,80.4947935 71.7207031,81.1009073 71.7207031,81.9394531 C71.7207031,82.5774771 71.902993,83.0878887 72.2675781,83.4707031 C72.6321633,83.8535175 73.1334604,84.0449219 73.7714844,84.0449219 C74.3912791,84.0449219 74.9791639,83.8763038 75.5351562,83.5390625 C76.0911486,83.2018212 76.5651022,82.8372415 76.9570312,82.4453125 C77.3489603,82.0533835 77.5449219,81.8391929 77.5449219,81.8027344 L77.5449219,79.5605469 L75.5898438,79.5605469 C74.2044202,79.5605469 73.2132191,79.747394 72.6162109,80.1210938 Z M96.6240234,73.6474609 C96.7470709,73.8707693 96.8655593,74.1943338 96.9794922,74.6181641 C97.093425,75.0419943 97.1503906,75.5227838 97.1503906,76.0605469 C97.1503906,77.8925873 96.5989638,79.2597611 95.4960938,80.1621094 C94.3932237,81.0644576 92.8893324,81.515625 90.984375,81.515625 C90.4648412,81.515625 90.0091165,81.4837243 89.6171875,81.4199219 C89.2252585,81.3561195 88.9791672,81.3059898 88.8789062,81.2695312 L88.7421875,83.8945312 L93.0898438,83.8945312 C94.9218842,83.8945312 96.3118442,84.240882 97.2597656,84.9335938 C98.207687,85.6263055 98.6816406,86.6334569 98.6816406,87.9550781 C98.6816406,89.5410236 98.0664124,90.7783159 96.8359375,91.6669922 C95.6054626,92.5556685 93.7962359,93 91.4082031,93 C89.3027238,93 87.6552794,92.6878286 86.4658203,92.0634766 C85.2763612,91.4391245 84.6816406,90.3977938 84.6816406,88.9394531 C84.6816406,88.1920536 84.9003884,87.5563177 85.3378906,87.0322266 C85.7753928,86.5081354 86.2652968,86.1025405 86.8076172,85.8154297 C87.3499376,85.5283189 87.6210938,85.4029946 87.6210938,85.4394531 C87.6210938,85.4576824 87.468426,85.4212244 87.1630859,85.3300781 C86.8577459,85.2389318 86.5774752,85.074871 86.3222656,84.8378906 C86.067056,84.6009103 85.9394531,84.2682313 85.9394531,83.8398438 C85.9394531,83.5572903 86.0465484,83.1835961 86.2607422,82.71875 C86.474936,82.2539039 86.7005196,81.8255228 86.9375,81.4335938 C87.1744804,81.0416647 87.3294267,80.7910162 87.4023438,80.6816406 C87.4023438,80.7363284 87.2018249,80.5950538 86.8007812,80.2578125 C86.3997376,79.9205712 86.0397151,79.4306673 85.7207031,78.7880859 C85.4016911,78.1455046 85.2421875,77.3274789 85.2421875,76.3339844 C85.2421875,74.5566317 85.7981715,73.2031296 86.9101562,72.2734375 C88.022141,71.3437454 89.5214749,70.8789062 91.4082031,70.8789062 C91.9459662,70.8789062 92.4199198,70.9153642 92.8300781,70.9882812 C93.2402364,71.0611983 93.556965,71.1409501 93.7802734,71.2275391 C94.0035818,71.314128 94.1425779,71.3756509 94.1972656,71.4121094 L99.1054688,71.3027344 L99.1054688,72.8339844 L96.3847656,73.2304688 C96.4212241,73.2851565 96.5009759,73.4241525 96.6240234,73.6474609 Z M88.8310547,73.6611328 C88.3069635,74.2125679 88.0449219,75.057937 88.0449219,76.1972656 C88.0449219,77.2272187 88.3069635,78.0452444 88.8310547,78.6513672 C89.3551458,79.25749 90.1184846,79.5605469 91.1210938,79.5605469 C92.2421931,79.5605469 93.0602188,79.293948 93.5751953,78.7607422 C94.0901718,78.2275364 94.3476562,77.3730528 94.3476562,76.1972656 C94.3476562,75.1126248 94.0901718,74.2809274 93.5751953,73.7021484 C93.0602188,73.1233695 92.2877656,72.8339844 91.2578125,72.8339844 C90.164057,72.8339844 89.3551458,73.1096978 88.8310547,73.6611328 Z M88.796875,86.2939453 C88.4596337,86.5263683 88.1565769,86.8294252 87.8876953,87.203125 C87.6188138,87.5768248 87.484375,88.0143204 87.484375,88.515625 C87.484375,89.4270879 87.8443974,90.0514306 88.5644531,90.3886719 C89.2845088,90.7259131 90.3691334,90.8945312 91.8183594,90.8945312 C93.2402415,90.8945312 94.2975226,90.6757834 94.9902344,90.2382812 C95.6829462,89.8007791 96.0292969,89.1354211 96.0292969,88.2421875 C96.0292969,87.3854124 95.7239614,86.7975276 95.1132812,86.4785156 C94.5026011,86.1595036 93.5911519,86 92.3789062,86 L89.3027344,86 C89.3027344,85.9635415 89.1341163,86.0615223 88.796875,86.2939453 Z M103.275391,65.0957031 C103.630861,64.7493472 104.059242,64.5761719 104.560547,64.5761719 C105.772793,64.5761719 106.378906,65.2324153 106.378906,66.5449219 C106.378906,67.1464874 106.192059,67.6227196 105.818359,67.9736328 C105.44466,68.324546 105.025393,68.5 104.560547,68.5 C104.004555,68.5 103.562502,68.3268246 103.234375,67.9804688 C102.906248,67.6341129 102.742188,67.155602 102.742188,66.5449219 C102.742188,65.9251271 102.91992,65.442059 103.275391,65.0957031 Z M108.197266,86 L100.923828,86 L100.923828,84.4550781 L103.302734,83.7578125 L103.302734,73.3945312 L100.923828,72.8339844 L100.923828,71.3027344 L106.105469,71.1660156 L106.105469,83.7578125 L108.197266,84.4550781 L108.197266,86 Z M112.387695,71.6513672 C112.975589,71.4736319 113.670569,71.3004566 114.472656,71.1318359 C115.274744,70.9632153 116.031246,70.8789062 116.742187,70.8789062 C118.437508,70.8789062 119.72493,71.2161425 120.604492,71.890625 C121.484054,72.5651075 121.923828,73.6770756 121.923828,75.2265625 L121.923828,83.7578125 L124.166016,84.3183594 L124.166016,85.8632812 L119.818359,86 L119.230469,84.0449219 C118.628903,84.6464874 117.933923,85.1682921 117.145508,85.6103516 C116.357092,86.0524111 115.520838,86.2734375 114.636719,86.2734375 C113.315098,86.2734375 112.28516,85.9065792 111.546875,85.1728516 C110.80859,84.4391239 110.439453,83.4069077 110.439453,82.0761719 C110.439453,80.526685 110.995437,79.4169955 112.107422,78.7470703 C113.219407,78.0771451 114.809885,77.7421875 116.878906,77.7421875 L119.121094,77.7421875 L119.121094,75.5 C119.121094,74.6796834 118.893231,74.0553407 118.4375,73.6269531 C117.981769,73.1985656 117.320968,72.984375 116.455078,72.984375 C115.953774,72.984375 115.493492,73.0162757 115.074219,73.0800781 C114.654946,73.1438805 114.324545,73.207682 114.083008,73.2714844 C113.84147,73.3352868 113.69336,73.376302 113.638672,73.3945312 L113.242187,75.5 L111.423828,75.5 L111.287109,72 C111.432943,71.9453122 111.799802,71.8291025 112.387695,71.6513672 Z M114.192383,80.1210938 C113.595375,80.4947935 113.296875,81.1009073 113.296875,81.9394531 C113.296875,82.5774771 113.479165,83.0878887 113.84375,83.4707031 C114.208335,83.8535175 114.709632,84.0449219 115.347656,84.0449219 C115.967451,84.0449219 116.555336,83.8763038 117.111328,83.5390625 C117.66732,83.2018212 118.141274,82.8372415 118.533203,82.4453125 C118.925132,82.0533835 119.121094,81.8391929 119.121094,81.8027344 L119.121094,79.5605469 L117.166016,79.5605469 C115.780592,79.5605469 114.789391,79.747394 114.192383,80.1210938 Z" id="suffragia-copy-9" fill="#2A2A1F"></path>
            <g id="icon-logo" transform="translate(31.000000, 0.000000)">
                <g id="Group-2" transform="translate(0.909091, 0.000000)">
                    <ellipse id="Oval-2-Copy-3" fill="#F65C3B" cx="31.6601254" cy="29.8859247" rx="29.0975057" ry="29.4545455"></ellipse>
                    <polygon id="Rectangle-4-Copy-3" fill="url(#linearGradient-1)" points="7.26615767 24.9902344 50.6945135 35.0862038 51.323331 41.2513317 13.2610973 41.2513317"></polygon>
                    <polygon id="Rectangle-5-Copy-3" fill="url(#linearGradient-2)" points="11.2471514 41.1967905 52.1775028 41.1967905 53.7623595 44.0016962 9.55789124 44.0016962"></polygon>
                    <g id="enveloppe-illus-copy-9" transform="translate(0.450639, 7.703998)">
                        <mask id="mask-4" fill="white">
                            <use xlink:href="#path-3"></use>
                        </mask>
                        <g id="Mask"></g>
                        <g id="enveloppe-illus-arrondie" mask="url(#mask-4)">
                            <g transform="translate(28.326825, 22.506748) rotate(47.000000) translate(-28.326825, -22.506748) translate(9.661259, 9.752892)" id="Mask-Copy-+-Path-2-Copy-3-+-Path-2-Copy-5-+-Path-3-Copy-Mask">
                                <g>
                                    <mask id="mask-6" fill="white">
                                        <use xlink:href="#path-5"></use>
                                    </mask>
                                    <use id="Mask" fill="#D8D8D8" xlink:href="#path-5"></use>
                                    <g id="Mask-Copy" mask="url(#mask-6)">
                                        <use fill="#E6E5D6" xlink:href="#path-8"></use>
                                        <use fill="url(#radialGradient-7)" xlink:href="#path-8"></use>
                                    </g>
                                    <g id="Path-2-Copy-3" mask="url(#mask-6)">
                                        <use fill="black" fill-opacity="1" filter="url(#filter-11)" xlink:href="#path-10"></use>
                                        <use fill="#E6E5D6" fill-rule="evenodd" xlink:href="#path-10"></use>
                                        <use fill="url(#linearGradient-9)" fill-rule="evenodd" xlink:href="#path-10"></use>
                                    </g>
                                    <g id="Path-2-Copy-5" mask="url(#mask-6)">
                                        <use fill="black" fill-opacity="1" filter="url(#filter-14)" xlink:href="#path-13"></use>
                                        <use fill="#E6E5D6" fill-rule="evenodd" xlink:href="#path-13"></use>
                                        <use fill="url(#linearGradient-12)" fill-rule="evenodd" xlink:href="#path-13"></use>
                                    </g>
                                    <g id="Path-3-Copy" mask="url(#mask-6)">
                                        <use fill="black" fill-opacity="1" filter="url(#filter-17)" xlink:href="#path-16"></use>
                                        <use fill="#E6E5D6" fill-rule="evenodd" xlink:href="#path-16"></use>
                                        <use fill="url(#linearGradient-15)" fill-rule="evenodd" xlink:href="#path-16"></use>
                                    </g>
                                </g>
                            </g>
                        </g>
                    </g>
                </g>
            </g>
        </g>
    </g>
</svg>