<?xml version="1.0" encoding="UTF-8"?>
<svg width="126px" height="97px" viewBox="0 0 126 97" version="1.1" xmlns="http://www.w3.org/2000/svg" xmlns:xlink="http://www.w3.org/1999/xlink">
    <!-- Generator: Sketch 44.1 (41455) - http://www.bohemiancoding.com/sketch -->
    <title>logo vert ocre</title>
    <desc>Created with Sketch.</desc>
    <defs>
        <linearGradient x1="50%" y1="6.91145913%" x2="50%" y2="98.2959981%" id="linearGradient-1">
            <stop stop-color="#3E3D2A" stop-opacity="0.5" offset="0%"></stop>
            <stop stop-color="#3E3D2A" stop-opacity="0" offset="100%"></stop>
        </linearGradient>
        <linearGradient x1="58.9445117%" y1="97.8874362%" x2="58.9445114%" y2="1.82756696%" id="linearGradient-2">
            <stop stop-color="#3E3D2A" stop-opacity="0.8" offset="0%"></stop>
            <stop stop-color="#3E3D2A" stop-opacity="0.2" offset="100%"></stop>
        </linearGradient>
        <rect id="path-3" x="0" y="0" width="56" height="33.2728899"></rect>
        <rect id="path-5" x="0" y="0" width="34" height="23" rx="1"></rect>
        <radialGradient cx="50%" cy="83.239294%" fx="50%" fy="83.239294%" r="65.5092593%" gradientTransform="translate(0.500000,0.832393),scale(0.676917,1.000000),rotate(-90.000000),scale(1.000000,1.632422),translate(-0.500000,-0.832393)" id="radialGradient-7">
            <stop stop-color="#373624" offset="0%"></stop>
            <stop stop-color="#373624" stop-opacity="0" offset="100%"></stop>
        </radialGradient>
        <rect id="path-8" x="0.0182706728" y="0" width="33.9775712" height="23"></rect>
        <linearGradient x1="50.2771121%" y1="14.4826761%" x2="60.6221384%" y2="43.9308713%" id="linearGradient-9">
            <stop stop-color="#FFFFFF" stop-opacity="0.5" offset="0%"></stop>
            <stop stop-color="#FFFFFF" stop-opacity="0" offset="100%"></stop>
        </linearGradient>
        <path d="M33.9958419,1.50405093 L20.1467239,10.4975732 C19.35223,11.0680417 19.1565204,11.9926155 19.5595953,13.2712945 L33.9958419,22.948423 L33.9958419,1.50405093 Z" id="path-10"></path>
        <filter x="-13.7%" y="-14.0%" width="127.3%" height="118.7%" filterUnits="objectBoundingBox" id="filter-11">
            <feOffset dx="0" dy="-1" in="SourceAlpha" result="shadowOffsetOuter1"></feOffset>
            <feGaussianBlur stdDeviation="0.5" in="shadowOffsetOuter1" result="shadowBlurOuter1"></feGaussianBlur>
            <feColorMatrix values="0 0 0 0 0.215686275   0 0 0 0 0.211764706   0 0 0 0 0.141176471  0 0 0 0.3 0" type="matrix" in="shadowBlurOuter1"></feColorMatrix>
        </filter>
        <linearGradient x1="49.7489705%" y1="14.2694257%" x2="36.4708293%" y2="44.7144852%" id="linearGradient-12">
            <stop stop-color="#FFFFFF" stop-opacity="0.5" offset="0%"></stop>
            <stop stop-color="#FFFFFF" stop-opacity="0" offset="100%"></stop>
        </linearGradient>
        <path d="M0.0182706728,1.50405093 C9.25101599,7.49973246 13.8673886,10.4975732 13.8673886,10.4975732 C14.6618826,11.0680417 14.8575921,11.9926155 14.4545173,13.2712945 L0.0182706728,22.948423 L0.0182706728,1.50405093 Z" id="path-13"></path>
        <filter x="-13.7%" y="-14.0%" width="127.3%" height="118.7%" filterUnits="objectBoundingBox" id="filter-14">
            <feOffset dx="0" dy="-1" in="SourceAlpha" result="shadowOffsetOuter1"></feOffset>
            <feGaussianBlur stdDeviation="0.5" in="shadowOffsetOuter1" result="shadowBlurOuter1"></feGaussianBlur>
            <feColorMatrix values="0 0 0 0 0.215686275   0 0 0 0 0.211764706   0 0 0 0 0.141176471  0 0 0 0.3 0" type="matrix" in="shadowBlurOuter1"></feColorMatrix>
        </filter>
        <linearGradient x1="50%" y1="0%" x2="50%" y2="100%" id="linearGradient-15">
            <stop stop-color="#FFFFFF" offset="0%"></stop>
            <stop stop-color="#FFFFFF" stop-opacity="0" offset="100%"></stop>
        </linearGradient>
        <path d="M0,22.9783709 C9.28948208,16.320644 14.3412531,12.7360101 15.1553131,12.2244692 C16.376403,11.4571578 17.4827238,11.3507803 18.8601645,12.2244692 C19.7784583,12.8069285 24.8047834,16.3915624 33.9391398,22.9783709 L0,22.9783709 Z" id="path-16"></path>
        <filter x="-5.9%" y="-26.4%" width="111.8%" height="135.2%" filterUnits="objectBoundingBox" id="filter-17">
            <feOffset dx="0" dy="-1" in="SourceAlpha" result="shadowOffsetOuter1"></feOffset>
            <feGaussianBlur stdDeviation="0.5" in="shadowOffsetOuter1" result="shadowBlurOuter1"></feGaussianBlur>
            <feColorMatrix values="0 0 0 0 0.215686275   0 0 0 0 0.211764706   0 0 0 0 0.141176471  0 0 0 0.1 0" type="matrix" in="shadowBlurOuter1"></feColorMatrix>
        </filter>
    </defs>
    <g id="Symbols" stroke="none" stroke-width="1" fill="none" fill-rule="evenodd">
        <g id="logo-vert-ocre">
            <path d="M4.59512329,74.9608607 C5.05996936,75.038335 5.61139614,75.0770716 6.24942016,75.0770716 C8.35489944,75.0770716 9.41218053,74.3387978 9.42129516,72.8622279 C9.42129516,72.2606624 9.16381076,71.8072164 8.64883422,71.5018763 C8.13385769,71.1965362 7.334061,70.8752504 6.24942016,70.5380091 C5.25592561,70.2189971 4.45157168,69.911383 3.83633422,69.6151576 C3.22109677,69.3189321 2.69473485,68.890551 2.25723266,68.3300013 C1.81973047,67.7694516 1.60098266,67.0425709 1.60098266,66.1493372 C1.60098266,64.7456844 2.07721488,63.6656171 3.0296936,62.9091029 C3.98217232,62.1525887 5.21490739,61.7743372 6.72793579,61.7743372 C7.38418907,61.7743372 8.06549736,61.8358601 8.7718811,61.9589076 C9.47826484,62.081955 10.0798213,62.2118366 10.5765686,62.348556 C11.0733159,62.4852754 11.3854872,62.5764204 11.513092,62.6219935 L11.4310608,66.395431 L9.61270141,66.395431 L9.16152954,64.207931 C9.10684176,64.1897017 8.98607474,64.1532438 8.79922485,64.098556 C8.61237496,64.0438682 8.35033331,63.9937385 8.01309204,63.9481654 C7.67585077,63.9025922 7.30215659,63.879806 6.89199829,63.879806 C5.23313583,63.879806 4.40371704,64.5041487 4.40371704,65.7528529 C4.40371704,66.3544184 4.67031593,66.8169789 5.20352172,67.1405482 C5.73672752,67.4641175 6.54108145,67.8036323 7.61660766,68.1591029 C8.58275833,68.4963441 9.37571915,68.8085155 9.99551391,69.0956263 C10.6153087,69.3827371 11.139392,69.7974465 11.5677795,70.3397669 C11.9961671,70.8820874 12.2103577,71.5633956 12.2103577,72.3837122 C12.2103577,73.9331992 11.6270302,75.1180831 10.4603577,75.9383997 C9.29368516,76.7587163 7.82625192,77.1688685 6.05801391,77.1688685 C5.29238508,77.1688685 4.58145469,77.123296 3.92520141,77.0321497 C3.26894813,76.9410035 2.74486483,76.8498585 2.35293579,76.7587122 C1.96100674,76.667566 1.7194727,76.5992073 1.62832641,76.5536341 L1.62832641,72.411056 L3.59707641,72.411056 L3.89785766,74.817306 C3.89785766,74.8355353 4.13027721,74.8833863 4.59512329,74.9608607 Z M30.9681702,76.7587122 L26.3470764,76.895431 L26.0736389,74.9403529 C25.5176465,75.4416575 24.7611437,75.9383973 23.8041077,76.4305872 C22.8470716,76.9227772 21.8763782,77.1688685 20.8919983,77.1688685 C19.3971991,77.1688685 18.2761166,76.7313729 17.528717,75.8563685 C16.7813175,74.9813641 16.4076233,73.7509077 16.4076233,72.1649622 L16.4076233,64.2899622 L14.028717,63.7294154 L14.028717,62.1981654 L19.2103577,62.0614466 L19.2103577,71.8778529 C19.2103577,72.8713474 19.4063192,73.605064 19.7982483,74.0790247 C20.1901773,74.5529854 20.832749,74.7899622 21.7259827,74.7899622 C22.4369237,74.7899622 23.0908885,74.62818 23.6878967,74.3046107 C24.2849049,73.9810414 24.7839234,73.6232975 25.184967,73.2313685 C25.5860107,72.8394395 25.7865295,72.6252489 25.7865295,72.5887904 L25.7865295,64.2899622 L23.4076233,63.7294154 L23.4076233,62.1981654 L28.5892639,62.0614466 L28.5892639,74.6532435 L30.9681702,75.2137904 L30.9681702,76.7587122 Z M36.785553,56.5175013 C37.6833439,55.5467933 38.9616515,55.0614466 40.6205139,55.0614466 C41.404372,55.0614466 42.1107451,55.1343626 42.7396545,55.2801966 C43.3685639,55.4260307 43.8744182,55.5832557 44.2572327,55.7518763 C44.6400471,55.9204969 44.8314514,56.0139205 44.8314514,56.0321497 L44.8314514,59.5321497 L42.8627014,59.5321497 L42.4388733,57.2899622 C42.3659563,57.271733 42.1722733,57.2443895 41.8578186,57.207931 C41.5433639,57.1714725 41.1810628,57.1532435 40.7709045,57.1532435 C39.8412124,57.1532435 39.1872476,57.3924989 38.8089905,57.8710169 C38.4307334,58.349535 38.2416077,59.044515 38.2416077,59.9559779 L38.2416077,62.1981654 L41.9466858,62.1981654 L41.8509827,64.2899622 L38.2416077,64.2899622 L38.2416077,74.6532435 L41.044342,75.3505091 L41.044342,76.895431 L33.059967,76.895431 L33.059967,75.3505091 L35.4388733,74.6532435 L35.4388733,64.2899622 L32.9232483,64.2899622 L32.9232483,62.4716029 L35.4388733,62.1981654 L35.4388733,60.5165247 C35.4388733,58.8212038 35.887762,57.4882093 36.785553,56.5175013 Z M48.3929748,56.5175013 C49.2907658,55.5467933 50.5690733,55.0614466 52.2279358,55.0614466 C53.0117939,55.0614466 53.718167,55.1343626 54.3470764,55.2801966 C54.9759858,55.4260307 55.4818401,55.5832557 55.8646545,55.7518763 C56.247469,55.9204969 56.4388733,56.0139205 56.4388733,56.0321497 L56.4388733,59.5321497 L54.4701233,59.5321497 L54.0462952,57.2899622 C53.9733781,57.271733 53.7796952,57.2443895 53.4652405,57.207931 C53.1507858,57.1714725 52.7884847,57.1532435 52.3783264,57.1532435 C51.4486343,57.1532435 50.7946694,57.3924989 50.4164123,57.8710169 C50.0381553,58.349535 49.8490295,59.044515 49.8490295,59.9559779 L49.8490295,62.1981654 L53.5541077,62.1981654 L53.4584045,64.2899622 L49.8490295,64.2899622 L49.8490295,74.6532435 L52.6517639,75.3505091 L52.6517639,76.895431 L44.6673889,76.895431 L44.6673889,75.3505091 L47.0462952,74.6532435 L47.0462952,64.2899622 L44.5306702,64.2899622 L44.5306702,62.4716029 L47.0462952,62.1981654 L47.0462952,60.5165247 C47.0462952,58.8212038 47.4951839,57.4882093 48.3929748,56.5175013 Z M62.7484436,62.5057826 C63.4730566,62.0181499 64.2591815,61.7743372 65.106842,61.7743372 C65.5170003,61.7743372 65.9066449,61.806238 66.2757873,61.8700404 C66.6449298,61.9338428 66.9479867,61.9999228 67.184967,62.0682826 C67.4219474,62.1366423 67.5677793,62.1799361 67.622467,62.1981654 L67.4857483,66.2587122 L65.653717,66.2587122 L65.2435608,64.1532435 C64.3138686,64.1532435 63.5117933,64.3765486 62.8373108,64.8231654 C62.1628282,65.2697822 61.6114015,65.7756365 61.1830139,66.3407435 L61.1830139,74.6532435 L63.9857483,75.3505091 L63.9857483,76.895431 L56.0013733,76.895431 L56.0013733,75.3505091 L58.3802795,74.6532435 L58.3802795,64.2899622 L56.0013733,63.7294154 L56.0013733,62.1981654 L60.622467,62.0614466 L60.8685608,64.098556 C61.3972093,63.5243344 62.0238306,62.9934152 62.7484436,62.5057826 Z M71.1019592,62.5467982 C71.6898528,62.3690629 72.3848328,62.1958876 73.1869202,62.0272669 C73.9890075,61.8586463 74.7455104,61.7743372 75.4564514,61.7743372 C77.1517724,61.7743372 78.4391944,62.1115735 79.3187561,62.786056 C80.1983178,63.4605385 80.638092,64.5725066 80.638092,66.1219935 L80.638092,74.6532435 L82.8802795,75.2137904 L82.8802795,76.7587122 L78.5326233,76.895431 L77.9447327,74.9403529 C77.3431672,75.5419184 76.6481871,76.0637231 75.8597717,76.5057826 C75.0713563,76.9478421 74.2351017,77.1688685 73.3509827,77.1688685 C72.0293615,77.1688685 70.9994239,76.8020102 70.2611389,76.0682826 C69.522854,75.3345549 69.153717,74.3023387 69.153717,72.9716029 C69.153717,71.422116 69.7097011,70.3124265 70.8216858,69.6425013 C71.9336705,68.9725761 73.5241494,68.6376185 75.5931702,68.6376185 L77.8353577,68.6376185 L77.8353577,66.395431 C77.8353577,65.5751144 77.6074954,64.9507717 77.1517639,64.5223841 C76.6960325,64.0939966 76.0352318,63.879806 75.169342,63.879806 C74.6680374,63.879806 74.2077556,63.9117067 73.7884827,63.9755091 C73.3692097,64.0393115 73.0388094,64.103113 72.7972717,64.1669154 C72.5557341,64.2307178 72.4076236,64.271733 72.3529358,64.2899622 L71.9564514,66.395431 L70.138092,66.395431 L70.0013733,62.895431 C70.1472073,62.8407432 70.5140657,62.7245334 71.1019592,62.5467982 Z M72.9066467,71.0165247 C72.3096385,71.3902245 72.0111389,71.9963383 72.0111389,72.8348841 C72.0111389,73.4729081 72.1934288,73.9833197 72.5580139,74.3661341 C72.9225991,74.7489485 73.4238961,74.9403529 74.0619202,74.9403529 C74.6817149,74.9403529 75.2695997,74.7717348 75.825592,74.4344935 C76.3815844,74.0972522 76.855538,73.7326725 77.247467,73.3407435 C77.6393961,72.9488145 77.8353577,72.7346239 77.8353577,72.6981654 L77.8353577,70.4559779 L75.8802795,70.4559779 C74.4948559,70.4559779 73.5036549,70.642825 72.9066467,71.0165247 Z M96.9144592,64.5428919 C97.0375067,64.7662003 97.1559951,65.0897648 97.269928,65.5135951 C97.3838608,65.9374253 97.4408264,66.4182148 97.4408264,66.9559779 C97.4408264,68.7880183 96.8893996,70.1551921 95.7865295,71.0575404 C94.6836594,71.9598886 93.1797682,72.411056 91.2748108,72.411056 C90.7552769,72.411056 90.2995523,72.3791553 89.9076233,72.3153529 C89.5156942,72.2515505 89.269603,72.2014208 89.169342,72.1649622 L89.0326233,74.7899622 L93.3802795,74.7899622 C95.2123199,74.7899622 96.60228,75.1363129 97.5502014,75.8290247 C98.4981228,76.5217365 98.9720764,77.5288879 98.9720764,78.8505091 C98.9720764,80.4364546 98.3568482,81.6737469 97.1263733,82.5624232 C95.8958984,83.4510995 94.0866717,83.895431 91.6986389,83.895431 C89.5931596,83.895431 87.9457152,83.5832596 86.7562561,82.9589076 C85.566797,82.3345555 84.9720764,81.2932247 84.9720764,79.8348841 C84.9720764,79.0874846 85.1908242,78.4517487 85.6283264,77.9276576 C86.0658286,77.4035664 86.5557326,76.9979715 87.098053,76.7108607 C87.6403734,76.4237499 87.9115295,76.2984256 87.9115295,76.3348841 C87.9115295,76.3531134 87.7588618,76.3166554 87.4535217,76.2255091 C87.1481817,76.1343628 86.867911,75.970302 86.6127014,75.7333216 C86.3574918,75.4963413 86.2298889,75.1636623 86.2298889,74.7352747 C86.2298889,74.4527212 86.3369842,74.0790271 86.551178,73.614181 C86.7653718,73.1493349 86.9909554,72.7209538 87.2279358,72.3290247 C87.4649161,71.9370957 87.6198625,71.6864472 87.6927795,71.5770716 C87.6927795,71.6317594 87.4922607,71.4904848 87.091217,71.1532435 C86.6901734,70.8160022 86.3301509,70.3260983 86.0111389,69.6835169 C85.6921269,69.0409356 85.5326233,68.2229099 85.5326233,67.2294154 C85.5326233,65.4520627 86.0886073,64.0985606 87.200592,63.1688685 C88.3125768,62.2391763 89.8119107,61.7743372 91.6986389,61.7743372 C92.236402,61.7743372 92.7103556,61.8107952 93.1205139,61.8837122 C93.5306722,61.9566293 93.8474008,62.0363811 94.0707092,62.1229701 C94.2940176,62.209559 94.4330136,62.2710819 94.4877014,62.3075404 L99.3959045,62.1981654 L99.3959045,63.7294154 L96.6752014,64.1258997 C96.7116599,64.1805875 96.7914117,64.3195835 96.9144592,64.5428919 Z M89.1214905,64.5565638 C88.5973993,65.1079989 88.3353577,65.953368 88.3353577,67.0926966 C88.3353577,68.1226497 88.5973993,68.9406754 89.1214905,69.5467982 C89.6455816,70.152921 90.4089204,70.4559779 91.4115295,70.4559779 C92.5326289,70.4559779 93.3506546,70.189379 93.8656311,69.6561732 C94.3806076,69.1229674 94.638092,68.2684837 94.638092,67.0926966 C94.638092,66.0080558 94.3806076,65.1763584 93.8656311,64.5975794 C93.3506546,64.0188005 92.5782014,63.7294154 91.5482483,63.7294154 C90.4544928,63.7294154 89.6455816,64.0051288 89.1214905,64.5565638 Z M89.0873108,77.1893763 C88.7500695,77.4217993 88.4470127,77.7248562 88.1781311,78.098556 C87.9092495,78.4722558 87.7748108,78.9097514 87.7748108,79.411056 C87.7748108,80.3225189 88.1348332,80.9468616 88.8548889,81.2841029 C89.5749446,81.6213441 90.6595692,81.7899622 92.1087952,81.7899622 C93.5306773,81.7899622 94.5879584,81.5712144 95.2806702,81.1337122 C95.973382,80.6962101 96.3197327,80.0308521 96.3197327,79.1376185 C96.3197327,78.2808434 96.0143972,77.6929586 95.403717,77.3739466 C94.7930369,77.0549346 93.8815877,76.895431 92.669342,76.895431 L89.5931702,76.895431 C89.5931702,76.8589725 89.4245521,76.9569533 89.0873108,77.1893763 Z M103.565826,55.9911341 C103.921297,55.6447782 104.349678,55.4716029 104.850983,55.4716029 C106.063228,55.4716029 106.669342,56.1278463 106.669342,57.4403529 C106.669342,58.0419184 106.482495,58.5181506 106.108795,58.8690638 C105.735095,59.219977 105.315829,59.395431 104.850983,59.395431 C104.29499,59.395431 103.852937,59.2222556 103.524811,58.8758997 C103.196684,58.5295438 103.032623,58.051033 103.032623,57.4403529 C103.032623,56.8205581 103.210356,56.33749 103.565826,55.9911341 Z M108.487701,76.895431 L101.214264,76.895431 L101.214264,75.3505091 L103.59317,74.6532435 L103.59317,64.2899622 L101.214264,63.7294154 L101.214264,62.1981654 L106.395905,62.0614466 L106.395905,74.6532435 L108.487701,75.3505091 L108.487701,76.895431 Z M112.678131,62.5467982 C113.266025,62.3690629 113.961005,62.1958876 114.763092,62.0272669 C115.565179,61.8586463 116.321682,61.7743372 117.032623,61.7743372 C118.727944,61.7743372 120.015366,62.1115735 120.894928,62.786056 C121.77449,63.4605385 122.214264,64.5725066 122.214264,66.1219935 L122.214264,74.6532435 L124.456451,75.2137904 L124.456451,76.7587122 L120.108795,76.895431 L119.520905,74.9403529 C118.919339,75.5419184 118.224359,76.0637231 117.435944,76.5057826 C116.647528,76.9478421 115.811274,77.1688685 114.927155,77.1688685 C113.605533,77.1688685 112.575596,76.8020102 111.837311,76.0682826 C111.099026,75.3345549 110.729889,74.3023387 110.729889,72.9716029 C110.729889,71.422116 111.285873,70.3124265 112.397858,69.6425013 C113.509842,68.9725761 115.100321,68.6376185 117.169342,68.6376185 L119.41153,68.6376185 L119.41153,66.395431 C119.41153,65.5751144 119.183667,64.9507717 118.727936,64.5223841 C118.272204,64.0939966 117.611404,63.879806 116.745514,63.879806 C116.244209,63.879806 115.783927,63.9117067 115.364655,63.9755091 C114.945382,64.0393115 114.614981,64.103113 114.373444,64.1669154 C114.131906,64.2307178 113.983795,64.271733 113.929108,64.2899622 L113.532623,66.395431 L111.714264,66.395431 L111.577545,62.895431 C111.723379,62.8407432 112.090238,62.7245334 112.678131,62.5467982 Z M114.482819,71.0165247 C113.88581,71.3902245 113.587311,71.9963383 113.587311,72.8348841 C113.587311,73.4729081 113.769601,73.9833197 114.134186,74.3661341 C114.498771,74.7489485 115.000068,74.9403529 115.638092,74.9403529 C116.257887,74.9403529 116.845772,74.7717348 117.401764,74.4344935 C117.957756,74.0972522 118.43171,73.7326725 118.823639,73.3407435 C119.215568,72.9488145 119.41153,72.7346239 119.41153,72.6981654 L119.41153,70.4559779 L117.456451,70.4559779 C116.071028,70.4559779 115.079827,70.642825 114.482819,71.0165247 Z" id="suffragia-copy-10" fill="#2A2A1F"></path>
            <ellipse id="Oval-2-Copy-3" fill="#A99B87" cx="69.0217816" cy="27.395431" rx="26.6727136" ry="27"></ellipse>
            <polygon id="Rectangle-4-Copy-3" fill="url(#linearGradient-1)" points="46.6606445 22.9077148 86.4699707 32.1623535 87.0463867 37.8137207 52.1560059 37.8137207"></polygon>
            <polygon id="Rectangle-5-Copy-3" fill="url(#linearGradient-2)" points="50.3098888 37.7637246 87.8293775 37.7637246 89.2821629 40.3348882 48.7614003 40.3348882"></polygon>
            <g id="enveloppe-illus-copy-9" transform="translate(40.413086, 7.061998)">
                <mask id="mask-4" fill="white">
                    <use xlink:href="#path-3"></use>
                </mask>
                <g id="Mask"></g>
                <g id="enveloppe-illus-arrondie" mask="url(#mask-4)">
                    <g transform="translate(25.966256, 20.631185) rotate(47.000000) translate(-25.966256, -20.631185) translate(8.856154, 8.940151)" id="Mask-Copy-+-Path-2-Copy-3-+-Path-2-Copy-5-+-Path-3-Copy-Mask">
                        <g>
                            <mask id="mask-6" fill="white">
                                <use xlink:href="#path-5"></use>
                            </mask>
                            <use id="Mask" fill="#D8D8D8" xlink:href="#path-5"></use>
                            <g id="Mask-Copy" mask="url(#mask-6)">
                                <use fill="#E6E5D6" xlink:href="#path-8"></use>
                                <use fill="url(#radialGradient-7)" xlink:href="#path-8"></use>
                            </g>
                            <g id="Path-2-Copy-3" mask="url(#mask-6)">
                                <use fill="black" fill-opacity="1" filter="url(#filter-11)" xlink:href="#path-10"></use>
                                <use fill="#E6E5D6" fill-rule="evenodd" xlink:href="#path-10"></use>
                                <use fill="url(#linearGradient-9)" fill-rule="evenodd" xlink:href="#path-10"></use>
                            </g>
                            <g id="Path-2-Copy-5" mask="url(#mask-6)">
                                <use fill="black" fill-opacity="1" filter="url(#filter-14)" xlink:href="#path-13"></use>
                                <use fill="#E6E5D6" fill-rule="evenodd" xlink:href="#path-13"></use>
                                <use fill="url(#linearGradient-12)" fill-rule="evenodd" xlink:href="#path-13"></use>
                            </g>
                            <g id="Path-3-Copy" mask="url(#mask-6)">
                                <use fill="black" fill-opacity="1" filter="url(#filter-17)" xlink:href="#path-16"></use>
                                <use fill="#E6E5D6" fill-rule="evenodd" xlink:href="#path-16"></use>
                                <use fill="url(#linearGradient-15)" fill-rule="evenodd" xlink:href="#path-16"></use>
                            </g>
                        </g>
                    </g>
                </g>
            </g>
        </g>
    </g>
</svg>