<?xml version="1.0" encoding="UTF-8"?>
<svg width="173px" height="57px" viewBox="0 0 173 57" version="1.1" xmlns="http://www.w3.org/2000/svg" xmlns:xlink="http://www.w3.org/1999/xlink">
    <!-- Generator: Sketch 44.1 (41455) - http://www.bohemiancoding.com/sketch -->
    <title>logo hor ocre</title>
    <desc>Created with Sketch.</desc>
    <defs>
        <linearGradient x1="50%" y1="6.91145913%" x2="50%" y2="98.2959981%" id="linearGradient-1">
            <stop stop-color="#3E3D2A" stop-opacity="0.5" offset="0%"></stop>
            <stop stop-color="#3E3D2A" stop-opacity="0" offset="100%"></stop>
        </linearGradient>
        <linearGradient x1="58.9445117%" y1="97.8874362%" x2="58.9445114%" y2="1.82756696%" id="linearGradient-2">
            <stop stop-color="#3E3D2A" stop-opacity="0.8" offset="0%"></stop>
            <stop stop-color="#3E3D2A" stop-opacity="0.2" offset="100%"></stop>
        </linearGradient>
        <rect id="path-3" x="0" y="0" width="44.7999973" height="26.6183103"></rect>
        <rect id="path-5" x="0" y="0" width="27" height="19" rx="1"></rect>
        <radialGradient cx="50%" cy="83.239294%" fx="50%" fy="83.239294%" r="65.5092593%" gradientTransform="translate(0.500000,0.832393),scale(0.704168,1.000000),rotate(-90.000000),scale(1.000000,1.632422),translate(-0.500000,-0.832393)" id="radialGradient-7">
            <stop stop-color="#373624" offset="0%"></stop>
            <stop stop-color="#373624" stop-opacity="0" offset="100%"></stop>
        </radialGradient>
        <rect id="path-8" x="0.0145090637" y="0" width="26.9821889" height="19"></rect>
        <linearGradient x1="50.2771121%" y1="14.4826761%" x2="60.6221384%" y2="43.9308713%" id="linearGradient-9">
            <stop stop-color="#FFFFFF" stop-opacity="0.5" offset="0%"></stop>
            <stop stop-color="#FFFFFF" stop-opacity="0" offset="100%"></stop>
        </linearGradient>
        <path d="M26.996698,1.24247685 L15.998869,8.67190832 C15.3679473,9.14316492 15.2125309,9.90694324 15.5326198,10.9632433 L26.996698,18.9573929 L26.996698,1.24247685 Z" id="path-10"></path>
        <filter x="-17.2%" y="-16.9%" width="134.4%" height="122.6%" filterUnits="objectBoundingBox" id="filter-11">
            <feOffset dx="0" dy="-1" in="SourceAlpha" result="shadowOffsetOuter1"></feOffset>
            <feGaussianBlur stdDeviation="0.5" in="shadowOffsetOuter1" result="shadowBlurOuter1"></feGaussianBlur>
            <feColorMatrix values="0 0 0 0 0.215686275   0 0 0 0 0.211764706   0 0 0 0 0.141176471  0 0 0 0.3 0" type="matrix" in="shadowBlurOuter1"></feColorMatrix>
        </filter>
        <linearGradient x1="49.7489705%" y1="14.2694257%" x2="36.4708293%" y2="44.7144852%" id="linearGradient-12">
            <stop stop-color="#FFFFFF" stop-opacity="0.5" offset="0%"></stop>
            <stop stop-color="#FFFFFF" stop-opacity="0" offset="100%"></stop>
        </linearGradient>
        <path d="M0.0145090637,1.24247685 C7.34639505,6.19543116 11.012338,8.67190832 11.012338,8.67190832 C11.6432597,9.14316492 11.7986761,9.90694324 11.4785872,10.9632433 L0.0145090637,18.9573929 L0.0145090637,1.24247685 Z" id="path-13"></path>
        <filter x="-17.2%" y="-16.9%" width="134.4%" height="122.6%" filterUnits="objectBoundingBox" id="filter-14">
            <feOffset dx="0" dy="-1" in="SourceAlpha" result="shadowOffsetOuter1"></feOffset>
            <feGaussianBlur stdDeviation="0.5" in="shadowOffsetOuter1" result="shadowBlurOuter1"></feGaussianBlur>
            <feColorMatrix values="0 0 0 0 0.215686275   0 0 0 0 0.211764706   0 0 0 0 0.141176471  0 0 0 0.3 0" type="matrix" in="shadowBlurOuter1"></feColorMatrix>
        </filter>
        <linearGradient x1="50%" y1="0%" x2="50%" y2="100%" id="linearGradient-15">
            <stop stop-color="#FFFFFF" offset="0%"></stop>
            <stop stop-color="#FFFFFF" stop-opacity="0" offset="100%"></stop>
        </linearGradient>
        <path d="M0,18.9821325 C7.37694165,13.4822712 11.3886422,10.5210519 12.0351016,10.0984746 C13.0047907,9.46460865 13.8833395,9.37673159 14.9771895,10.0984746 C15.7064228,10.5796366 19.6979162,13.5408559 26.9516698,18.9821325 L0,18.9821325 Z" id="path-16"></path>
        <filter x="-7.4%" y="-31.9%" width="114.8%" height="142.6%" filterUnits="objectBoundingBox" id="filter-17">
            <feOffset dx="0" dy="-1" in="SourceAlpha" result="shadowOffsetOuter1"></feOffset>
            <feGaussianBlur stdDeviation="0.5" in="shadowOffsetOuter1" result="shadowBlurOuter1"></feGaussianBlur>
            <feColorMatrix values="0 0 0 0 0.215686275   0 0 0 0 0.211764706   0 0 0 0 0.141176471  0 0 0 0.1 0" type="matrix" in="shadowBlurOuter1"></feColorMatrix>
        </filter>
    </defs>
    <g id="Symbols" stroke="none" stroke-width="1" fill="none" fill-rule="evenodd">
        <g id="logo-hor-ocre">
            <path d="M4.3046875,35.8176526 C4.76953357,35.8951269 5.32096035,35.9338635 5.95898437,35.9338635 C8.06446365,35.9338635 9.12174475,35.1955896 9.13085938,33.7190197 C9.13085938,33.1174542 8.87337497,32.6640083 8.35839844,32.3586682 C7.8434219,32.0533281 7.04362521,31.7320423 5.95898437,31.394801 C4.96548982,31.075789 4.16113589,30.7681749 3.54589844,30.4719494 C2.93066099,30.175724 2.40429906,29.7473429 1.96679688,29.1867932 C1.52929469,28.6262435 1.31054688,27.8993628 1.31054688,27.0061291 C1.31054688,25.6024763 1.78677909,24.5224089 2.73925781,23.7658947 C3.69173653,23.0093805 4.9244716,22.6311291 6.4375,22.6311291 C7.09375328,22.6311291 7.77506157,22.6926519 8.48144531,22.8156994 C9.18782905,22.9387469 9.78938554,23.0686284 10.2861328,23.2053479 C10.7828801,23.3420673 11.0950514,23.4332122 11.2226562,23.4787854 L11.140625,27.2522229 L9.32226562,27.2522229 L8.87109375,25.0647229 C8.81640598,25.0464936 8.69563896,25.0100356 8.50878906,24.9553479 C8.32193917,24.9006601 8.05989752,24.8505304 7.72265625,24.8049572 C7.38541498,24.7593841 7.0117208,24.7365979 6.6015625,24.7365979 C4.94270004,24.7365979 4.11328125,25.3609406 4.11328125,26.6096447 C4.11328125,27.2112103 4.37988015,27.6737707 4.91308594,27.9973401 C5.44629173,28.3209094 6.25064566,28.6604242 7.32617187,29.0158947 C8.29232254,29.353136 9.08528336,29.6653074 9.70507812,29.9524182 C10.3248729,30.239529 10.8489562,30.6542384 11.2773437,31.1965588 C11.7057313,31.7388792 11.9199219,32.4201875 11.9199219,33.2405041 C11.9199219,34.789991 11.3365944,35.974875 10.1699219,36.7951916 C9.00324937,37.6155082 7.53581613,38.0256604 5.76757812,38.0256604 C5.0019493,38.0256604 4.29101891,37.9800879 3.63476562,37.8889416 C2.97851234,37.7977953 2.45442904,37.7066504 2.0625,37.6155041 C1.67057096,37.5243578 1.42903691,37.4559991 1.33789062,37.410426 L1.33789062,33.2678479 L3.30664062,33.2678479 L3.60742187,35.6740979 C3.60742187,35.6923271 3.83984143,35.7401782 4.3046875,35.8176526 Z M30.6777344,37.6155041 L26.0566406,37.7522229 L25.7832031,35.7971447 C25.2272108,36.2984493 24.4707079,36.7951892 23.5136719,37.2873791 C22.5566358,37.7795691 21.5859424,38.0256604 20.6015625,38.0256604 C19.1067634,38.0256604 17.9856808,37.5881647 17.2382812,36.7131604 C16.4908817,35.838156 16.1171875,34.6076996 16.1171875,33.0217541 L16.1171875,25.1467541 L13.7382812,24.5862072 L13.7382812,23.0549572 L18.9199219,22.9182385 L18.9199219,32.7346447 C18.9199219,33.7281393 19.1158835,34.4618559 19.5078125,34.9358166 C19.8997415,35.4097773 20.5423132,35.6467541 21.4355469,35.6467541 C22.1464879,35.6467541 22.8004527,35.4849719 23.3974609,35.1614026 C23.9944691,34.8378332 24.4934876,34.4800894 24.8945312,34.0881604 C25.2955749,33.6962313 25.4960938,33.4820408 25.4960938,33.4455822 L25.4960938,25.1467541 L23.1171875,24.5862072 L23.1171875,23.0549572 L28.2988281,22.9182385 L28.2988281,35.5100354 L30.6777344,36.0705822 L30.6777344,37.6155041 Z M36.4951172,17.3742932 C37.3929081,16.4035852 38.6712157,15.9182385 40.3300781,15.9182385 C41.1139362,15.9182385 41.8203094,15.9911544 42.4492187,16.1369885 C43.0781281,16.2828226 43.5839825,16.4400475 43.9667969,16.6086682 C44.3496113,16.7772888 44.5410156,16.8707124 44.5410156,16.8889416 L44.5410156,20.3889416 L42.5722656,20.3889416 L42.1484375,18.1467541 C42.0755205,18.1285249 41.8818375,18.1011814 41.5673828,18.0647229 C41.2529281,18.0282644 40.8906271,18.0100354 40.4804687,18.0100354 C39.5507766,18.0100354 38.8968118,18.2492908 38.5185547,18.7278088 C38.1402976,19.2063268 37.9511719,19.9013069 37.9511719,20.8127697 L37.9511719,23.0549572 L41.65625,23.0549572 L41.5605469,25.1467541 L37.9511719,25.1467541 L37.9511719,35.5100354 L40.7539062,36.207301 L40.7539062,37.7522229 L32.7695312,37.7522229 L32.7695312,36.207301 L35.1484375,35.5100354 L35.1484375,25.1467541 L32.6328125,25.1467541 L32.6328125,23.3283947 L35.1484375,23.0549572 L35.1484375,21.3733166 C35.1484375,19.6779956 35.5973262,18.3450012 36.4951172,17.3742932 Z M48.1025391,17.3742932 C49.00033,16.4035852 50.2786375,15.9182385 51.9375,15.9182385 C52.7213581,15.9182385 53.4277312,15.9911544 54.0566406,16.1369885 C54.68555,16.2828226 55.1914043,16.4400475 55.5742188,16.6086682 C55.9570332,16.7772888 56.1484375,16.8707124 56.1484375,16.8889416 L56.1484375,20.3889416 L54.1796875,20.3889416 L53.7558594,18.1467541 C53.6829423,18.1285249 53.4892594,18.1011814 53.1748047,18.0647229 C52.86035,18.0282644 52.4980489,18.0100354 52.0878906,18.0100354 C51.1581985,18.0100354 50.5042337,18.2492908 50.1259766,18.7278088 C49.7477195,19.2063268 49.5585938,19.9013069 49.5585938,20.8127697 L49.5585938,23.0549572 L53.2636719,23.0549572 L53.1679688,25.1467541 L49.5585938,25.1467541 L49.5585938,35.5100354 L52.3613281,36.207301 L52.3613281,37.7522229 L44.3769531,37.7522229 L44.3769531,36.207301 L46.7558594,35.5100354 L46.7558594,25.1467541 L44.2402344,25.1467541 L44.2402344,23.3283947 L46.7558594,23.0549572 L46.7558594,21.3733166 C46.7558594,19.6779956 47.2047481,18.3450012 48.1025391,17.3742932 Z M62.4580078,23.3625744 C63.1826208,22.8749418 63.9687458,22.6311291 64.8164062,22.6311291 C65.2265646,22.6311291 65.6162091,22.6630298 65.9853516,22.7268322 C66.354494,22.7906346 66.6575509,22.8567147 66.8945312,22.9250744 C67.1315116,22.9934342 67.2773435,23.036728 67.3320312,23.0549572 L67.1953125,27.1155041 L65.3632812,27.1155041 L64.953125,25.0100354 C64.0234329,25.0100354 63.2213575,25.2333404 62.546875,25.6799572 C61.8723925,26.1265741 61.3209657,26.6324284 60.8925781,27.1975354 L60.8925781,35.5100354 L63.6953125,36.207301 L63.6953125,37.7522229 L55.7109375,37.7522229 L55.7109375,36.207301 L58.0898437,35.5100354 L58.0898437,25.1467541 L55.7109375,24.5862072 L55.7109375,23.0549572 L60.3320312,22.9182385 L60.578125,24.9553479 C61.1067735,24.3811263 61.7333948,23.8502071 62.4580078,23.3625744 Z M70.8115234,23.4035901 C71.399417,23.2258548 72.094397,23.0526794 72.8964844,22.8840588 C73.6985717,22.7154382 74.4550746,22.6311291 75.1660156,22.6311291 C76.8613366,22.6311291 78.1487586,22.9683653 79.0283203,23.6428479 C79.907882,24.3173304 80.3476562,25.4292985 80.3476562,26.9787854 L80.3476562,35.5100354 L82.5898438,36.0705822 L82.5898438,37.6155041 L78.2421875,37.7522229 L77.6542969,35.7971447 C77.0527314,36.3987103 76.3577513,36.9205149 75.5693359,37.3625744 C74.7809205,37.8046339 73.9446659,38.0256604 73.0605469,38.0256604 C71.7389257,38.0256604 70.7089881,37.6588021 69.9707031,36.9250744 C69.2324182,36.1913468 68.8632812,35.1591306 68.8632812,33.8283947 C68.8632812,32.2789078 69.4192653,31.1692184 70.53125,30.4992932 C71.6432347,29.829368 73.2337136,29.4944104 75.3027344,29.4944104 L77.5449219,29.4944104 L77.5449219,27.2522229 C77.5449219,26.4319063 77.3170596,25.8075636 76.8613281,25.379176 C76.4055967,24.9507884 75.744796,24.7365979 74.8789062,24.7365979 C74.3776017,24.7365979 73.9173198,24.7684986 73.4980469,24.832301 C73.0787739,24.8961034 72.7483736,24.9599048 72.5068359,25.0237072 C72.2652983,25.0875096 72.1171878,25.1285249 72.0625,25.1467541 L71.6660156,27.2522229 L69.8476562,27.2522229 L69.7109375,23.7522229 C69.8567716,23.6975351 70.2236299,23.5813253 70.8115234,23.4035901 Z M72.6162109,31.8733166 C72.0192027,32.2470164 71.7207031,32.8531301 71.7207031,33.691676 C71.7207031,34.3297 71.902993,34.8401116 72.2675781,35.222926 C72.6321633,35.6057404 73.1334604,35.7971447 73.7714844,35.7971447 C74.3912791,35.7971447 74.9791639,35.6285266 75.5351562,35.2912854 C76.0911486,34.9540441 76.5651022,34.5894644 76.9570312,34.1975354 C77.3489603,33.8056063 77.5449219,33.5914158 77.5449219,33.5549572 L77.5449219,31.3127697 L75.5898438,31.3127697 C74.2044202,31.3127697 73.2132191,31.4996168 72.6162109,31.8733166 Z M96.6240234,25.3996838 C96.7470709,25.6229922 96.8655593,25.9465567 96.9794922,26.3703869 C97.093425,26.7942172 97.1503906,27.2750066 97.1503906,27.8127697 C97.1503906,29.6448102 96.5989638,31.011984 95.4960938,31.9143322 C94.3932237,32.8166805 92.8893324,33.2678479 90.984375,33.2678479 C90.4648412,33.2678479 90.0091165,33.2359471 89.6171875,33.1721447 C89.2252585,33.1083423 88.9791672,33.0582126 88.8789062,33.0217541 L88.7421875,35.6467541 L93.0898438,35.6467541 C94.9218842,35.6467541 96.3118442,35.9931048 97.2597656,36.6858166 C98.207687,37.3785284 98.6816406,38.3856798 98.6816406,39.707301 C98.6816406,41.2932464 98.0664124,42.5305387 96.8359375,43.4192151 C95.6054626,44.3078914 93.7962359,44.7522229 91.4082031,44.7522229 C89.3027238,44.7522229 87.6552794,44.4400515 86.4658203,43.8156994 C85.2763612,43.1913474 84.6816406,42.1500166 84.6816406,40.691676 C84.6816406,39.9442764 84.9003884,39.3085406 85.3378906,38.7844494 C85.7753928,38.2603583 86.2652968,37.8547634 86.8076172,37.5676526 C87.3499376,37.2805417 87.6210938,37.1552175 87.6210938,37.191676 C87.6210938,37.2099053 87.468426,37.1734473 87.1630859,37.082301 C86.8577459,36.9911547 86.5774752,36.8270938 86.3222656,36.5901135 C86.067056,36.3531331 85.9394531,36.0204542 85.9394531,35.5920666 C85.9394531,35.3095131 86.0465484,34.9358189 86.2607422,34.4709729 C86.474936,34.0061268 86.7005196,33.5777457 86.9375,33.1858166 C87.1744804,32.7938876 87.3294267,32.543239 87.4023438,32.4338635 C87.4023438,32.4885513 87.2018249,32.3472766 86.8007812,32.0100354 C86.3997376,31.6727941 86.0397151,31.1828901 85.7207031,30.5403088 C85.4016911,29.8977275 85.2421875,29.0797018 85.2421875,28.0862072 C85.2421875,26.3088546 85.7981715,24.9553525 86.9101562,24.0256604 C88.022141,23.0959682 89.5214749,22.6311291 91.4082031,22.6311291 C91.9459662,22.6311291 92.4199198,22.6675871 92.8300781,22.7405041 C93.2402364,22.8134212 93.556965,22.893173 93.7802734,22.9797619 C94.0035818,23.0663509 94.1425779,23.1278737 94.1972656,23.1643322 L99.1054688,23.0549572 L99.1054688,24.5862072 L96.3847656,24.9826916 C96.4212241,25.0373794 96.5009759,25.1763754 96.6240234,25.3996838 Z M88.8310547,25.4133557 C88.3069635,25.9647907 88.0449219,26.8101599 88.0449219,27.9494885 C88.0449219,28.9794416 88.3069635,29.7974672 88.8310547,30.4035901 C89.3551458,31.0097129 90.1184846,31.3127697 91.1210938,31.3127697 C92.2421931,31.3127697 93.0602188,31.0461708 93.5751953,30.5129651 C94.0901718,29.9797593 94.3476562,29.1252756 94.3476562,27.9494885 C94.3476562,26.8648477 94.0901718,26.0331502 93.5751953,25.4543713 C93.0602188,24.8755924 92.2877656,24.5862072 91.2578125,24.5862072 C90.164057,24.5862072 89.3551458,24.8619206 88.8310547,25.4133557 Z M88.796875,38.0461682 C88.4596337,38.2785912 88.1565769,38.5816481 87.8876953,38.9553479 C87.6188138,39.3290477 87.484375,39.7665433 87.484375,40.2678479 C87.484375,41.1793108 87.8443974,41.8036535 88.5644531,42.1408947 C89.2845088,42.478136 90.3691334,42.6467541 91.8183594,42.6467541 C93.2402415,42.6467541 94.2975226,42.4280063 94.9902344,41.9905041 C95.6829462,41.5530019 96.0292969,40.887644 96.0292969,39.9944104 C96.0292969,39.1376353 95.7239614,38.5497505 95.1132812,38.2307385 C94.5026011,37.9117265 93.5911519,37.7522229 92.3789062,37.7522229 L89.3027344,37.7522229 C89.3027344,37.7157644 89.1341163,37.8137451 88.796875,38.0461682 Z M103.275391,16.847926 C103.630861,16.5015701 104.059242,16.3283947 104.560547,16.3283947 C105.772793,16.3283947 106.378906,16.9846382 106.378906,18.2971447 C106.378906,18.8987103 106.192059,19.3749425 105.818359,19.7258557 C105.44466,20.0767689 105.025393,20.2522229 104.560547,20.2522229 C104.004555,20.2522229 103.562502,20.0790475 103.234375,19.7326916 C102.906248,19.3863357 102.742188,18.9078249 102.742188,18.2971447 C102.742188,17.67735 102.91992,17.1942819 103.275391,16.847926 Z M108.197266,37.7522229 L100.923828,37.7522229 L100.923828,36.207301 L103.302734,35.5100354 L103.302734,25.1467541 L100.923828,24.5862072 L100.923828,23.0549572 L106.105469,22.9182385 L106.105469,35.5100354 L108.197266,36.207301 L108.197266,37.7522229 Z M112.387695,23.4035901 C112.975589,23.2258548 113.670569,23.0526794 114.472656,22.8840588 C115.274744,22.7154382 116.031246,22.6311291 116.742187,22.6311291 C118.437508,22.6311291 119.72493,22.9683653 120.604492,23.6428479 C121.484054,24.3173304 121.923828,25.4292985 121.923828,26.9787854 L121.923828,35.5100354 L124.166016,36.0705822 L124.166016,37.6155041 L119.818359,37.7522229 L119.230469,35.7971447 C118.628903,36.3987103 117.933923,36.9205149 117.145508,37.3625744 C116.357092,37.8046339 115.520838,38.0256604 114.636719,38.0256604 C113.315098,38.0256604 112.28516,37.6588021 111.546875,36.9250744 C110.80859,36.1913468 110.439453,35.1591306 110.439453,33.8283947 C110.439453,32.2789078 110.995437,31.1692184 112.107422,30.4992932 C113.219407,29.829368 114.809885,29.4944104 116.878906,29.4944104 L119.121094,29.4944104 L119.121094,27.2522229 C119.121094,26.4319063 118.893231,25.8075636 118.4375,25.379176 C117.981769,24.9507884 117.320968,24.7365979 116.455078,24.7365979 C115.953774,24.7365979 115.493492,24.7684986 115.074219,24.832301 C114.654946,24.8961034 114.324545,24.9599048 114.083008,25.0237072 C113.84147,25.0875096 113.69336,25.1285249 113.638672,25.1467541 L113.242187,27.2522229 L111.423828,27.2522229 L111.287109,23.7522229 C111.432943,23.6975351 111.799802,23.5813253 112.387695,23.4035901 Z M114.192383,31.8733166 C113.595375,32.2470164 113.296875,32.8531301 113.296875,33.691676 C113.296875,34.3297 113.479165,34.8401116 113.84375,35.222926 C114.208335,35.6057404 114.709632,35.7971447 115.347656,35.7971447 C115.967451,35.7971447 116.555336,35.6285266 117.111328,35.2912854 C117.66732,34.9540441 118.141274,34.5894644 118.533203,34.1975354 C118.925132,33.8056063 119.121094,33.5914158 119.121094,33.5549572 L119.121094,31.3127697 L117.166016,31.3127697 C115.780592,31.3127697 114.789391,31.4996168 114.192383,31.8733166 Z" id="suffragia-copy-6" fill="#2A2A1F"></path>
            <ellipse id="Oval-2-Copy-3" fill="#A99B87" cx="148.900042" cy="27.395431" rx="21.3381696" ry="21.5999987"></ellipse>
            <polygon id="Rectangle-4-Copy-3" fill="url(#linearGradient-1)" points="131.011134 23.8052583 162.858593 31.2089688 163.319726 35.7300623 135.407423 35.7300623"></polygon>
            <polygon id="Rectangle-5-Copy-3" fill="url(#linearGradient-2)" points="133.930529 35.6900654 163.946118 35.6900654 165.108346 37.7469961 132.691738 37.7469961"></polygon>
            <g id="enveloppe-illus-copy-9" transform="translate(126.013087, 11.128686)">
                <mask id="mask-4" fill="white">
                    <use xlink:href="#path-3"></use>
                </mask>
                <g id="Mask"></g>
                <g id="enveloppe-illus-arrondie" mask="url(#mask-4)">
                    <g transform="translate(20.773004, 16.504947) rotate(47.000000) translate(-20.773004, -16.504947) translate(7.084923, 7.152120)" id="Mask-Copy-+-Path-2-Copy-3-+-Path-2-Copy-5-+-Path-3-Copy-Mask">
                        <g>
                            <mask id="mask-6" fill="white">
                                <use xlink:href="#path-5"></use>
                            </mask>
                            <use id="Mask" fill="#D8D8D8" xlink:href="#path-5"></use>
                            <g id="Mask-Copy" mask="url(#mask-6)">
                                <use fill="#E6E5D6" xlink:href="#path-8"></use>
                                <use fill="url(#radialGradient-7)" xlink:href="#path-8"></use>
                            </g>
                            <g id="Path-2-Copy-3" mask="url(#mask-6)">
                                <use fill="black" fill-opacity="1" filter="url(#filter-11)" xlink:href="#path-10"></use>
                                <use fill="#E6E5D6" fill-rule="evenodd" xlink:href="#path-10"></use>
                                <use fill="url(#linearGradient-9)" fill-rule="evenodd" xlink:href="#path-10"></use>
                            </g>
                            <g id="Path-2-Copy-5" mask="url(#mask-6)">
                                <use fill="black" fill-opacity="1" filter="url(#filter-14)" xlink:href="#path-13"></use>
                                <use fill="#E6E5D6" fill-rule="evenodd" xlink:href="#path-13"></use>
                                <use fill="url(#linearGradient-12)" fill-rule="evenodd" xlink:href="#path-13"></use>
                            </g>
                            <g id="Path-3-Copy" mask="url(#mask-6)">
                                <use fill="black" fill-opacity="1" filter="url(#filter-17)" xlink:href="#path-16"></use>
                                <use fill="#E6E5D6" fill-rule="evenodd" xlink:href="#path-16"></use>
                                <use fill="url(#linearGradient-15)" fill-rule="evenodd" xlink:href="#path-16"></use>
                            </g>
                        </g>
                    </g>
                </g>
            </g>
        </g>
    </g>
</svg>