<?xml version="1.0" encoding="UTF-8"?>
<svg width="30px" height="30px" viewBox="0 0 30 30" version="1.1" xmlns="http://www.w3.org/2000/svg" xmlns:xlink="http://www.w3.org/1999/xlink">
    <!-- Generator: Sketch 44.1 (41455) - http://www.bohemiancoding.com/sketch -->
    <title>icon/burger</title>
    <desc>Created with Sketch.</desc>
    <defs></defs>
    <g id="Symbols" stroke="none" stroke-width="1" fill="none" fill-rule="evenodd">
        <g id="icon/burger">
            <circle id="Oval" fill="#E2E1D0" cx="15" cy="15" r="15"></circle>
            <g id="burger2" transform="translate(8.000000, 9.000000)" fill-rule="nonzero" fill="#3E3D2A">
                <path d="M13,10 L1,10 C0.44771525,10 0,10.4477153 0,11 C0,11.5522847 0.44771525,12 1,12 L13,12 C13.5522847,12 14,11.5522847 14,11 C14,10.4477153 13.5522847,10 13,10 Z" id="Line"></path>
                <path d="M13,5 L1,5 C0.44771525,5 0,5.44771525 0,6 C0,6.55228475 0.44771525,7 1,7 L13,7 C13.5522847,7 14,6.55228475 14,6 C14,5.44771525 13.5522847,5 13,5 Z" id="Line-Copy"></path>
                <path d="M13,0 L1,0 C0.44771525,0 0,0.44771525 0,1 C0,1.55228475 0.44771525,2 1,2 L13,2 C13.5522847,2 14,1.55228475 14,1 C14,0.44771525 13.5522847,0 13,0 Z" id="Line-Copy-2"></path>
            </g>
        </g>
    </g>
</svg>