<?xml version="1.0" encoding="UTF-8"?>
<svg width="30px" height="30px" viewBox="0 0 30 30" version="1.1" xmlns="http://www.w3.org/2000/svg" xmlns:xlink="http://www.w3.org/1999/xlink">
    <!-- Generator: Sketch 44.1 (41455) - http://www.bohemiancoding.com/sketch -->
    <title>icon/disconected</title>
    <desc>Created with Sketch.</desc>
    <defs></defs>
    <g id="Symbols" stroke="none" stroke-width="1" fill="none" fill-rule="evenodd">
        <g id="icon/disconected">
            <circle id="Oval" fill="#F65C3B" cx="15" cy="15" r="15"></circle>
            <g id="disconnected2" transform="translate(3.000000, 3.000000)" fill-rule="nonzero" fill="#E2E1D0">
                <path d="M12,3.5 C7.30557963,3.5 3.5,7.30557963 3.5,12 C3.5,16.6944204 7.30557963,20.5 12,20.5 C16.6944204,20.5 20.5,16.6944204 20.5,12 C20.5,10.8505939 20.2711925,9.73140777 19.8327834,8.69386795 C19.61782,8.18513504 19.0311482,7.94698784 18.5224153,8.16195128 C18.0136824,8.37691471 17.7755352,8.96358651 17.9904986,9.47231941 C18.3252851,10.2646258 18.5,11.119224 18.5,12 C18.5,15.5898509 15.5898509,18.5 12,18.5 C8.41014913,18.5 5.5,15.5898509 5.5,12 C5.5,8.41014913 8.41014913,5.5 12,5.5 C12.5522847,5.5 13,5.05228475 13,4.5 C13,3.94771525 12.5522847,3.5 12,3.5 Z" id="Oval-2" transform="translate(12.000000, 12.000000) rotate(-33.000000) translate(-12.000000, -12.000000) "></path>
                <path d="M11,3.66333008 L11,11.1633301 C11,11.7156148 11.4477153,12.1633301 12,12.1633301 C12.5522847,12.1633301 13,11.7156148 13,11.1633301 L13,3.66333008 C13,3.11104533 12.5522847,2.66333008 12,2.66333008 C11.4477153,2.66333008 11,3.11104533 11,3.66333008 Z" id="Line"></path>
            </g>
        </g>
    </g>
</svg>