<?xml version="1.0" encoding="UTF-8"?>
<svg width="30px" height="30px" viewBox="0 0 30 30" version="1.1" xmlns="http://www.w3.org/2000/svg" xmlns:xlink="http://www.w3.org/1999/xlink">
    <!-- Generator: Sketch 44.1 (41455) - http://www.bohemiancoding.com/sketch -->
    <title>icon/hamburger</title>
    <desc>Created with Sketch.</desc>
    <defs></defs>
    <g id="Symbols" stroke="none" stroke-width="1" fill="none" fill-rule="evenodd">
        <g id="icon/hamburger">
            <circle id="Oval" fill="#E2E1D0" cx="15" cy="15" r="15"></circle>
            <path d="M21,19 L9,19 C8.44771525,19 8,19.4477153 8,20 C8,20.5522847 8.44771525,21 9,21 L21,21 C21.5522847,21 22,20.5522847 22,20 C22,19.4477153 21.5522847,19 21,19 Z" id="Line" fill="#3E3D2A" fill-rule="nonzero"></path>
            <path d="M21,14 L9,14 C8.44771525,14 8,14.4477153 8,15 C8,15.5522847 8.44771525,16 9,16 L21,16 C21.5522847,16 22,15.5522847 22,15 C22,14.4477153 21.5522847,14 21,14 Z" id="Line-Copy" fill="#3E3D2A" fill-rule="nonzero"></path>
            <path d="M21,9 L9,9 C8.44771525,9 8,9.44771525 8,10 C8,10.5522847 8.44771525,11 9,11 L21,11 C21.5522847,11 22,10.5522847 22,10 C22,9.44771525 21.5522847,9 21,9 Z" id="Line-Copy-2" fill="#3E3D2A" fill-rule="nonzero"></path>
        </g>
    </g>
</svg>