<?xml version="1.0" encoding="UTF-8"?>
<svg width="342px" height="258px" viewBox="0 0 342 258" version="1.1" xmlns="http://www.w3.org/2000/svg" xmlns:xlink="http://www.w3.org/1999/xlink">
    <defs>
        <linearGradient x1="50%" y1="6.91145913%" x2="50%" y2="98.2959981%" id="linearGradient-1">
            <stop stop-color="#3E3D2A" stop-opacity="0.5" offset="0%"></stop>
            <stop stop-color="#3E3D2A" stop-opacity="0" offset="100%"></stop>
        </linearGradient>
        <linearGradient x1="58.9445117%" y1="97.8874362%" x2="58.9445114%" y2="1.82756696%" id="linearGradient-2">
            <stop stop-color="#3E3D2A" stop-opacity="0.8" offset="0%"></stop>
            <stop stop-color="#3E3D2A" stop-opacity="0.2" offset="100%"></stop>
        </linearGradient>
        <rect id="path-3" x="0" y="0" width="169.909091" height="100.423631"></rect>
        <rect id="path-5" x="0" y="0" width="104" height="71" rx="1"></rect>
        <radialGradient cx="50%" cy="83.239294%" fx="50%" fy="83.239294%" r="65.5092593%" gradientTransform="translate(0.500000,0.832393),scale(0.683143,1.000000),rotate(-90.000000),scale(1.000000,1.632422),translate(-0.500000,-0.832393)" id="radialGradient-7">
            <stop stop-color="#373624" offset="0%"></stop>
            <stop stop-color="#373624" stop-opacity="0" offset="100%"></stop>
        </radialGradient>
        <rect id="path-8" x="0.0558867639" y="0" width="103.931394" height="71"></rect>
        <linearGradient x1="50.2771121%" y1="14.4826761%" x2="60.6221384%" y2="43.9308713%" id="linearGradient-9">
            <stop stop-color="#FFFFFF" stop-opacity="0.5" offset="0%"></stop>
            <stop stop-color="#FFFFFF" stop-opacity="0" offset="100%"></stop>
        </linearGradient>
        <path d="M103.987281,4.64293981 L61.6252731,32.4055521 C59.1950564,34.1665637 58.5964154,37.0206826 59.8293502,40.9679091 L103.987281,70.8407841 L103.987281,4.64293981 Z" id="path-10"></path>
        <filter x="-4.5%" y="-4.5%" width="108.9%" height="106.0%" filterUnits="objectBoundingBox" id="filter-11">
            <feOffset dx="0" dy="-1" in="SourceAlpha" result="shadowOffsetOuter1"></feOffset>
            <feGaussianBlur stdDeviation="0.5" in="shadowOffsetOuter1" result="shadowBlurOuter1"></feGaussianBlur>
            <feColorMatrix values="0 0 0 0 0.215686275   0 0 0 0 0.211764706   0 0 0 0 0.141176471  0 0 0 0.3 0" type="matrix" in="shadowBlurOuter1"></feColorMatrix>
        </filter>
        <linearGradient x1="49.7489705%" y1="14.2694257%" x2="36.4708293%" y2="44.7144852%" id="linearGradient-12">
            <stop stop-color="#FFFFFF" stop-opacity="0.5" offset="0%"></stop>
            <stop stop-color="#FFFFFF" stop-opacity="0" offset="100%"></stop>
        </linearGradient>
        <path d="M0.0558867639,4.64293981 C28.2972254,23.151348 42.4178947,32.4055521 42.4178947,32.4055521 C44.8481114,34.1665637 45.4467524,37.0206826 44.2138175,40.9679091 L0.0558867639,70.8407841 L0.0558867639,4.64293981 Z" id="path-13"></path>
        <filter x="-4.5%" y="-4.5%" width="108.9%" height="106.0%" filterUnits="objectBoundingBox" id="filter-14">
            <feOffset dx="0" dy="-1" in="SourceAlpha" result="shadowOffsetOuter1"></feOffset>
            <feGaussianBlur stdDeviation="0.5" in="shadowOffsetOuter1" result="shadowBlurOuter1"></feGaussianBlur>
            <feColorMatrix values="0 0 0 0 0.215686275   0 0 0 0 0.211764706   0 0 0 0 0.141176471  0 0 0 0.3 0" type="matrix" in="shadowBlurOuter1"></feColorMatrix>
        </filter>
        <linearGradient x1="50%" y1="0%" x2="50%" y2="100%" id="linearGradient-15">
            <stop stop-color="#FFFFFF" offset="0%"></stop>
            <stop stop-color="#FFFFFF" stop-opacity="0" offset="100%"></stop>
        </linearGradient>
        <path d="M0,70.9332321 C28.4148864,50.3811186 43.8673624,39.3155096 46.3574282,37.736405 C50.092527,35.3677481 53.4765669,35.0393654 57.689915,37.736405 C60.4988137,39.5344314 75.8734551,50.6000404 103.813839,70.9332321 L0,70.9332321 Z" id="path-16"></path>
        <filter x="-1.9%" y="-8.5%" width="103.9%" height="111.4%" filterUnits="objectBoundingBox" id="filter-17">
            <feOffset dx="0" dy="-1" in="SourceAlpha" result="shadowOffsetOuter1"></feOffset>
            <feGaussianBlur stdDeviation="0.5" in="shadowOffsetOuter1" result="shadowBlurOuter1"></feGaussianBlur>
            <feColorMatrix values="0 0 0 0 0.215686275   0 0 0 0 0.211764706   0 0 0 0 0.141176471  0 0 0 0.1 0" type="matrix" in="shadowBlurOuter1"></feColorMatrix>
        </filter>
    </defs>
    <g id="pages" stroke="none" stroke-width="1" fill="none" fill-rule="evenodd">
        <g id="Desktop-" transform="translate(-548.000000, -138.000000)">
            <g id="logo-vert-orange" transform="translate(545.000000, 137.598249)">
                <path d="M11.9574653,233.129903 C13.2487044,233.344754 14.7804454,233.452179 16.5527344,233.452179 C22.4012879,233.452179 25.3381799,231.404801 25.3634983,227.309983 C25.3634983,225.641724 24.6482638,224.38423 23.2177734,223.537462 C21.7872831,222.690694 19.5656256,221.799705 16.5527344,220.864469 C13.7930273,219.979786 11.5587108,219.126712 9.84971788,218.305221 C8.14072496,217.48373 6.67860851,216.295745 5.46332465,214.741231 C4.2480408,213.186717 3.64040799,211.170934 3.64040799,208.693822 C3.64040799,204.801218 4.96327525,201.80598 7.60904948,199.708018 C10.2548237,197.610056 13.6790878,196.561091 17.8819444,196.561091 C19.7048702,196.561091 21.5973933,196.731705 23.5595703,197.07294 C25.5217474,197.414175 27.1927376,197.774362 28.5725911,198.153512 C29.9524447,198.532661 30.8195873,198.785424 31.1740451,198.911807 L30.9461806,209.376289 L25.8951823,209.376289 L24.6419271,203.309923 C24.4900166,203.259369 24.1545527,203.158264 23.6355252,203.006604 C23.1164977,202.854944 22.3886042,202.715925 21.4518229,202.589542 C20.5150416,202.463158 19.4770022,202.399968 18.3376736,202.399968 C13.7297223,202.399968 11.4257813,204.131392 11.4257813,207.594294 C11.4257813,209.262553 12.1663337,210.545323 13.6474609,211.442645 C15.1285881,212.339966 17.3629046,213.281507 20.3504774,214.267296 C23.0342293,215.202532 25.2368982,216.068245 26.9585503,216.864459 C28.6802025,217.660674 30.1359894,218.810744 31.3259549,220.314705 C32.5159203,221.818666 33.1108941,223.708067 33.1108941,225.982966 C33.1108941,230.279996 31.4905399,233.565912 28.249783,235.84081 C25.009026,238.115709 20.9328226,239.253141 16.0210503,239.253141 C13.8943036,239.253141 11.919497,239.12676 10.0965712,238.873993 C8.2736454,238.621227 6.81785845,238.368464 5.72916667,238.115697 C4.64047488,237.862931 3.96954698,237.673359 3.71636285,237.546976 L3.71636285,226.058795 L9.18511285,226.058795 L10.0206163,232.731798 C10.0206163,232.782351 10.6662262,232.915051 11.9574653,233.129903 Z M85.2159288,238.115697 L72.3795573,238.494845 L71.6200087,233.073031 C70.0755854,234.463247 67.9741886,235.840803 65.3157552,237.205743 C62.6573218,238.570682 59.9609512,239.253141 57.2265625,239.253141 C53.0743427,239.253141 49.9602245,238.03988 47.8841146,235.613322 C45.8080047,233.186763 44.7699653,229.774466 44.7699653,225.376329 L44.7699653,203.537411 L38.1618924,201.982905 L38.1618924,197.736449 L52.5553385,197.357301 L52.5553385,224.580118 C52.5553385,227.335273 53.0996763,229.370013 54.1883681,230.684399 C55.2770598,231.998785 57.0619812,232.655968 59.5431858,232.655968 C61.518022,232.655968 63.334591,232.207314 64.992947,231.309993 C66.6513031,230.412672 68.0374655,229.420578 69.1514757,228.333682 C70.2654859,227.246786 70.8224826,226.652794 70.8224826,226.551687 L70.8224826,203.537411 L64.2144097,201.982905 L64.2144097,197.736449 L78.6078559,197.357301 L78.6078559,232.27682 L85.2159288,233.831327 L85.2159288,238.115697 Z M101.375326,181.982855 C103.869189,179.290891 107.420044,177.94493 112.027995,177.94493 C114.205378,177.94493 116.167526,178.14714 117.914497,178.551567 C119.661467,178.955993 121.066618,179.392009 122.129991,179.859627 C123.193365,180.327245 123.725043,180.586327 123.725043,180.63688 L123.725043,190.343065 L118.256293,190.343065 L117.078993,184.12504 C116.876446,184.074487 116.338438,183.998658 115.464952,183.897552 C114.591467,183.796445 113.585075,183.745892 112.445747,183.745892 C109.863268,183.745892 108.046699,184.409395 106.995985,185.736419 C105.945271,187.063443 105.419922,188.990759 105.419922,191.518424 L105.419922,197.736449 L115.711806,197.736449 L115.445964,203.537411 L105.419922,203.537411 L105.419922,232.27682 L113.205295,234.210474 L113.205295,238.494845 L91.0264757,238.494845 L91.0264757,234.210474 L97.6345486,232.27682 L97.6345486,203.537411 L90.6467014,203.537411 L90.6467014,198.494745 L97.6345486,197.736449 L97.6345486,193.07293 C97.6345486,188.371473 98.8814618,184.674818 101.375326,181.982855 Z M133.618164,181.982855 C136.112028,179.290891 139.662882,177.94493 144.270833,177.94493 C146.448217,177.94493 148.410365,178.14714 150.157335,178.551567 C151.904306,178.955993 153.309456,179.392009 154.37283,179.859627 C155.436203,180.327245 155.967882,180.586327 155.967882,180.63688 L155.967882,190.343065 L150.499132,190.343065 L149.321832,184.12504 C149.119284,184.074487 148.581276,183.998658 147.707791,183.897552 C146.834306,183.796445 145.827914,183.745892 144.688585,183.745892 C142.106107,183.745892 140.289538,184.409395 139.238824,185.736419 C138.18811,187.063443 137.66276,188.990759 137.66276,191.518424 L137.66276,197.736449 L147.954644,197.736449 L147.688802,203.537411 L137.66276,203.537411 L137.66276,232.27682 L145.448134,234.210474 L145.448134,238.494845 L123.269314,238.494845 L123.269314,234.210474 L129.877387,232.27682 L129.877387,203.537411 L122.88954,203.537411 L122.88954,198.494745 L129.877387,197.736449 L129.877387,193.07293 C129.877387,188.371473 131.1243,184.674818 133.618164,181.982855 Z M173.494466,198.589532 C175.50728,197.237231 177.69096,196.561091 180.045573,196.561091 C181.184902,196.561091 182.267247,196.649557 183.292643,196.826494 C184.318039,197.003431 185.159864,197.186684 185.818142,197.376258 C186.476421,197.565833 186.88151,197.685896 187.03342,197.736449 L186.653646,208.997141 L181.56467,208.997141 L180.425347,203.158264 C177.842869,203.158264 175.614882,203.777532 173.741319,205.016088 C171.867757,206.254644 170.336016,207.657477 169.14605,209.22463 L169.14605,232.27682 L176.931424,234.210474 L176.931424,238.494845 L154.752604,238.494845 L154.752604,234.210474 L161.360677,232.27682 L161.360677,203.537411 L154.752604,201.982905 L154.752604,197.736449 L167.588976,197.357301 L168.272569,203.006604 C169.741037,201.414175 171.481652,199.941832 173.494466,198.589532 Z M196.698676,198.703276 C198.331714,198.210381 200.262214,197.730132 202.490234,197.262514 C204.718255,196.794896 206.819652,196.561091 208.794488,196.561091 C213.503713,196.561091 217.079885,197.496313 219.523112,199.366785 C221.966339,201.237257 223.187934,204.320962 223.187934,208.617993 L223.187934,232.27682 L229.416233,233.831327 L229.416233,238.115697 L217.33941,238.494845 L215.70638,233.073031 C214.035365,234.74129 212.104865,236.188356 209.914822,237.414274 C207.724779,238.640192 205.40185,239.253141 202.945964,239.253141 C199.274794,239.253141 196.413856,238.235771 194.363064,236.201001 C192.312273,234.16623 191.286892,231.303692 191.286892,227.613301 C191.286892,223.316271 192.831292,220.238885 195.920139,218.381051 C199.008985,216.523217 203.426982,215.594314 209.174262,215.594314 L215.402561,215.594314 L215.402561,209.376289 C215.402561,207.10139 214.76961,205.369965 213.503689,204.181963 C212.237769,202.99396 210.402211,202.399968 207.996962,202.399968 C206.604449,202.399968 205.325888,202.488435 204.161241,202.665371 C202.996594,202.842308 202.078816,203.019242 201.407878,203.196178 C200.73694,203.373115 200.325522,203.486858 200.173611,203.537411 L199.072266,209.376289 L194.021267,209.376289 L193.641493,199.670103 C194.046588,199.518443 195.065639,199.196171 196.698676,198.703276 Z M201.711697,222.191487 C200.053341,223.227829 199.224175,224.908702 199.224175,227.234154 C199.224175,229.003519 199.730536,230.41899 200.743273,231.48061 C201.756009,232.542229 203.148501,233.073031 204.92079,233.073031 C206.642442,233.073031 208.275455,232.60542 209.819878,231.670184 C211.364302,230.734948 212.680839,229.723897 213.769531,228.637001 C214.858223,227.550105 215.402561,226.956112 215.402561,226.855006 L215.402561,220.636981 L209.971788,220.636981 C206.123389,220.636981 203.370053,221.155144 201.711697,222.191487 Z M268.400065,204.238835 C268.741864,204.858113 269.070998,205.755421 269.387478,206.930785 C269.703958,208.106149 269.862196,209.439473 269.862196,210.930795 C269.862196,216.011402 268.330455,219.802843 265.266927,222.305231 C262.203399,224.80762 258.025923,226.058795 252.734375,226.058795 C251.291225,226.058795 250.025324,225.970328 248.936632,225.793392 C247.84794,225.616455 247.164353,225.477436 246.885851,225.376329 L246.506076,232.655968 L258.582899,232.655968 C263.6719,232.655968 267.532901,233.616466 270.166016,235.537492 C272.799131,237.458517 274.115668,240.251546 274.115668,243.91666 C274.115668,248.314797 272.406701,251.746051 268.988715,254.210525 C265.570729,256.674998 260.5451,257.907216 253.911675,257.907216 C248.063122,257.907216 243.486887,257.041504 240.182834,255.310054 C236.878781,253.578603 235.22678,250.690789 235.22678,246.646525 C235.22678,244.573839 235.834412,242.810819 237.049696,241.357412 C238.26498,239.904004 239.625824,238.77921 241.13227,237.982996 C242.638716,237.186781 243.391927,236.839232 243.391927,236.940339 C243.391927,236.990892 242.96785,236.889787 242.119683,236.637021 C241.271516,236.384254 240.492987,235.929281 239.784071,235.272088 C239.075156,234.614896 238.720703,233.692312 238.720703,232.504309 C238.720703,231.720733 239.01819,230.684406 239.613173,229.395296 C240.208155,228.106187 240.834777,226.918202 241.493056,225.831306 C242.151334,224.74441 242.581741,224.049313 242.784288,223.745993 C242.784288,223.897653 242.227291,223.505871 241.113281,222.570635 C239.999271,221.635399 238.999209,220.276799 238.113064,218.494795 C237.22692,216.712791 236.783854,214.444246 236.783854,211.689091 C236.783854,206.760144 238.328254,203.006617 241.417101,200.428399 C244.505947,197.85018 248.670764,196.561091 253.911675,196.561091 C255.405462,196.561091 256.722,196.662196 257.861328,196.864409 C259.000657,197.066622 259.880458,197.287789 260.50076,197.527918 C261.121061,197.768046 261.507161,197.938661 261.659071,198.039767 L275.292969,197.736449 L275.292969,201.982905 L267.73546,203.082434 C267.836734,203.234094 268.058267,203.619557 268.400065,204.238835 Z M246.75293,204.27675 C245.297121,205.805987 244.569227,208.150361 244.569227,211.309943 C244.569227,214.166204 245.297121,216.43475 246.75293,218.115647 C248.208738,219.796544 250.329124,220.636981 253.114149,220.636981 C256.228314,220.636981 258.500608,219.89765 259.931098,218.418965 C261.361588,216.940281 262.076823,214.570631 262.076823,211.309943 C262.076823,208.302021 261.361588,205.995561 259.931098,204.390494 C258.500608,202.785427 256.354904,201.982905 253.493924,201.982905 C250.455714,201.982905 248.208738,202.747512 246.75293,204.27675 Z M246.657986,239.310013 C245.721205,239.954568 244.87938,240.795004 244.132487,241.831347 C243.385594,242.867689 243.012153,244.08095 243.012153,245.471166 C243.012153,247.998831 244.012215,249.730256 246.01237,250.665492 C248.012524,251.600728 251.02537,252.068339 255.050998,252.068339 C259.000671,252.068339 261.937563,251.461709 263.861762,250.248429 C265.785962,249.03515 266.748047,247.189982 266.748047,244.71287 C266.748047,242.336865 265.899893,240.706546 264.203559,239.821863 C262.507225,238.93718 259.975422,238.494845 256.608073,238.494845 L248.063151,238.494845 C248.063151,238.393739 247.594767,238.665459 246.657986,239.310013 Z M286.876085,180.523135 C287.863503,179.562623 289.053451,179.082374 290.445964,179.082374 C293.813313,179.082374 295.496962,180.902265 295.496962,184.542103 C295.496962,186.210362 294.977942,187.531047 293.939887,188.504198 C292.901832,189.477349 291.737203,189.963918 290.445964,189.963918 C288.90154,189.963918 287.673616,189.483668 286.762153,188.523156 C285.85069,187.562643 285.394965,186.235639 285.394965,184.542103 C285.394965,182.823291 285.888667,181.483648 286.876085,180.523135 Z M300.54796,238.494845 L280.343967,238.494845 L280.343967,234.210474 L286.95204,232.27682 L286.95204,203.537411 L280.343967,201.982905 L280.343967,197.736449 L294.737413,197.357301 L294.737413,232.27682 L300.54796,234.210474 L300.54796,238.494845 Z M312.188043,198.703276 C313.82108,198.210381 315.75158,197.730132 317.979601,197.262514 C320.207621,196.794896 322.309018,196.561091 324.283854,196.561091 C328.993079,196.561091 332.569251,197.496313 335.012478,199.366785 C337.455705,201.237257 338.6773,204.320962 338.6773,208.617993 L338.6773,232.27682 L344.905599,233.831327 L344.905599,238.115697 L332.828776,238.494845 L331.195747,233.073031 C329.524731,234.74129 327.594231,236.188356 325.404188,237.414274 C323.214146,238.640192 320.891216,239.253141 318.43533,239.253141 C314.76416,239.253141 311.903222,238.235771 309.852431,236.201001 C307.801639,234.16623 306.776259,231.303692 306.776259,227.613301 C306.776259,223.316271 308.320659,220.238885 311.409505,218.381051 C314.498352,216.523217 318.916349,215.594314 324.663628,215.594314 L330.891927,215.594314 L330.891927,209.376289 C330.891927,207.10139 330.258976,205.369965 328.993056,204.181963 C327.727135,202.99396 325.891577,202.399968 323.486328,202.399968 C322.093815,202.399968 320.815255,202.488435 319.650608,202.665371 C318.485961,202.842308 317.568182,203.019242 316.897244,203.196178 C316.226306,203.373115 315.814888,203.486858 315.662977,203.537411 L314.561632,209.376289 L309.510634,209.376289 L309.130859,199.670103 C309.535954,199.518443 310.555005,199.196171 312.188043,198.703276 Z M317.201063,222.191487 C315.542707,223.227829 314.713542,224.908702 314.713542,227.234154 C314.713542,229.003519 315.219902,230.41899 316.232639,231.48061 C317.245375,232.542229 318.637867,233.073031 320.410156,233.073031 C322.131808,233.073031 323.764822,232.60542 325.309245,231.670184 C326.853668,230.734948 328.170206,229.723897 329.258898,228.637001 C330.347589,227.550105 330.891927,226.956112 330.891927,226.855006 L330.891927,220.636981 L325.461155,220.636981 C321.612756,220.636981 318.859419,221.155144 317.201063,222.191487 Z" id="suffragia-copy-9" fill="#2A2A1F"></path>
                <g id="icon-logo" transform="translate(86.111111, 0.000000)" stroke-width="1">
                    <g id="Group-2" transform="translate(2.528409, 0.000000)">
                        <ellipse id="Oval-2-Copy-3" fill="#F65C3B" cx="88.0547237" cy="82.6843917" rx="80.9274378" ry="81.4909091"></ellipse>
                        <polygon id="Rectangle-4-Copy-3" fill="url(#linearGradient-1)" points="20.209001 69.1396484 140.994116 97.0718306 142.743014 114.128684 36.8824269 114.128684"></polygon>
                        <polygon id="Rectangle-5-Copy-3" fill="url(#linearGradient-2)" points="31.2811398 113.977787 145.11868 113.977787 149.526562 121.738026 26.582885 121.738026"></polygon>
                        <g id="enveloppe-illus-copy-9" transform="translate(1.253340, 21.314395)">
                            <mask id="mask-4" fill="white">
                                <use xlink:href="#path-3"></use>
                            </mask>
                            <g id="Mask"></g>
                            <g id="enveloppe-illus-arrondie" mask="url(#mask-4)">
                                <g transform="translate(78.783982, 62.268668) rotate(47.000000) translate(-78.783982, -62.268668) translate(26.870377, 26.983001)" id="Mask-Copy-+-Path-2-Copy-3-+-Path-2-Copy-5-+-Path-3-Copy-Mask">
                                    <g>
                                        <mask id="mask-6" fill="white">
                                            <use xlink:href="#path-5"></use>
                                        </mask>
                                        <use id="Mask" fill="#D8D8D8" xlink:href="#path-5"></use>
                                        <g id="Mask-Copy" mask="url(#mask-6)">
                                            <use fill="#E6E5D6" xlink:href="#path-8"></use>
                                            <use fill="url(#radialGradient-7)" xlink:href="#path-8"></use>
                                        </g>
                                        <g id="Path-2-Copy-3" mask="url(#mask-6)">
                                            <use fill="black" fill-opacity="1" filter="url(#filter-11)" xlink:href="#path-10"></use>
                                            <use fill="#E6E5D6" fill-rule="evenodd" xlink:href="#path-10"></use>
                                            <use fill="url(#linearGradient-9)" fill-rule="evenodd" xlink:href="#path-10"></use>
                                        </g>
                                        <g id="Path-2-Copy-5" mask="url(#mask-6)">
                                            <use fill="black" fill-opacity="1" filter="url(#filter-14)" xlink:href="#path-13"></use>
                                            <use fill="#E6E5D6" fill-rule="evenodd" xlink:href="#path-13"></use>
                                            <use fill="url(#linearGradient-12)" fill-rule="evenodd" xlink:href="#path-13"></use>
                                        </g>
                                        <g id="Path-3-Copy" mask="url(#mask-6)">
                                            <use fill="black" fill-opacity="1" filter="url(#filter-17)" xlink:href="#path-16"></use>
                                            <use fill="#E6E5D6" fill-rule="evenodd" xlink:href="#path-16"></use>
                                            <use fill="url(#linearGradient-15)" fill-rule="evenodd" xlink:href="#path-16"></use>
                                        </g>
                                    </g>
                                </g>
                            </g>
                        </g>
                    </g>
                </g>
            </g>
        </g>
    </g>
</svg>